<svg width="29" height="29" viewBox="0 0 29 29" fill="none" xmlns="http://www.w3.org/2000/svg">
<path fill-rule="evenodd" clip-rule="evenodd" d="M16.9096 2.96659C16.9096 2.88791 16.8784 2.81245 16.8227 2.75681C16.7671 2.70118 16.6917 2.66992 16.613 2.66992H8.3063C7.44081 2.66992 6.61077 3.01374 5.99878 3.62573C5.38678 4.23772 5.04297 5.06777 5.04297 5.93325V22.5466C5.04297 23.4121 5.38678 24.2421 5.99878 24.8541C6.61077 25.4661 7.44081 25.8099 8.3063 25.8099H20.173C21.0385 25.8099 21.8685 25.4661 22.4805 24.8541C23.0925 24.2421 23.4363 23.4121 23.4363 22.5466V10.8544C23.4363 10.7757 23.405 10.7002 23.3494 10.6446C23.2938 10.589 23.2183 10.5577 23.1396 10.5577H17.7996C17.5636 10.5577 17.3372 10.4639 17.1703 10.297C17.0034 10.1301 16.9096 9.90374 16.9096 9.6677V2.96659ZM17.7996 14.5366C18.0357 14.5366 18.2621 14.6304 18.429 14.7973C18.5959 14.9642 18.6896 15.1905 18.6896 15.4266C18.6896 15.6626 18.5959 15.889 18.429 16.0559C18.2621 16.2228 18.0357 16.3166 17.7996 16.3166H10.6796C10.4436 16.3166 10.2172 16.2228 10.0503 16.0559C9.8834 15.889 9.78964 15.6626 9.78964 15.4266C9.78964 15.1905 9.8834 14.9642 10.0503 14.7973C10.2172 14.6304 10.4436 14.5366 10.6796 14.5366H17.7996ZM17.7996 19.2833C18.0357 19.2833 18.2621 19.377 18.429 19.5439C18.5959 19.7108 18.6896 19.9372 18.6896 20.1733C18.6896 20.4093 18.5959 20.6357 18.429 20.8026C18.2621 20.9695 18.0357 21.0633 17.7996 21.0633H10.6796C10.4436 21.0633 10.2172 20.9695 10.0503 20.8026C9.8834 20.6357 9.78964 20.4093 9.78964 20.1733C9.78964 19.9372 9.8834 19.7108 10.0503 19.5439C10.2172 19.377 10.4436 19.2833 10.6796 19.2833H17.7996Z" fill="#356899"/>
<path d="M18.6895 3.35109C18.6895 3.13274 18.9185 2.9939 19.0882 3.13037C19.2318 3.24666 19.3611 3.38194 19.4715 3.53621L23.0469 8.51665C23.1276 8.63057 23.0398 8.77772 22.8997 8.77772H18.9861C18.9074 8.77772 18.832 8.74646 18.7763 8.69082C18.7207 8.63519 18.6895 8.55973 18.6895 8.48105V3.35109Z" fill="#356899"/>
</svg>
