<svg width="29" height="29" viewBox="0 0 29 29" fill="none" xmlns="http://www.w3.org/2000/svg">
<path d="M26.1064 10.2147V19.8766C26.1064 20.8617 25.7295 21.8095 25.053 22.5255C24.3765 23.2415 23.4516 23.6715 22.4681 23.7273L22.2497 23.7332H6.22971C5.24462 23.7333 4.29684 23.3564 3.5808 22.6799C2.86476 22.0033 2.43475 21.0784 2.37898 20.0949L2.37305 19.8766V10.2147L13.8268 16.2145C13.9542 16.2813 14.0959 16.3161 14.2397 16.3161C14.3836 16.3161 14.5253 16.2813 14.6527 16.2145L26.1064 10.2147ZM6.22971 4.74658H22.2497C23.2057 4.74647 24.1276 5.10139 24.8367 5.74251C25.5458 6.38363 25.9915 7.26526 26.0874 8.21639L14.2397 14.4227L2.39203 8.21639C2.48403 7.30303 2.8988 6.45244 3.56179 5.8175C4.22478 5.18257 5.09251 4.80495 6.00899 4.75252L6.22971 4.74658Z" fill="#263238"/>
</svg>
