<svg width="29" height="29" viewBox="0 0 29 29" fill="none" xmlns="http://www.w3.org/2000/svg">
<path d="M14.2405 1.18652C17.0731 1.18652 19.7896 2.31173 21.7924 4.31462C23.7953 6.31751 24.9205 9.03401 24.9205 11.8665C24.9205 16.288 21.5504 20.9208 14.9525 25.8692C14.7471 26.0232 14.4973 26.1065 14.2405 26.1065C13.9838 26.1065 13.734 26.0232 13.5285 25.8692C6.93068 20.9208 3.56055 16.288 3.56055 11.8665C3.56055 9.03401 4.68576 6.31751 6.68865 4.31462C8.69153 2.31173 11.408 1.18652 14.2405 1.18652ZM14.2405 8.30652C13.2964 8.30652 12.3909 8.68159 11.7232 9.34922C11.0556 10.0169 10.6805 10.9224 10.6805 11.8665C10.6805 12.8107 11.0556 13.7162 11.7232 14.3838C12.3909 15.0515 13.2964 15.4265 14.2405 15.4265C15.1847 15.4265 16.0902 15.0515 16.7578 14.3838C17.4255 13.7162 17.8005 12.8107 17.8005 11.8665C17.8005 10.9224 17.4255 10.0169 16.7578 9.34922C16.0902 8.68159 15.1847 8.30652 14.2405 8.30652Z" fill="#F6CA03"/>
</svg>
