<svg width="287" height="290" viewBox="0 0 287 290" fill="none" xmlns="http://www.w3.org/2000/svg">
<path d="M236.775 145.267C184.92 115.02 101.133 115.02 49.6169 145.267C-1.89959 175.514 -1.62407 224.564 50.2253 254.811C102.075 285.058 185.873 285.064 237.39 254.811C288.906 224.559 288.625 175.52 236.775 145.267Z" fill="#F5F5F5"/>
<path d="M129.982 254.243L52.4121 208.98L67.9159 199.897L145.503 245.189L129.982 254.243Z" fill="#E6E6E6"/>
<path d="M209.951 210.975V210.969L165.409 184.985H165.415L120.872 159.001L76.3297 133.017L32.0801 159.001L76.6167 184.985L121.159 210.969V210.975L165.702 236.959H165.696L210.238 262.943L254.494 236.959L209.951 210.975Z" fill="#E6E6E6"/>
<path d="M243.583 233.931L240.931 231.727C240.765 227.505 240.604 223.027 241.299 218.88C241.993 214.733 243.595 210.586 246.568 207.588C247.802 206.329 249.335 205.268 251.079 205.059C252.824 204.85 254.765 205.743 255.367 207.408C255.97 209.072 255.046 211.044 254.036 212.593C251.889 215.893 249.323 218.903 247.216 222.233C245 225.738 243.746 229.775 243.583 233.931Z" fill="#44A2C6"/>
<path d="M243.581 234.506L246.233 236.71C248.196 232.528 250.9 228.648 254.637 225.968C255.969 225.129 257.215 224.158 258.356 223.068C259.424 221.908 260.17 220.307 259.86 218.759C259.464 216.763 257.369 215.447 255.354 215.435C253.339 215.424 251.457 216.456 249.901 217.755C245.097 221.693 242.376 228.387 243.581 234.506Z" fill="#44A2C6"/>
<path opacity="0.3" d="M243.581 234.506L246.233 236.71C248.196 232.528 250.9 228.648 254.637 225.968C255.969 225.129 257.215 224.158 258.356 223.068C259.424 221.908 260.17 220.307 259.86 218.759C259.464 216.763 257.369 215.447 255.354 215.435C253.339 215.424 251.457 216.456 249.901 217.755C245.097 221.693 242.376 228.387 243.581 234.506Z" fill="black"/>
<path d="M242.085 232.922C242.024 232.921 241.965 232.895 241.922 232.851C241.879 232.806 241.855 232.747 241.855 232.684C241.965 226.42 243.359 214.844 251.464 207.744C251.487 207.724 251.514 207.709 251.543 207.699C251.572 207.689 251.602 207.685 251.633 207.688C251.663 207.69 251.693 207.698 251.72 207.712C251.747 207.725 251.771 207.744 251.791 207.768C251.811 207.791 251.827 207.818 251.836 207.847C251.846 207.876 251.85 207.907 251.848 207.938C251.846 207.968 251.837 207.998 251.824 208.026C251.81 208.054 251.791 208.078 251.768 208.098C248.324 211.097 242.584 218.289 242.315 232.713C242.309 232.771 242.282 232.824 242.24 232.863C242.197 232.901 242.142 232.923 242.085 232.922Z" fill="white"/>
<path d="M244.868 235.805C244.838 235.802 244.809 235.793 244.782 235.778C244.755 235.764 244.731 235.744 244.712 235.721C244.693 235.697 244.678 235.669 244.67 235.64C244.661 235.611 244.658 235.58 244.661 235.549C245.201 229.918 247.635 222.157 256.141 217.187C256.195 217.157 256.258 217.149 256.317 217.166C256.376 217.182 256.426 217.221 256.457 217.274C256.472 217.3 256.482 217.33 256.486 217.36C256.49 217.391 256.488 217.422 256.48 217.451C256.472 217.481 256.458 217.509 256.44 217.533C256.421 217.557 256.398 217.578 256.371 217.593C248.037 222.459 245.649 230.068 245.115 235.573C245.116 235.605 245.11 235.637 245.098 235.667C245.085 235.697 245.067 235.723 245.044 235.745C245.02 235.767 244.992 235.784 244.962 235.794C244.932 235.804 244.9 235.808 244.868 235.805Z" fill="white"/>
<path d="M35.6788 131.991C34.6399 130.987 33.4517 129.891 33.3828 128.441C33.3865 127.791 33.5863 127.159 33.9556 126.627C34.3248 126.095 34.8459 125.69 35.4492 125.466C36.0581 125.257 36.7023 125.175 37.3434 125.224C37.9844 125.272 38.6092 125.451 39.1802 125.75C40.3173 126.356 41.3302 127.175 42.165 128.163C44.6805 130.986 46.5013 134.37 47.4797 138.038C48.4581 141.706 48.5665 145.556 47.796 149.275C47.7726 149.526 47.6953 149.77 47.5694 149.988C47.4435 150.206 47.2721 150.394 47.067 150.539C46.3724 150.91 45.5803 150.255 45.1096 149.623C44.0729 148.229 43.2949 146.657 42.8136 144.983C42.3946 143.573 42.584 142.025 42.0617 140.696C40.7817 137.46 38.1528 134.38 35.6788 131.991Z" fill="#44A2C6"/>
<path d="M46.4929 148.636C46.4565 148.637 46.4204 148.631 46.3866 148.617C46.3528 148.603 46.3221 148.583 46.2964 148.557C46.2706 148.531 46.2504 148.5 46.2368 148.466C46.2232 148.431 46.2166 148.395 46.2174 148.358C46.1833 144.285 45.253 140.271 43.4938 136.607C41.7346 132.942 39.1906 129.719 36.0461 127.171C36.0172 127.148 35.9931 127.12 35.9751 127.088C35.9571 127.055 35.9456 127.02 35.9413 126.983C35.9371 126.947 35.9401 126.909 35.9502 126.874C35.9603 126.838 35.9773 126.805 36.0002 126.776C36.0221 126.747 36.0496 126.723 36.0809 126.705C36.1123 126.687 36.1469 126.675 36.1828 126.671C36.2187 126.667 36.255 126.67 36.2897 126.68C36.3244 126.69 36.3567 126.707 36.3848 126.73C39.5968 129.329 42.1953 132.619 43.9914 136.36C45.7875 140.101 46.7362 144.2 46.7685 148.358C46.7692 148.395 46.7626 148.431 46.7491 148.466C46.7355 148.5 46.7152 148.531 46.6895 148.557C46.6638 148.583 46.6331 148.603 46.5993 148.617C46.5655 148.631 46.5293 148.637 46.4929 148.636Z" fill="white"/>
<path d="M43.0785 159.772C41.3565 160.352 39.1293 159.97 38.1191 158.421C36.9252 156.6 37.6714 153.781 36.0757 152.319C35.186 151.496 33.8715 151.415 32.6891 151.159C31.5066 150.904 30.1864 150.255 30.0142 149.042C29.7789 147.442 31.7362 146.113 31.455 144.513C31.1737 142.912 29.0327 142.448 28.3955 140.986C27.8215 139.658 28.8433 138.046 30.1979 137.547C31.5525 137.048 33.0679 137.39 34.4111 137.901C35.7542 138.411 37.0744 139.061 38.5037 139.252C39.9329 139.443 41.7066 139.142 42.8029 140.174C44.2609 141.555 43.4286 144.188 44.5536 145.852C45.3113 146.972 46.7406 147.36 47.8312 148.172C48.5095 148.669 49.06 149.322 49.4366 150.078C49.8131 150.834 50.0047 151.67 49.9952 152.517C49.9607 154.355 49.0021 155.678 47.636 156.733C46.1781 157.835 44.8751 159.187 43.0785 159.772Z" fill="#44A2C6"/>
<path opacity="0.2" d="M43.0785 159.772C41.3565 160.352 39.1293 159.97 38.1191 158.421C36.9252 156.6 37.6714 153.781 36.0757 152.319C35.186 151.496 33.8715 151.415 32.6891 151.159C31.5066 150.904 30.1864 150.255 30.0142 149.042C29.7789 147.442 31.7362 146.113 31.455 144.513C31.1737 142.912 29.0327 142.448 28.3955 140.986C27.8215 139.658 28.8433 138.046 30.1979 137.547C31.5525 137.048 33.0679 137.39 34.4111 137.901C35.7542 138.411 37.0744 139.061 38.5037 139.252C39.9329 139.443 41.7066 139.142 42.8029 140.174C44.2609 141.555 43.4286 144.188 44.5536 145.852C45.3113 146.972 46.7406 147.36 47.8312 148.172C48.5095 148.669 49.06 149.322 49.4366 150.078C49.8131 150.834 50.0047 151.67 49.9952 152.517C49.9607 154.355 49.0021 155.678 47.636 156.733C46.1781 157.835 44.8751 159.187 43.0785 159.772Z" fill="black"/>
<path d="M42.2866 147.239V147.21C42.0226 146.827 41.7528 146.45 41.4658 146.085C38.8771 142.845 35.3669 140.487 31.4093 139.328C31.3743 139.316 31.3373 139.312 31.3007 139.316C31.264 139.319 31.2285 139.33 31.1962 139.348C31.1639 139.366 31.1356 139.391 31.1131 139.42C31.0905 139.449 31.0741 139.483 31.0649 139.519C31.0453 139.591 31.0541 139.667 31.0895 139.732C31.1249 139.797 31.1841 139.846 31.2544 139.867C35.0968 140.995 38.5033 143.289 41.0124 146.439C41.0927 146.537 41.1616 146.642 41.2362 146.74C38.1022 145.58 34.9222 146.241 33.2002 147.628C33.1717 147.651 33.1481 147.679 33.1306 147.712C33.1131 147.744 33.1022 147.78 33.0985 147.816C33.0947 147.853 33.0983 147.89 33.1088 147.925C33.1194 147.961 33.1368 147.993 33.16 148.022C33.185 148.055 33.2172 148.081 33.254 148.099C33.2909 148.118 33.3314 148.127 33.3724 148.126C33.4371 148.125 33.4996 148.103 33.5504 148.063C35.2379 146.688 38.7164 146.079 41.8791 147.622C43.8537 150.544 45.0135 153.95 45.237 157.482C45.2414 157.552 45.2723 157.619 45.3235 157.667C45.3747 157.716 45.4423 157.743 45.5125 157.743C45.5487 157.741 45.5841 157.731 45.6167 157.715C45.6493 157.699 45.6785 157.676 45.7025 157.649C45.7265 157.622 45.7449 157.59 45.7566 157.555C45.7683 157.52 45.7731 157.483 45.7708 157.447C45.5428 153.789 44.3388 150.261 42.2866 147.239Z" fill="white"/>
<path d="M76.9327 120.785L40.6846 142.071L40.6387 159.958L77.1221 181.238L113.364 159.958L113.416 142.071L76.9327 120.785Z" fill="#44A2C6"/>
<path opacity="0.2" d="M113.417 142.071L76.9336 120.785L40.6855 142.071L77.169 163.351L113.417 142.071Z" fill="white"/>
<path opacity="0.3" d="M77.169 163.351L77.123 181.238L113.365 159.958L113.417 142.071L77.169 163.351Z" fill="black"/>
<path d="M120.241 123.198L83.9932 144.484L83.9473 185.223L120.431 206.509L156.679 185.223L156.725 144.484L120.241 123.198Z" fill="#44A2C6"/>
<path opacity="0.2" d="M156.724 144.484L120.24 123.198L83.9922 144.484L120.476 165.77L156.724 144.484Z" fill="white"/>
<path opacity="0.3" d="M120.476 165.769L120.43 206.509L156.678 185.223L156.724 144.483L120.476 165.769Z" fill="black"/>
<path d="M164.595 125.79L128.347 147.07L128.301 210.98L164.784 232.266L201.027 210.98L201.078 147.07L164.595 125.79Z" fill="#44A2C6"/>
<path opacity="0.2" d="M201.077 147.07L164.594 125.79L128.346 147.07L164.829 168.356L201.077 147.07Z" fill="white"/>
<path opacity="0.3" d="M164.829 168.356L164.783 232.267L201.026 210.981L201.077 147.07L164.829 168.356Z" fill="black"/>
<path d="M164.616 125.622L128.368 146.902L128.322 210.894L164.806 232.18L201.048 210.894L201.1 146.902L164.616 125.622Z" fill="#44A2C6"/>
<path opacity="0.2" d="M201.101 146.902L164.617 125.622L128.369 146.902L164.853 168.188L201.101 146.902Z" fill="white"/>
<path opacity="0.3" d="M164.853 168.188L164.807 232.18L201.049 210.894L201.101 146.902L164.853 168.188Z" fill="black"/>
<path d="M209.974 119.37L173.731 140.656L173.68 237.469L210.163 258.755L246.411 237.469L246.457 140.656L209.974 119.37Z" fill="#44A2C6"/>
<path opacity="0.2" d="M246.458 140.656L209.975 119.37L173.732 140.656L210.216 161.942L246.458 140.656Z" fill="white"/>
<path opacity="0.3" d="M210.216 161.942L210.164 258.755L246.412 237.469L246.458 140.656L210.216 161.942Z" fill="black"/>
<path d="M143.707 144.89L141.204 143.196L122.32 181.929L124.799 183.622L135.889 177.155C135.407 195.361 130.407 204.491 125.557 209.734L124.782 209.931L124.329 210.035L123.422 210.233L123.014 210.32L122.32 210.447L121.809 210.534L121.074 210.65L120.586 210.726C120.316 210.766 120.012 210.795 119.765 210.83L119.335 210.888L118.187 211.004H118.066C117.647 211.045 117.222 211.074 116.798 211.103C116.258 211.143 115.713 211.166 115.162 211.19H114.668H113.468H112.981C112.32 211.19 111.655 211.19 110.989 211.155H110.644C110.024 211.155 109.405 211.097 108.779 211.056H108.463C107.826 211.01 107.189 210.958 106.546 210.888L106.087 210.842C105.513 210.778 104.939 210.714 104.365 210.639L104.026 210.592C103.401 210.505 102.775 210.412 102.143 210.308L101.69 210.227C101.173 210.14 100.663 210.047 100.146 209.948L99.6638 209.856C99.0496 209.734 98.4297 209.6 97.804 209.461L97.5228 209.397C96.9889 209.276 96.4494 209.142 95.9098 209.009L95.3358 208.87L93.8951 208.487L93.4531 208.365C92.8389 208.191 92.219 208.011 91.5991 207.82L91.1686 207.686C90.6941 207.543 90.2177 207.393 89.7393 207.234L89.1653 207.037L87.7705 206.555L87.2826 206.387C86.6703 206.167 86.0562 205.941 85.4401 205.709L85.1072 205.575C84.5963 205.384 84.0854 205.181 83.5746 204.995L83.0006 204.752L81.6804 204.201L81.1064 203.951L79.3844 203.203L79.2237 203.133C78.6037 202.849 77.9781 202.553 77.3582 202.263L76.7842 202.002C76.3364 201.788 75.883 201.567 75.4352 201.341L74.8153 201.034C74.3389 200.796 73.8682 200.552 73.3918 200.303L72.9154 200.059L71.0384 199.05C70.694 198.87 70.3554 198.679 70.0167 198.47C69.8388 198.372 69.6608 198.279 69.4886 198.174L67.9675 197.31L67.9216 197.281L52.4121 206.434V208.98C70.0339 219.228 87.2941 224.106 102.35 223.097C109.508 222.621 115.615 220.852 120.586 217.836C120.466 217.912 120.345 217.993 120.219 218.063L135.774 208.928C137.155 208.119 138.468 207.198 139.7 206.173C139.867 206.039 140.039 205.894 140.205 205.749L140.355 205.622L140.751 205.268L140.888 205.146L141.411 204.665L141.497 204.578L141.939 204.154L142.1 203.998L142.536 203.551L142.639 203.441C142.817 203.255 142.995 203.07 143.173 202.861C143.213 202.809 143.259 202.762 143.305 202.71C143.443 202.559 143.581 202.403 143.718 202.24L143.873 202.055C144.045 201.857 144.212 201.654 144.378 201.446L144.413 201.405C144.591 201.185 144.769 200.958 144.941 200.726C144.993 200.657 145.044 200.593 145.09 200.523C145.228 200.344 145.36 200.158 145.498 199.972L145.641 199.769L146.158 199.004C146.185 198.969 146.21 198.932 146.232 198.894L146.56 198.389L146.657 198.227L146.904 197.815C147.007 197.647 147.111 197.478 147.208 197.304L147.455 196.869L147.748 196.336L147.995 195.872C148.086 195.686 148.184 195.501 148.276 195.292L148.517 194.81C148.557 194.718 148.597 194.636 148.643 194.549C148.689 194.462 148.787 194.236 148.856 194.074L148.959 193.853C149.108 193.517 149.257 193.169 149.407 192.815C149.435 192.74 149.47 192.653 149.504 192.577C149.619 192.282 149.74 191.997 149.854 191.684L149.963 191.388C149.963 191.319 150.015 191.255 150.044 191.191L150.164 190.837C150.279 190.518 150.388 190.199 150.497 189.875C150.56 189.689 150.624 189.498 150.681 189.295C150.784 188.97 150.888 188.645 150.985 188.309C151.02 188.187 151.06 188.077 151.094 187.955C151.129 187.833 151.14 187.775 151.169 187.688C151.243 187.421 151.318 187.143 151.393 186.864C151.467 186.586 151.513 186.4 151.576 186.163C151.639 185.925 151.714 185.583 151.783 185.293C151.829 185.119 151.869 184.95 151.909 184.771C151.909 184.701 151.944 184.62 151.955 184.55C152.013 184.295 152.064 184.04 152.122 183.785L152.294 182.938C152.346 182.671 152.391 182.404 152.437 182.137C152.483 181.871 152.518 181.737 152.552 181.557C152.552 181.459 152.581 181.36 152.598 181.262L152.719 180.508C152.77 180.189 152.816 179.864 152.862 179.533C152.908 179.203 152.937 179.011 152.971 178.744C152.971 178.565 153.023 178.391 153.046 178.205L153.097 177.724C153.126 177.463 153.161 177.207 153.184 176.941C153.224 176.587 153.258 176.221 153.293 175.862C153.321 175.595 153.344 175.328 153.367 175.056L153.402 174.684C153.402 174.423 153.442 174.151 153.459 173.884C153.476 173.617 153.499 173.374 153.511 173.113C153.511 172.678 153.562 172.231 153.585 171.784C153.585 171.552 153.585 171.326 153.62 171.094C153.62 171.048 153.62 171.001 153.62 170.955C153.62 170.375 153.66 169.754 153.677 169.145V169C153.677 168.333 153.677 167.649 153.677 166.959C153.677 166.889 153.677 166.825 153.677 166.756L162.718 161.484L143.707 144.89Z" fill="#455A64"/>
<path d="M143.707 144.89L124.822 183.622L122.343 181.929L141.204 143.196L143.707 144.89ZM121.476 217.262C121.815 217.042 122.142 216.816 122.469 216.578L122.859 216.299C123.29 215.98 123.715 215.656 124.128 215.313L124.627 214.884L124.776 214.757L125.109 214.467L125.172 214.409L125.31 214.287C125.482 214.13 125.66 213.968 125.833 213.8L125.924 213.713L126.062 213.585L126.366 213.289L126.521 213.133C126.556 213.098 126.59 213.057 126.63 213.022L126.958 212.692L127.061 212.582L127.423 212.193L127.595 212.007L127.727 211.862L128.14 211.387L128.301 211.201L128.461 211.01L128.806 210.592C128.809 210.579 128.809 210.565 128.806 210.552C128.858 210.494 128.903 210.43 128.949 210.372C129.081 210.209 129.208 210.041 129.34 209.873L129.489 209.676L129.793 209.252L129.891 209.119L130.034 208.916L130.327 208.487L130.557 208.156C130.578 208.116 130.603 208.077 130.631 208.04L130.821 207.733C130.901 207.617 130.976 207.495 131.05 207.373C131.125 207.251 131.217 207.101 131.303 206.961C131.389 206.822 131.504 206.625 131.601 206.451C131.699 206.277 131.768 206.161 131.854 206.016L132.043 205.668L132.147 205.482L132.388 205.019C132.451 204.903 132.508 204.781 132.571 204.659L132.675 204.456C132.755 204.299 132.83 204.137 132.91 203.974L132.95 203.887L133.254 203.244C133.289 203.168 133.318 203.093 133.352 203.023C133.45 202.809 133.541 202.582 133.639 202.362C133.691 202.234 133.748 202.113 133.8 201.985C133.851 201.857 133.869 201.817 133.897 201.736C134.018 201.446 134.133 201.156 134.247 200.854C134.288 200.75 134.322 200.651 134.362 200.552C134.402 200.454 134.448 200.315 134.494 200.193L134.563 200.001C134.672 199.682 134.787 199.364 134.89 199.039C134.942 198.9 134.988 198.749 135.034 198.604L135.08 198.47C135.183 198.145 135.281 197.821 135.384 197.484V197.444C135.441 197.252 135.499 197.061 135.55 196.864C135.602 196.667 135.7 196.318 135.774 196.04C135.774 196.04 135.774 195.994 135.774 195.965C135.826 195.756 135.883 195.553 135.935 195.338C136.01 195.054 136.078 194.758 136.147 194.468L136.32 193.726C136.377 193.476 136.429 193.215 136.48 192.96C136.515 192.804 136.543 192.647 136.578 192.49C136.612 192.334 136.63 192.241 136.652 192.113C136.704 191.847 136.756 191.58 136.802 191.313C136.848 191.064 136.894 190.814 136.934 190.559C136.934 190.513 136.934 190.466 136.934 190.414C136.98 190.165 137.02 189.915 137.054 189.66C137.106 189.341 137.158 189.016 137.203 188.691L137.307 187.897C137.353 187.56 137.399 187.218 137.439 186.876L137.525 186.099C137.565 185.739 137.6 185.38 137.634 185.014C137.634 184.747 137.686 184.481 137.709 184.214C137.737 183.825 137.772 183.431 137.795 183.054C137.795 182.799 137.835 182.543 137.852 182.282C137.881 181.847 137.904 181.401 137.927 180.954C137.927 180.722 137.927 180.502 137.961 180.264C137.99 179.626 138.007 178.971 138.024 178.309C138.024 178.263 138.024 178.217 138.024 178.17C138.024 177.428 138.024 176.662 138.024 175.885L135.803 177.178C135.321 195.385 130.321 204.514 125.471 209.757C124.486 210.816 123.436 211.809 122.325 212.732C121.065 213.774 119.721 214.707 118.307 215.522C118.055 215.667 117.797 215.806 117.538 215.946L117.039 216.212C116.763 216.357 116.465 216.491 116.195 216.624L115.724 216.85C115.374 217.013 115.013 217.164 114.651 217.314L114.513 217.372C114.002 217.581 113.492 217.778 112.969 217.952C112.694 218.051 112.395 218.138 112.131 218.231L111.643 218.393C111.293 218.504 110.932 218.608 110.57 218.706L110.03 218.851C109.732 218.933 109.422 219.014 109.112 219.084L108.481 219.229C108.14 219.31 107.796 219.385 107.447 219.455L107.178 219.501L106.064 219.704L105.582 219.779L104.629 219.913L104.101 219.982L103.119 220.093L102.631 220.145C102.149 220.191 101.661 220.232 101.168 220.261C100.674 220.29 100.048 220.325 99.486 220.348H99.0325C98.6364 220.348 98.2404 220.348 97.8386 220.348H97.3449C96.6848 220.348 96.0247 220.348 95.3532 220.313H95.2556C94.5553 220.313 93.855 220.249 93.1547 220.203H92.8448C92.1904 220.156 91.5303 220.098 90.8702 220.029H90.7669C90.1125 219.959 89.4524 219.884 88.7866 219.797L88.4479 219.75C87.7017 219.646 86.9555 219.53 86.2036 219.402H86.1118L84.5677 219.124L84.0913 219.031C83.4714 218.91 82.8514 218.776 82.2315 218.637L81.9503 218.573C81.4107 218.451 80.8711 218.324 80.3316 218.184L79.7576 218.045C79.2812 217.924 78.799 217.796 78.3226 217.662H78.2767C77.5305 217.454 76.7785 217.239 76.0266 217.013L75.5903 216.874C75.0163 216.7 74.4423 216.52 73.8683 216.334C73.2943 216.149 72.7203 215.957 72.1463 215.754L71.6584 215.586C71.027 215.36 70.3899 215.122 69.7585 214.884L69.4772 214.774L67.9504 214.194L67.3764 213.951C66.8024 213.713 66.2284 213.463 65.62 213.214L65.5568 213.185C64.9828 212.935 64.3744 212.674 63.7832 212.408L63.7143 212.28C63.0944 211.996 62.4744 211.7 61.8545 211.416L61.2805 211.149C60.8328 210.936 60.3851 210.716 59.9374 210.488L59.3117 210.18C58.7894 209.919 58.267 209.647 57.7447 209.374L57.4118 209.206C56.7861 208.876 56.1604 208.545 55.5348 208.203L54.5016 207.623L53.9907 207.339C53.4684 207.043 52.9403 206.758 52.418 206.439V208.986C70.0398 219.234 87.2999 224.112 102.356 223.103C109.514 222.627 115.621 220.858 120.592 217.842C120.747 217.755 120.896 217.662 121.045 217.564C121.195 217.465 121.327 217.361 121.476 217.262Z" fill="#37474F"/>
<path opacity="0.2" d="M54.4957 207.64L55.5289 208.22C56.1546 208.562 56.7803 208.893 57.4059 209.223L57.7388 209.391C58.2612 209.664 58.7835 209.937 59.3059 210.198L59.9315 210.505C60.3792 210.729 60.827 210.95 61.2747 211.166L61.8487 211.433C62.4686 211.729 63.0885 212.013 63.7084 212.297L63.8634 212.367C64.4374 212.634 65.0458 212.895 65.6371 213.144L65.7002 213.173C66.2742 213.422 66.8482 213.672 67.4566 213.91L68.0306 214.153L69.5575 214.733L69.8387 214.843C70.4701 215.081 71.1073 215.319 71.7387 215.545L72.2266 215.713C72.8006 215.916 73.3746 216.108 73.9486 216.293C74.5226 216.479 75.0966 216.659 75.6706 216.833L76.1068 216.972C76.8588 217.198 77.6107 217.413 78.3569 217.622H78.4028C78.8792 217.755 79.3614 217.883 79.8378 218.004L80.4118 218.144C80.9514 218.283 81.491 218.41 82.0305 218.532L82.3118 218.596C82.9317 218.735 83.5516 218.869 84.1715 218.99L84.648 219.083L86.192 219.362H86.2839C87.0358 219.489 87.782 219.605 88.5282 219.71L88.8669 219.756C89.5327 219.843 90.1928 219.918 90.8472 219.988H90.9505C91.6106 220.058 92.2707 220.116 92.925 220.162H93.235C93.9353 220.208 94.6355 220.249 95.3358 220.272H95.4334C96.105 220.272 96.7651 220.307 97.4252 220.307H97.9188C98.3206 220.307 98.7167 220.307 99.1128 220.307H99.5662C100.14 220.307 100.714 220.261 101.248 220.22C101.782 220.179 102.23 220.15 102.712 220.104L103.2 220.052L104.181 219.942L104.709 219.872L105.662 219.739L106.144 219.663L107.258 219.46L107.528 219.414C107.876 219.344 108.22 219.269 108.561 219.188L109.192 219.043C109.502 218.973 109.812 218.892 110.111 218.811L110.65 218.666C111.012 218.567 111.373 218.463 111.724 218.352L112.211 218.19C112.493 218.097 112.785 218.01 113.049 217.912C113.572 217.726 114.083 217.529 114.594 217.332L114.731 217.274C115.093 217.123 115.455 216.972 115.805 216.81L116.275 216.583C116.557 216.45 116.849 216.317 117.119 216.172L117.619 215.905C117.877 215.766 118.135 215.626 118.388 215.481C119.802 214.666 121.146 213.733 122.406 212.692C123.516 211.769 124.567 210.775 125.551 209.716L124.776 209.913L124.323 210.018L123.416 210.215L123.008 210.302L122.314 210.43L121.803 210.517L121.068 210.633L120.58 210.708C120.311 210.749 120.006 210.778 119.76 210.812L119.329 210.87L118.181 210.986H118.06C117.641 211.027 117.217 211.056 116.792 211.085C116.252 211.126 115.707 211.149 115.156 211.172H114.662H113.463H112.975C112.315 211.172 111.649 211.172 110.983 211.137H110.639C110.019 211.137 109.399 211.079 108.773 211.039H108.457C107.82 210.992 107.183 210.94 106.54 210.87L106.081 210.824C105.507 210.76 104.933 210.696 104.359 210.621L104.02 210.575C103.395 210.488 102.769 210.395 102.138 210.29L101.684 210.209C101.168 210.122 100.657 210.029 100.14 209.931L99.658 209.838C99.0439 209.716 98.424 209.583 97.7983 209.444L97.517 209.38C96.9832 209.258 96.4437 209.125 95.9041 208.991L95.3301 208.852L93.8894 208.469L93.4474 208.347C92.8332 208.173 92.2133 207.994 91.5934 207.802L91.1629 207.669C90.6883 207.526 90.2119 207.375 89.7336 207.216L89.1596 207.019L87.7648 206.538L87.2769 206.37C86.6646 206.149 86.0504 205.923 85.4343 205.691L85.1014 205.558C84.5905 205.366 84.0797 205.163 83.5688 204.978L82.9948 204.734L81.6746 204.183L81.1006 203.934L79.3786 203.185L79.2179 203.116C78.598 202.832 77.9723 202.536 77.3524 202.246L76.7784 201.985C76.3307 201.77 75.8772 201.55 75.4295 201.324L74.8096 201.016C74.3332 200.778 73.8625 200.535 73.3861 200.285L72.9096 200.042L71.0327 199.033C70.6883 198.853 70.3496 198.661 70.011 198.453C69.833 198.354 69.6551 198.261 69.4829 198.157L67.9618 197.293L67.9159 197.264L52.4121 206.433C52.9344 206.741 53.4625 207.013 53.9849 207.332L54.4957 207.64Z" fill="white"/>
<path d="M41.2426 46.0463C43.7912 44.5615 45.9437 45.2923 46.6325 47.6007C47.2422 46.3328 48.188 45.2607 49.3647 44.5035C51.3622 43.3435 52.9867 44.2773 52.9924 46.5915V47.6587L55.6787 46.0927C57.0793 45.2807 58.2158 45.9361 58.2215 47.5601C58.1742 48.4448 57.9208 49.3056 57.4819 50.0726C57.0431 50.8396 56.4311 51.4911 55.6959 51.9739L33.0057 65.2211C31.6052 66.0331 30.4686 65.3835 30.4629 63.7595C30.5084 62.8736 30.761 62.0112 31.2 61.2429C31.639 60.4747 32.2519 59.8225 32.9885 59.3399L35.6691 57.7739V55.8193C35.6519 52.2291 38.1545 47.8559 41.2426 46.0463Z" fill="#E6E6E6"/>
<path d="M63.4913 54.7231C65.3224 53.6617 66.8664 54.1837 67.3601 55.8425C67.8005 54.9291 68.4843 54.1578 69.3346 53.6153C70.7639 52.7801 71.9348 53.4529 71.9348 55.1175V55.8831L73.8577 54.7579C74.8622 54.1779 75.6773 54.6419 75.6773 55.8077C75.6456 56.4433 75.4652 57.0623 75.1509 57.6138C74.8366 58.1653 74.3974 58.6336 73.8692 58.9803L57.5734 68.4865C56.5689 69.0665 55.7538 68.6025 55.748 67.4367C55.7831 66.8013 55.9656 66.183 56.2806 65.6319C56.5957 65.0808 57.0346 64.6123 57.5619 64.2641L59.4848 63.1447V61.7353C59.5583 60.3302 59.9596 58.9624 60.6559 57.7438C61.3522 56.5252 62.3238 55.4901 63.4913 54.7231Z" fill="#E6E6E6"/>
<path d="M248.801 51.939C246.97 50.8718 245.426 51.3938 244.932 53.0526C244.492 52.1407 243.808 51.3713 242.958 50.8312C241.529 49.996 240.358 50.6688 240.358 52.3334V53.0932L238.435 51.9738C237.43 51.3938 236.615 51.8578 236.615 53.0236C236.647 53.6592 236.827 54.2781 237.142 54.8296C237.456 55.3811 237.895 55.8494 238.423 56.1962L254.719 65.7024C255.724 66.2824 256.539 65.8184 256.545 64.6526C256.509 64.0171 256.327 63.3989 256.012 62.8478C255.697 62.2967 255.258 61.8281 254.731 61.48L252.808 60.3548V58.9512C252.732 57.5464 252.33 56.1794 251.634 54.961C250.938 53.7427 249.968 52.7073 248.801 51.939Z" fill="#E6E6E6"/>
<path d="M147.846 35.38C147.846 35.3009 147.826 35.2231 147.786 35.1547C147.747 35.0863 147.69 35.0299 147.622 34.9914L145.636 33.872C145.57 33.8338 145.496 33.8137 145.421 33.8137C145.345 33.8137 145.271 33.8338 145.205 33.872L131.584 41.818C131.333 41.956 131.132 42.1714 131.01 42.4328C130.935 42.6065 130.896 42.7941 130.895 42.9838V48.0994L126.177 53.0294C125.758 53.4702 125.712 54.1372 126.039 54.2416L127.922 55.2856C127.953 55.321 127.993 55.3476 128.037 55.3629C128.081 55.3781 128.129 55.3815 128.175 55.3726L130.913 55.0362V58.7946C130.912 58.8722 130.933 58.9484 130.971 59.0156C131.009 59.0828 131.064 59.1386 131.131 59.1774L133.111 60.2852H133.14C133.202 60.3177 133.271 60.3347 133.341 60.3347C133.411 60.3347 133.48 60.3177 133.542 60.2852L147.163 52.3334C147.365 52.2162 147.533 52.0473 147.649 51.8436C147.766 51.64 147.828 51.4088 147.828 51.1734L147.846 35.38ZM133.249 43.1868L133.203 43.239L133.249 43.1868ZM133.117 43.355C133.12 43.3703 133.12 43.3861 133.117 43.4014C133.12 43.3861 133.12 43.3703 133.117 43.355ZM132.927 43.8074C132.93 43.8267 132.93 43.8461 132.927 43.8654C132.93 43.8461 132.93 43.8267 132.927 43.8074ZM133.346 43.0882L133.392 43.0476L133.346 43.0882Z" fill="#44A2C6"/>
<path opacity="0.1" d="M132.939 59.9081C132.939 59.9842 132.959 60.0588 132.996 60.1249C133.033 60.1909 133.087 60.2461 133.152 60.2851L131.171 59.1599C131.105 59.1212 131.05 59.0654 131.011 58.9981C130.973 58.9309 130.953 58.8547 130.953 58.7771V55.0187L132.945 54.7751L132.939 59.9081Z" fill="black"/>
<path opacity="0.2" d="M131.566 41.8121L145.187 33.8661C145.253 33.828 145.327 33.8079 145.403 33.8079C145.478 33.8079 145.553 33.828 145.618 33.8661L147.604 34.9855C147.537 34.9458 147.461 34.9248 147.383 34.9248C147.305 34.9248 147.229 34.9458 147.162 34.9855L133.558 42.9199C133.301 43.0662 133.099 43.2947 132.984 43.5695L131.004 42.4095C131.126 42.1563 131.322 41.9475 131.566 41.8121Z" fill="white"/>
<path opacity="0.1" d="M130.918 48.0936V42.978C130.918 42.7883 130.957 42.6007 131.033 42.427L133.013 43.587C132.946 43.7506 132.913 43.9262 132.915 44.1032V49.2246L130.924 48.0994L130.918 48.0936Z" fill="black"/>
<path opacity="0.05" d="M126.201 53.0235L130.919 48.0935L132.911 49.2187L128.198 54.1429C127.831 54.5199 127.75 55.0709 127.946 55.3029L126.063 54.2589C125.736 54.1313 125.782 53.4643 126.201 53.0235Z" fill="white"/>
<path d="M141.027 42.2066C141.07 42.1722 141.124 42.1536 141.179 42.1536C141.234 42.1536 141.288 42.1722 141.331 42.2066L144 44.7876C144.189 44.9674 144 45.4894 143.702 45.6692L142.226 46.5276L142.261 52.6582L139.896 54.0386L139.861 47.908L138.386 48.7664C138.076 48.952 137.898 48.6388 138.082 48.2444L140.722 42.5604C140.789 42.4162 140.895 42.2937 141.027 42.2066Z" fill="white"/>
<path opacity="0.1" d="M139.276 140.54C138.375 138.411 136.498 136.393 133.651 134.74C125.357 129.897 111.954 129.897 103.711 134.74C95.4686 139.583 95.5146 147.424 103.809 152.261C110.467 156.147 120.42 156.901 128.347 154.552V147.07L139.276 140.54Z" fill="black"/>
<path d="M89.4121 86.832L99.084 79.1992L100.025 80.916L90.21 88.6938L89.4121 86.832Z" fill="#263238"/>
<path d="M107.194 93.699L112.624 93.2002C111.935 96.6802 110.724 101.506 110.724 101.506L105.719 98.2578L107.194 93.699Z" fill="#455A64"/>
<path d="M77.4096 116.151C77.4037 114.895 77.8071 113.672 78.5576 112.671C79.1551 111.981 79.7873 111.323 80.4518 110.699C80.9272 110.237 81.2889 109.668 81.508 109.04C81.7183 108.317 82.0315 107.63 82.4378 106.998C82.8901 106.268 83.6001 105.74 84.4239 105.519C84.5851 105.481 84.7525 105.476 84.9155 105.506C85.0785 105.536 85.2336 105.6 85.371 105.693L85.2103 105.49C85.0673 105.308 84.8754 105.171 84.6576 105.096C84.4398 105.021 84.2053 105.011 83.9819 105.067C83.1384 105.288 82.4123 105.831 81.9557 106.581C81.5353 107.22 81.214 107.92 81.0028 108.657C80.7861 109.316 80.416 109.913 79.9237 110.397C79.2463 111.033 78.6025 111.705 77.9951 112.41C77.2272 113.428 76.8117 114.673 76.8126 115.953C76.7921 116.217 76.8243 116.483 76.9071 116.734C76.9899 116.985 77.1217 117.216 77.2948 117.415C77.4979 117.597 77.7533 117.709 78.0238 117.734C77.9703 117.7 77.9203 117.662 77.8745 117.618C77.7015 117.419 77.571 117.186 77.491 116.933C77.411 116.681 77.3833 116.414 77.4096 116.151Z" fill="black"/>
<path d="M85.636 105.902C85.5624 105.81 85.4753 105.73 85.3777 105.664C85.2403 105.571 85.0852 105.507 84.9222 105.477C84.7592 105.447 84.5918 105.452 84.4306 105.49C83.6068 105.711 82.8968 106.239 82.4445 106.969C82.0337 107.609 81.7185 108.307 81.5089 109.04C81.2955 109.683 80.9334 110.266 80.4528 110.739C79.7882 111.363 79.156 112.021 78.5586 112.711C77.8081 113.712 77.4047 114.935 77.4106 116.191C77.3898 116.45 77.4208 116.71 77.5017 116.956C77.5825 117.202 77.7116 117.429 77.8812 117.624C77.927 117.667 77.977 117.706 78.0305 117.74C78.2214 117.855 78.4354 117.926 78.6568 117.947C78.8783 117.968 79.1016 117.939 79.3105 117.862C79.7878 117.674 80.2048 117.357 80.5159 116.945C80.8431 116.557 81.0899 116.122 81.44 115.727C81.9992 115.099 82.6248 114.535 83.3055 114.045L85.1481 112.618L85.9861 106.412C85.9861 106.412 85.8311 106.14 85.636 105.902Z" fill="#263238"/>
<path d="M98.7745 104.858L98.4933 112.52C95.0493 108.994 86.0834 105.705 86.0834 105.705C82.6853 108.234 83.443 111.14 84.7173 112.52C91.743 116.383 99.7675 121.58 101.604 121.151C103.441 120.721 105.875 117.903 107.66 112.59L104.216 106.616L98.7745 104.858Z" fill="#37474F"/>
<path d="M123.089 145.997C123.014 146.154 122.909 146.294 122.78 146.408C122.651 146.523 122.5 146.61 122.337 146.664C122.012 146.773 121.674 146.834 121.332 146.844C120.593 146.923 119.847 146.911 119.111 146.809C118.372 146.71 117.675 146.407 117.096 145.934C116.598 145.442 116.166 144.886 115.81 144.281C114.861 142.877 113.683 141.645 112.326 140.638C112.362 140.888 112.411 141.136 112.475 141.381C113.78 142.355 114.908 143.55 115.81 144.913C116.167 145.519 116.599 146.076 117.096 146.572C117.677 147.043 118.373 147.346 119.111 147.447C119.848 147.543 120.593 147.555 121.332 147.482C121.674 147.47 122.013 147.407 122.337 147.297C122.5 147.242 122.651 147.155 122.78 147.04C122.909 146.926 123.014 146.786 123.089 146.63C123.185 146.394 123.199 146.132 123.129 145.887C123.118 145.925 123.105 145.962 123.089 145.997Z" fill="#263238"/>
<path d="M122.783 144.6C122.443 144.241 122.057 143.928 121.635 143.672C119.765 142.383 118.37 140.505 117.669 138.33L112.4 138.632C112.166 139.276 112.14 139.978 112.325 140.638C113.681 141.645 114.859 142.877 115.809 144.281C116.165 144.886 116.597 145.442 117.095 145.934C117.674 146.407 118.371 146.71 119.11 146.81C119.846 146.911 120.592 146.923 121.331 146.844C121.673 146.834 122.011 146.774 122.336 146.665C122.499 146.61 122.65 146.523 122.779 146.408C122.908 146.294 123.013 146.154 123.088 145.998C123.104 145.962 123.117 145.925 123.128 145.887C123.178 145.661 123.172 145.425 123.112 145.201C123.052 144.977 122.939 144.77 122.783 144.6Z" fill="#37474F"/>
<path d="M95.1413 92.6548C93.9933 98.2808 94.4353 100.775 98.7747 104.835C103.114 108.895 110.255 114.695 110.255 114.695C108.533 120.419 111.104 127.954 111.202 130.859C111.299 133.765 112.005 138.678 112.005 138.678C115.966 140.824 118.09 138.678 118.09 138.678V113.442C118.092 111.228 117.298 109.089 115.857 107.422L107.195 97.4398V93.7162L95.1413 92.6548Z" fill="#455A64"/>
<path d="M125.672 77.8127C126.423 78.0651 127.224 78.1229 128.002 77.9809C128.002 76.4613 128.002 74.7619 128.123 72.5521C128.404 67.7845 127.13 65.1571 126.08 64.2059C125.029 63.2547 123.21 63.2373 122.538 63.8405C121.866 64.4437 123.514 66.6361 123.749 68.5443C122.808 67.4307 122.331 67.0537 121.453 67.7323C121.971 68.3407 122.362 69.0491 122.601 69.8145C122.791 70.7715 123.801 71.4385 124.082 72.2273C124.3 72.8421 124.082 74.8083 123.72 76.4961C124.25 77.095 124.922 77.5481 125.672 77.8127Z" fill="#F28F8F"/>
<path opacity="0.2" d="M125.672 77.8127C126.423 78.0651 127.224 78.1229 128.002 77.9809C128.002 76.4613 128.002 74.7619 128.123 72.5521C128.404 67.7845 127.13 65.1571 126.08 64.2059C125.029 63.2547 123.21 63.2373 122.538 63.8405C121.866 64.4437 123.514 66.6361 123.749 68.5443C122.808 67.4307 122.331 67.0537 121.453 67.7323C121.971 68.3407 122.362 69.0491 122.601 69.8145C122.791 70.7715 123.801 71.4385 124.082 72.2273C124.3 72.8421 124.082 74.8083 123.72 76.4961C124.25 77.095 124.922 77.5481 125.672 77.8127Z" fill="black"/>
<path d="M125.672 77.8129C124.915 77.5509 124.237 77.0977 123.703 76.4963C123.6 77.0009 123.485 77.4823 123.37 77.8883C123.37 77.8883 119.725 72.8365 118.904 71.8795C118.083 70.9225 117.332 68.6431 113.738 68.2197L114.169 77.1285C114.169 77.1285 121.407 85.4515 123.887 86.8551C126.366 88.2587 127.193 86.4375 127.698 83.0677C127.924 81.3823 128.02 79.6816 127.985 77.9811C127.212 78.1202 126.417 78.0623 125.672 77.8129Z" fill="#455A64"/>
<path opacity="0.3" d="M122.837 83.2822C122.263 81.2116 123.118 78.6422 123.411 77.8882L122.791 77.0298C122.337 78.0096 122.106 79.0795 122.113 80.1612C122.121 81.243 122.368 82.3093 122.837 83.2822Z" fill="black"/>
<path d="M103.068 68.0282C100.99 67.744 98.7749 68.0978 96.5076 68.4806C96.0901 73.4616 96.0901 78.4694 96.5076 83.4504L94.7109 93.177C101.742 97.469 110.708 95.5608 112.505 94.337C115.335 83.1836 116.041 72.645 113.756 68.237L108.165 67.28L103.068 68.0282Z" fill="#37474F"/>
<path d="M107.55 72.3664L105.908 71.0498C106.425 70.7961 106.963 70.5884 107.515 70.4292L108.164 70.754L107.55 72.3664Z" fill="#44A2C6"/>
<path d="M109.313 72.2272L109.675 72.001L110.283 70.667L109.577 70.4292L109.158 70.754L109.313 72.2272Z" fill="#44A2C6"/>
<path d="M107.992 73.2831C106.753 78.2595 100.978 81.5017 96.2196 81.1537C95.5445 81.0904 94.8686 81.2668 94.3082 81.6525C93.6086 82.1623 92.9877 82.7741 92.4657 83.4679C92.3975 83.5608 92.351 83.668 92.3297 83.7816C92.3084 83.8952 92.3128 84.0122 92.3426 84.1238C92.3724 84.2354 92.4269 84.3388 92.5019 84.4261C92.5769 84.5134 92.6705 84.5824 92.7756 84.6279C93.829 85.0548 94.9157 85.3923 96.0245 85.6371C97.1823 85.9084 98.3895 85.8765 99.5316 85.5443C108.182 83.0155 109.381 77.4243 109.146 73.2773L107.992 73.2831Z" fill="#44A2C6"/>
<path opacity="0.3" d="M109.158 73.5036C109.158 73.4282 109.158 73.3528 109.158 73.2832H108.01C108.01 73.2832 108.01 73.3296 108.01 73.3528C108.173 73.4904 108.373 73.5771 108.584 73.6022C108.78 73.6197 108.978 73.5858 109.158 73.5036Z" fill="black"/>
<path d="M108.166 70.7598C108.495 70.7077 108.83 70.7077 109.159 70.7598C109.439 71.1206 109.618 71.5516 109.675 72.0068C109.59 72.4668 109.41 72.9035 109.147 73.2886C108.849 73.5148 107.999 73.2886 107.999 73.2886C107.78 72.9957 107.588 72.6831 107.425 72.3548C107.375 72.2529 107.35 72.1408 107.35 72.0271C107.35 71.9135 107.375 71.8014 107.425 71.6994C107.601 71.3355 107.854 71.0149 108.166 70.7598Z" fill="#44A2C6"/>
<path opacity="0.3" d="M111.293 96.0713C110.41 97.1558 109.172 97.8843 107.803 98.1245L110.724 101.5C110.418 100.43 109.924 99.4246 109.266 98.5305C110.191 97.9585 110.904 97.0941 111.293 96.0713Z" fill="black"/>
<path d="M108.611 70.6033C109.943 70.2437 110.793 71.7633 110.793 71.7633C110.873 68.4631 109.18 67.1987 109.18 67.1987L108.611 70.6033Z" fill="#455A64"/>
<path d="M102.941 54.2997C102.367 53.8995 101.753 53.5051 101.156 53.1107C101.305 52.9279 101.493 52.781 101.706 52.6806C101.918 52.5803 102.15 52.5291 102.385 52.5307C102.652 52.5518 102.901 52.6765 103.079 52.8787C103.253 53.0871 103.341 53.3548 103.326 53.6269C103.383 52.5481 104.302 51.5795 105.26 51.1097C106.248 50.6846 107.328 50.5267 108.394 50.6515C109.456 50.7211 110.512 50.9299 111.574 50.9647C112.806 51.0117 114.037 50.8369 115.208 50.4485C115.337 50.4046 115.476 50.3971 115.609 50.4267C115.742 50.4564 115.865 50.5221 115.964 50.6169C116.063 50.7117 116.135 50.8319 116.172 50.9646C116.208 51.0974 116.208 51.2378 116.172 51.3707C115.967 52.0555 115.623 52.6896 115.162 53.2325C115.408 53.3033 115.664 53.3308 115.92 53.3137C116.058 53.3042 116.196 53.3335 116.318 53.3983C116.441 53.4631 116.544 53.5609 116.615 53.6808C116.686 53.8008 116.723 53.9383 116.722 54.0782C116.721 54.2181 116.682 54.355 116.608 54.4737C116.14 55.1675 115.479 55.7062 114.708 56.0223C111.879 60.5347 104.25 64.5657 104.25 64.5657C103.992 64.5312 103.746 64.434 103.533 64.2825C103.32 64.131 103.147 63.9297 103.027 63.6957C102.8 63.2214 102.655 62.7114 102.597 62.1877C102.268 60.2118 101.998 58.2263 101.788 56.2311C101.713 55.8109 101.73 55.3792 101.839 54.9667C101.899 54.7687 102.019 54.5946 102.181 54.4687C102.344 54.3429 102.541 54.2716 102.746 54.2649" fill="#263238"/>
<path d="M103.683 61.2827C103.476 63.1445 103.068 66.3577 103.068 66.3577C104.676 68.5501 107.787 69.0315 108.613 70.6033C109.147 68.8573 109.495 67.0589 109.652 65.2383L104.343 61.0217L103.683 61.2827Z" fill="#F28F8F"/>
<path opacity="0.2" d="M103.683 61.2827C103.476 63.1445 103.068 66.3577 103.068 66.3577C104.676 68.5501 107.787 69.0315 108.613 70.6033C109.147 68.8573 109.495 67.0589 109.652 65.2383L104.343 61.0217L103.683 61.2827Z" fill="black"/>
<path opacity="0.3" d="M104.341 61.0217L104.203 61.0739C104.137 62.5734 104.631 64.0432 105.588 65.191C106.546 66.3388 107.895 67.0804 109.369 67.2683C109.582 66.0097 109.628 65.2383 109.628 65.2383L104.341 61.0217Z" fill="black"/>
<path d="M114.709 56.0339C115.109 59.1344 114.768 62.2866 113.716 65.2269C113.581 65.5914 113.338 65.9053 113.021 66.1262C112.704 66.3471 112.327 66.4644 111.942 66.4623C107.924 66.4623 104.733 65.0703 104.176 61.4511C103.973 61.7117 103.693 61.8989 103.376 61.9847C103.059 62.0704 102.724 62.0501 102.419 61.9267C101.849 61.6608 101.391 61.1981 101.128 60.6217C100.958 60.3227 100.845 59.9941 100.795 59.6531C100.746 59.3079 100.83 58.9569 101.03 58.6729C101.217 58.4626 101.464 58.317 101.737 58.2566C102.01 58.1962 102.295 58.2242 102.551 58.3365C103.072 58.5731 103.483 59.0029 103.699 59.5371C103.785 59.7343 103.9 59.9721 104.113 59.9779C104.325 59.9837 104.457 59.7343 104.526 59.5255C104.78 58.6745 104.891 57.7862 104.853 56.8981C105.489 57.0205 106.148 56.894 106.696 56.5443C107.227 56.176 107.597 55.6152 107.729 54.9783C107.899 55.3052 108.144 55.5862 108.444 55.7981C108.743 56.0099 109.089 56.1465 109.451 56.1963C109.803 56.2449 110.162 56.2076 110.498 56.0875C110.833 55.9675 111.136 55.7681 111.379 55.5061C111.794 55.9332 112.333 56.2139 112.918 56.3065C113.528 56.3919 114.15 56.2973 114.709 56.0339Z" fill="#F28F8F"/>
<path opacity="0.2" d="M114.709 56.0339C115.109 59.1344 114.768 62.2866 113.716 65.2269C113.581 65.5914 113.338 65.9053 113.021 66.1262C112.704 66.3471 112.327 66.4644 111.942 66.4623C107.924 66.4623 104.733 65.0703 104.176 61.4511C103.973 61.7117 103.693 61.8989 103.376 61.9847C103.059 62.0704 102.724 62.0501 102.419 61.9267C101.849 61.6608 101.391 61.1981 101.128 60.6217C100.958 60.3227 100.845 59.9941 100.795 59.6531C100.746 59.3079 100.83 58.9569 101.03 58.6729C101.217 58.4626 101.464 58.317 101.737 58.2566C102.01 58.1962 102.295 58.2242 102.551 58.3365C103.072 58.5731 103.483 59.0029 103.699 59.5371C103.785 59.7343 103.9 59.9721 104.113 59.9779C104.325 59.9837 104.457 59.7343 104.526 59.5255C104.78 58.6745 104.891 57.7862 104.853 56.8981C105.489 57.0205 106.148 56.894 106.696 56.5443C107.227 56.176 107.597 55.6152 107.729 54.9783C107.899 55.3052 108.144 55.5862 108.444 55.7981C108.743 56.0099 109.089 56.1465 109.451 56.1963C109.803 56.2449 110.162 56.2076 110.498 56.0875C110.833 55.9675 111.136 55.7681 111.379 55.5061C111.794 55.9332 112.333 56.2139 112.918 56.3065C113.528 56.3919 114.15 56.2973 114.709 56.0339Z" fill="black"/>
<path d="M111.041 59.5486L112.884 61.8976L111.139 62.4834L111.041 59.5486Z" fill="#F28F8F"/>
<path opacity="0.3" d="M111.041 59.5486L112.884 61.8976L111.139 62.4834L111.041 59.5486Z" fill="black"/>
<path d="M109.53 63.5969L110.982 64.0783C110.886 64.2508 110.738 64.3871 110.559 64.4666C110.379 64.5461 110.179 64.5645 109.989 64.5191C109.82 64.4413 109.682 64.3075 109.599 64.1397C109.515 63.972 109.491 63.7805 109.53 63.5969Z" fill="#F28F8F"/>
<path opacity="0.3" d="M109.53 63.5969L110.982 64.0783C110.886 64.2508 110.738 64.3871 110.559 64.4666C110.379 64.5461 110.179 64.5645 109.989 64.5191C109.82 64.4413 109.682 64.3075 109.599 64.1397C109.515 63.972 109.491 63.7805 109.53 63.5969Z" fill="black"/>
<path d="M110.467 64.4959C110.311 64.5422 110.146 64.5422 109.99 64.4959C109.857 64.4405 109.742 64.3467 109.66 64.2261C109.579 64.1055 109.534 63.9634 109.531 63.8173C109.73 63.7885 109.933 63.8295 110.105 63.9333C110.199 63.9985 110.279 64.0817 110.341 64.1783C110.404 64.2748 110.446 64.3827 110.467 64.4959Z" fill="#F28F8F"/>
<path d="M108.487 60.0069C108.488 60.0757 108.503 60.1435 108.531 60.2064C108.559 60.2692 108.599 60.3258 108.649 60.3728C108.698 60.4198 108.757 60.4563 108.821 60.4801C108.885 60.504 108.953 60.5146 109.021 60.5115C109.124 60.5091 109.225 60.4755 109.31 60.4151C109.395 60.3546 109.46 60.27 109.497 60.172C109.534 60.0741 109.541 59.9672 109.518 59.865C109.494 59.7629 109.441 59.67 109.366 59.5984C109.29 59.5268 109.195 59.4796 109.092 59.4628C108.99 59.4461 108.885 59.4605 108.79 59.5044C108.696 59.5482 108.617 59.6194 108.563 59.7089C108.509 59.7984 108.482 59.9022 108.487 60.0069Z" fill="#263238"/>
<path d="M112.809 59.6879C112.817 59.8264 112.877 59.9565 112.978 60.0507C113.078 60.1448 113.211 60.1957 113.349 60.1925C113.452 60.189 113.552 60.1544 113.636 60.0933C113.72 60.0322 113.784 59.9472 113.82 59.8492C113.857 59.7511 113.863 59.6445 113.839 59.5427C113.815 59.441 113.762 59.3487 113.686 59.2776C113.61 59.2066 113.515 59.16 113.412 59.1437C113.31 59.1274 113.205 59.1421 113.111 59.1861C113.017 59.23 112.939 59.3012 112.885 59.3906C112.831 59.4799 112.805 59.5834 112.809 59.6879Z" fill="#263238"/>
<path d="M113.244 57.5823L114.421 58.3479C114.467 58.2019 114.467 58.0451 114.422 57.8989C114.377 57.7526 114.288 57.6239 114.168 57.5301C114.025 57.4517 113.862 57.415 113.699 57.4242C113.536 57.4335 113.378 57.4882 113.244 57.5823Z" fill="#263238"/>
<path d="M108.801 57.6751L107.653 58.5161C107.599 58.3737 107.589 58.2179 107.625 58.0696C107.661 57.9214 107.741 57.7878 107.854 57.6867C107.994 57.5922 108.157 57.5407 108.326 57.5386C108.494 57.5366 108.659 57.584 108.801 57.6751Z" fill="#263238"/>
<path d="M103.068 66.3578L103.171 65.5342C103.102 65.5251 103.033 65.5251 102.964 65.5342C102.39 65.8416 101.34 67.5178 101.34 67.5178C101.713 68.411 103.51 71.1892 104.922 72.1578C106.557 71.3284 107.74 70.1684 108.612 70.5918C108.274 68.672 103.068 66.3578 103.068 66.3578Z" fill="#455A64"/>
<path d="M99.877 96.9065C103.809 91.3385 112.459 78.4451 111.931 67.9065L113.716 68.2081C114.457 78.5843 106.317 92.1157 100.652 99.1337L99.877 96.9065Z" fill="#263238"/>
<path d="M98.6596 101.326L86.6744 91.1064L84.5564 98.6464C84.5443 98.6946 84.5437 98.7449 84.5547 98.7933C84.5657 98.8417 84.5879 98.8868 84.6195 98.9248L84.6597 98.9596L96.4956 109.655C96.4558 109.615 96.4273 109.564 96.4132 109.509C96.3991 109.454 96.3998 109.396 96.4152 109.342L98.6596 101.326Z" fill="#44A2C6"/>
<path opacity="0.15" d="M98.6596 101.326L86.6744 91.1064L84.5564 98.6464C84.5443 98.6946 84.5437 98.7449 84.5547 98.7933C84.5657 98.8417 84.5879 98.8868 84.6195 98.9248L84.6597 98.9596L96.4956 109.655C96.4558 109.615 96.4273 109.564 96.4132 109.509C96.3991 109.454 96.3998 109.396 96.4152 109.342L98.6596 101.326Z" fill="black"/>
<path d="M98.1426 103.171L100.025 96.4541L98.1426 103.171Z" fill="#44A2C6"/>
<path d="M101.316 95.7522L101.311 95.7466L101.316 95.7579V95.7522Z" fill="#44A2C6"/>
<path d="M96.49 109.695H96.4957L96.4844 109.689L96.49 109.695Z" fill="#44A2C6"/>
<path d="M101.437 96.1116C101.445 96.0473 101.439 95.9819 101.418 95.9205C101.397 95.8592 101.362 95.8035 101.317 95.7578C101.269 95.7125 101.212 95.679 101.149 95.6599C101.086 95.6408 101.02 95.6366 100.955 95.6476C100.741 95.6844 100.541 95.7819 100.38 95.9287C100.218 96.0755 100.101 96.2657 100.043 96.477L98.1541 103.17L96.4321 109.376C96.4166 109.431 96.4159 109.489 96.43 109.544C96.4442 109.599 96.4726 109.649 96.5124 109.689C96.5516 109.729 96.6006 109.756 96.6542 109.77C96.7078 109.783 96.7639 109.781 96.8166 109.765L99.1643 109.046C99.3404 108.993 99.4977 108.89 99.6169 108.749C99.7361 108.608 99.8122 108.435 99.8359 108.251L101.437 96.1116Z" fill="#44A2C6"/>
<path opacity="0.3" d="M101.437 96.1116C101.445 96.0473 101.439 95.9819 101.418 95.9205C101.397 95.8592 101.362 95.8035 101.317 95.7578C101.269 95.7125 101.212 95.679 101.149 95.6599C101.086 95.6408 101.02 95.6366 100.955 95.6476C100.741 95.6844 100.541 95.7819 100.38 95.9287C100.218 96.0755 100.101 96.2657 100.043 96.477L98.1541 103.17L96.4321 109.376C96.4166 109.431 96.4159 109.489 96.43 109.544C96.4442 109.599 96.4726 109.649 96.5124 109.689C96.5516 109.729 96.6006 109.756 96.6542 109.77C96.7078 109.783 96.7639 109.781 96.8166 109.765L99.1643 109.046C99.3404 108.993 99.4977 108.89 99.6169 108.749C99.7361 108.608 99.8122 108.435 99.8359 108.251L101.437 96.1116Z" fill="black"/>
<path d="M94.4461 96.9702L92.3223 104.661L92.6552 104.986L94.7101 97.353L94.4461 96.9702Z" fill="#44A2C6"/>
<path d="M89.9403 92.8984L87.8223 100.595L88.1552 100.92L90.2101 93.287L89.9403 92.8984Z" fill="#44A2C6"/>
<path d="M89.4412 85.034C89.3942 84.9914 89.3383 84.9599 89.2778 84.9419C89.2172 84.9238 89.1534 84.9196 89.091 84.9296C88.8768 84.9664 88.6774 85.0639 88.5158 85.2107C88.3542 85.3575 88.2372 85.5477 88.1784 85.759L86.554 91.559C86.46 91.902 86.464 92.2649 86.5656 92.6056C86.6672 92.9464 86.8621 93.2511 87.128 93.4846L88.3793 94.5808L96.8974 102.08C97.0303 102.198 97.1904 102.279 97.3628 102.317C97.5352 102.355 97.7143 102.348 97.8834 102.297C98.0524 102.246 98.206 102.152 98.3297 102.025C98.4534 101.898 98.5432 101.741 98.5907 101.57L100.026 96.4658C100.085 96.2545 100.202 96.0643 100.363 95.9175C100.525 95.7707 100.724 95.6732 100.938 95.6364C101.003 95.6254 101.069 95.6295 101.132 95.6487C101.195 95.6678 101.252 95.7013 101.3 95.7466L89.4412 85.034Z" fill="#44A2C6"/>
<path opacity="0.2" d="M89.4412 85.034C89.3942 84.9914 89.3383 84.9599 89.2778 84.9419C89.2172 84.9238 89.1534 84.9196 89.091 84.9296C88.8768 84.9664 88.6774 85.0639 88.5158 85.2107C88.3542 85.3575 88.2372 85.5477 88.1784 85.759L86.554 91.559C86.46 91.902 86.464 92.2649 86.5656 92.6056C86.6672 92.9464 86.8621 93.2511 87.128 93.4846L88.3793 94.5808L96.8974 102.08C97.0303 102.198 97.1904 102.279 97.3628 102.317C97.5352 102.355 97.7143 102.348 97.8834 102.297C98.0524 102.246 98.206 102.152 98.3297 102.025C98.4534 101.898 98.5432 101.741 98.5907 101.57L100.026 96.4658C100.085 96.2545 100.202 96.0643 100.363 95.9175C100.525 95.7707 100.724 95.6732 100.938 95.6364C101.003 95.6254 101.069 95.6295 101.132 95.6487C101.195 95.6678 101.252 95.7013 101.3 95.7466L89.4412 85.034Z" fill="white"/>
<path d="M82.082 85.5966L82.4666 91.4604C83.2874 97.3068 84.3551 98.229 87.0012 99.0004C89.6474 99.7718 88.0976 96.431 87.7532 95.8104C87.4998 95.2568 87.3203 94.6717 87.2193 94.0704C88.5223 95.2652 88.8552 95.1376 89.3718 94.7722C89.5785 94.6098 88.6027 93.7514 88.6027 93.7514C88.0857 92.6284 87.4131 91.5855 86.6052 90.6542L86.9094 85.585L82.082 85.5966Z" fill="#F28F8F"/>
<path opacity="0.2" d="M82.082 85.5966L82.4666 91.4604C83.2874 97.3068 84.3551 98.229 87.0012 99.0004C89.6474 99.7718 88.0976 96.431 87.7532 95.8104C87.4998 95.2568 87.3203 94.6717 87.2193 94.0704C88.5223 95.2652 88.8552 95.1376 89.3718 94.7722C89.5785 94.6098 88.6027 93.7514 88.6027 93.7514C88.0857 92.6284 87.4131 91.5855 86.6052 90.6542L86.9094 85.585L82.082 85.5966Z" fill="black"/>
<path d="M99.3028 68.063C95.5775 67.4308 93.1265 69.3274 91.4275 70.4294C90.1991 71.2298 85.6875 74.6634 83.2882 76.502C82.8134 76.8662 82.4306 77.3388 82.1712 77.8812C81.9118 78.4235 81.7832 79.0202 81.7958 79.6224L81.9278 85.8226C82.7203 86.2445 83.6091 86.4473 84.5041 86.4107C85.3992 86.374 86.2688 86.0991 87.0249 85.6138L87.4611 81.0666C87.4611 81.0666 92.696 78.4914 96.2146 76.8732C99.7333 75.255 100.158 70.7136 99.3028 68.063Z" fill="#455A64"/>
<path opacity="0.1" d="M84.0791 145.267C83.1172 144.94 82.1089 144.776 81.0943 144.779C77.8914 144.779 75.2969 146.282 75.2969 148.132C75.2969 149.982 77.8914 151.49 81.0943 151.49C82.1094 151.495 83.1183 151.328 84.0791 150.997V145.267Z" fill="black"/>
<path opacity="0.1" d="M224.553 131.26C232.848 136.103 232.888 143.944 224.651 148.787C216.414 153.63 203.006 153.625 194.711 148.787C186.417 143.95 186.371 136.103 194.614 131.26C202.856 126.417 216.259 126.44 224.553 131.26Z" fill="black"/>
<path d="M235.11 76.4382L234.191 75.98C236.258 77.4996 239.811 85.6834 241.137 89.0126C241.154 89.0557 241.187 89.0902 241.229 89.1087C241.271 89.1272 241.318 89.1281 241.361 89.1112C241.403 89.0943 241.438 89.0609 241.456 89.0185C241.474 88.9761 241.475 88.9281 241.458 88.885C241.016 87.7714 237.67 79.3962 235.11 76.4382Z" fill="#E0E0E0"/>
<path d="M220.828 134.096L221.649 132.675L220.581 131.991C220.393 131.898 220.184 131.858 219.976 131.876C219.767 131.895 219.568 131.97 219.399 132.095C218.921 132.406 218.524 132.828 218.239 133.325C217.955 133.822 217.791 134.381 217.763 134.954C217.739 135.164 217.775 135.375 217.865 135.565C217.956 135.755 218.097 135.915 218.274 136.027L219.318 136.7L220.185 135.204C220.457 134.872 220.675 134.498 220.828 134.096Z" fill="#37474F"/>
<path d="M220.466 132.773C221.367 132.246 222.108 132.669 222.108 133.725C222.078 134.298 221.914 134.856 221.63 135.353C221.346 135.85 220.949 136.272 220.472 136.584C219.571 137.112 218.83 136.688 218.83 135.639C218.86 135.064 219.023 134.506 219.308 134.008C219.592 133.51 219.989 133.087 220.466 132.773Z" fill="#455A64"/>
<path d="M202.915 133.69L202.094 132.269L203.161 131.584C203.349 131.491 203.559 131.452 203.767 131.47C203.975 131.489 204.175 131.564 204.344 131.689C204.821 132.001 205.218 132.423 205.502 132.92C205.787 133.417 205.95 133.975 205.98 134.548C206.003 134.758 205.968 134.969 205.877 135.159C205.787 135.349 205.645 135.509 205.469 135.621L204.424 136.3L203.557 134.803C203.285 134.47 203.067 134.094 202.915 133.69Z" fill="#37474F"/>
<path d="M203.282 132.373C202.375 131.845 201.635 132.263 201.635 133.319C201.664 133.892 201.828 134.45 202.112 134.947C202.397 135.444 202.794 135.866 203.271 136.178C204.172 136.706 204.912 136.282 204.912 135.233C204.883 134.66 204.721 134.102 204.437 133.605C204.154 133.108 203.758 132.686 203.282 132.373Z" fill="#455A64"/>
<path d="M208.791 130.169H211.833V135.465C211.821 135.601 211.773 135.731 211.695 135.843C211.616 135.954 211.509 136.042 211.385 136.097C211.052 136.269 210.683 136.358 210.309 136.358C209.935 136.358 209.566 136.269 209.233 136.097C209.11 136.041 209.004 135.953 208.926 135.842C208.849 135.731 208.802 135.601 208.791 135.465V130.169Z" fill="#EBEBEB"/>
<path d="M219.807 131.654V132.913L211.834 134.949V132.275L219.807 131.654Z" fill="#E0E0E0"/>
<path d="M219.807 131.654L219.25 131.463L211.834 131.857V132.275L219.807 131.654Z" fill="#F5F5F5"/>
<path d="M220.61 143.104L219.783 141.683L220.851 140.998C221.039 140.903 221.249 140.862 221.459 140.879C221.668 140.897 221.869 140.972 222.039 141.097C222.515 141.411 222.912 141.834 223.196 142.332C223.48 142.829 223.644 143.388 223.675 143.962C223.694 144.171 223.656 144.381 223.566 144.57C223.476 144.759 223.337 144.919 223.164 145.035L222.137 145.714L221.27 144.217C220.991 143.885 220.768 143.509 220.61 143.104Z" fill="#37474F"/>
<path d="M220.989 141.781C220.082 141.253 219.348 141.676 219.342 142.726C219.375 143.299 219.541 143.856 219.827 144.352C220.114 144.848 220.512 145.269 220.989 145.58C221.896 146.108 222.631 145.684 222.637 144.629C222.603 144.057 222.436 143.501 222.15 143.006C221.863 142.511 221.466 142.091 220.989 141.781Z" fill="#455A64"/>
<path d="M209.992 146.74L210.813 145.319L209.745 144.634C209.557 144.539 209.347 144.498 209.138 144.516C208.928 144.533 208.727 144.608 208.557 144.733C208.082 145.047 207.686 145.469 207.402 145.966C207.118 146.462 206.953 147.02 206.921 147.592C206.901 147.802 206.938 148.013 207.028 148.203C207.118 148.393 207.258 148.555 207.432 148.671L208.483 149.344L209.349 147.848C209.619 147.515 209.836 147.141 209.992 146.74Z" fill="#37474F"/>
<path d="M209.624 145.395C210.531 144.867 211.266 145.29 211.272 146.34C211.241 146.913 211.076 147.471 210.792 147.967C210.508 148.464 210.112 148.886 209.636 149.199C208.729 149.727 207.994 149.304 207.988 148.254C208.019 147.681 208.183 147.123 208.468 146.627C208.752 146.13 209.148 145.708 209.624 145.395Z" fill="#455A64"/>
<path d="M198.477 141.132L199.297 139.711L198.23 139.026C198.043 138.932 197.833 138.892 197.625 138.909C197.417 138.927 197.217 139.001 197.047 139.125C196.57 139.437 196.173 139.859 195.889 140.356C195.605 140.853 195.441 141.411 195.411 141.984C195.392 142.194 195.429 142.405 195.519 142.595C195.609 142.785 195.748 142.947 195.922 143.063L196.967 143.736L197.834 142.239C198.106 141.908 198.323 141.534 198.477 141.132Z" fill="#37474F"/>
<path d="M198.114 139.815C199.016 139.287 199.756 139.711 199.756 140.76C199.726 141.333 199.563 141.89 199.28 142.387C198.997 142.884 198.601 143.307 198.126 143.62C197.219 144.148 196.479 143.724 196.479 142.674C196.508 142.101 196.672 141.543 196.956 141.046C197.24 140.549 197.637 140.127 198.114 139.815Z" fill="#455A64"/>
<path d="M221.723 140.024V142.071L211.047 136.242V133.417L221.723 140.024Z" fill="#E0E0E0"/>
<path d="M222.343 139.676L211.661 133.261L211.047 133.417L221.723 140.024L222.343 139.676Z" fill="#F5F5F5"/>
<path d="M222.345 141.717L221.725 142.071V140.024L222.345 139.676V141.717Z" fill="#F0F0F0"/>
<path d="M210.33 133.417L209.027 143.846V145.713L210.33 136.358V133.417Z" fill="#E0E0E0"/>
<path d="M209.027 143.852H208.275V145.713H209.027V143.852Z" fill="#F0F0F0"/>
<path d="M208.275 143.846L209.458 133.417H210.33L209.027 143.846H208.275Z" fill="#F5F5F5"/>
<path d="M197.689 138.069V140.024L208.791 135.465V133.069L197.689 138.069Z" fill="#E0E0E0"/>
<path d="M197.26 139.733L197.69 140.023V138.069L197.26 137.785V139.733Z" fill="#F0F0F0"/>
<path d="M199.01 137.471L197.69 138.069L197.26 137.785L208.791 132.536V133.069L199.01 137.471Z" fill="#F5F5F5"/>
<path d="M203.172 130.587V131.869L206.409 133.62L208.791 132.536V132.008L203.172 130.587Z" fill="#E0E0E0"/>
<path d="M203.172 130.587L203.43 130.482L208.791 131.654V132.008L203.172 130.587Z" fill="#F5F5F5"/>
<path d="M207.822 120.721H212.805V129.421C212.781 129.643 212.7 129.854 212.57 130.034C212.44 130.214 212.266 130.357 212.064 130.448C211.519 130.728 210.916 130.874 210.305 130.874C209.693 130.874 209.091 130.728 208.546 130.448C208.346 130.356 208.173 130.211 208.046 130.03C207.919 129.849 207.842 129.637 207.822 129.415V120.721Z" fill="#E0E0E0"/>
<path d="M239.931 81.5308C239.627 81.5366 239.324 81.4895 239.036 81.3916L238.691 81.2872L238.961 80.2838L238.284 79.4602C237.785 79.294 237.272 79.1736 236.751 79.1006C235.173 78.886 233.422 79.2514 232.343 80.4404C231.264 81.6294 231.063 83.2708 231.017 84.8368C230.937 87.528 231.264 90.2076 231.424 92.8988C231.676 95.5881 231.471 98.3011 230.816 100.92C230.064 103.501 228.52 105.937 226.167 107.236C225.238 107.731 224.248 108.096 223.222 108.321L215.083 101.825L203.861 98.258L189.161 105.879C188.778 106.107 188.453 106.423 188.214 106.801C187.066 108.541 187.267 111.685 189.287 112.851L209.578 123.737C210.249 124.097 210.996 124.29 211.756 124.298C212.517 124.306 213.267 124.13 213.946 123.784L228.158 116.511C229.058 116.05 229.852 115.403 230.488 114.613C231.125 113.823 231.591 112.906 231.855 111.923L239.994 81.5424L239.931 81.5308Z" fill="#37474F"/>
<path d="M189.16 105.861L203.86 98.2402L215.082 101.807L223.221 108.303C222.59 108.46 221.947 108.587 221.315 108.715C219.631 108.962 218.002 109.508 216.505 110.327C215.059 111.226 213.894 112.763 213.882 114.48L214.399 118.54L213.945 118.766C213.267 119.115 212.517 119.293 211.756 119.285C210.996 119.278 210.249 119.086 209.577 118.726L189.286 107.839C188.854 107.584 188.486 107.231 188.213 106.807C188.449 106.42 188.774 106.096 189.16 105.861Z" fill="#455A64"/>
<path opacity="0.1" d="M189.16 105.861L203.86 98.2402L215.082 101.807L223.221 108.303C222.59 108.46 221.947 108.587 221.315 108.715C219.631 108.962 218.002 109.508 216.505 110.327C215.059 111.226 213.894 112.763 213.882 114.48L214.399 118.54L213.945 118.766C213.267 119.115 212.517 119.293 211.756 119.285C210.996 119.278 210.249 119.086 209.577 118.726L189.286 107.839C188.854 107.584 188.486 107.231 188.213 106.807C188.449 106.42 188.774 106.096 189.16 105.861Z" fill="black"/>
<path d="M191.297 93.119C191.297 93.119 203.098 96.599 206.221 93.5308C210.107 89.6796 208.477 79.9704 208.017 76.1714C207.558 72.3724 208.017 69.7392 209.056 68.6314C210.095 67.5236 211.605 65.8822 216.518 67.9296C211.576 70.499 213.074 83.6534 214.618 88.5602C210.744 92.5854 208.879 97.904 208.815 100.804C208.815 100.804 198.73 103.292 193.467 106.21L191.297 93.119Z" fill="#455A64"/>
<path opacity="0.1" d="M191.297 93.119C191.297 93.119 203.098 96.599 206.221 93.5308C210.107 89.6796 208.477 79.9704 208.017 76.1714C207.558 72.3724 208.017 69.7392 209.056 68.6314C210.095 67.5236 211.605 65.8822 216.518 67.9296C211.576 70.499 212.225 83.6534 213.786 88.5602C209.912 92.5854 208.89 97.904 208.815 100.804C208.815 100.804 198.73 103.292 193.467 106.21L191.297 93.119Z" fill="white"/>
<path d="M193.437 106.21L191.02 104.893C191.02 98.1883 190.045 98.8495 188.214 96.1931C186.382 93.5367 189.189 91.9301 191.296 93.0959C193.402 94.2617 194.263 97.8055 193.437 106.21Z" fill="#455A64"/>
<path opacity="0.2" d="M193.437 106.21L191.02 104.893C191.02 98.1883 190.045 98.8495 188.214 96.1931C186.382 93.5367 189.189 91.9301 191.296 93.0959C193.402 94.2617 194.263 97.8055 193.437 106.21Z" fill="white"/>
<path d="M216.49 67.9297C216.49 67.9297 229.692 73.7297 236.144 76.9313L235.673 79.3035L214.59 69.6291C215.087 68.9244 215.737 68.3432 216.49 67.9297Z" fill="#455A64"/>
<path opacity="0.1" d="M216.49 67.9297C216.49 67.9297 229.692 73.7297 236.144 76.9313L235.673 79.3035L214.59 69.6291C215.087 68.9244 215.737 68.3432 216.49 67.9297Z" fill="white"/>
<path d="M212.47 87.6323C211.133 83.4389 211.408 73.9269 214.588 69.6523L235.671 79.3267L230.855 103.727L223.221 108.327L208.785 100.804C208.86 97.9041 208.596 91.6401 212.47 87.6323Z" fill="#455A64"/>
<path d="M225.518 92.5218C225.162 92.313 224.869 92.4812 224.869 92.8988C224.881 93.1244 224.945 93.344 225.056 93.5396C225.168 93.7352 225.324 93.9012 225.512 94.024C225.868 94.2328 226.161 94.0704 226.161 93.6528C226.15 93.4262 226.086 93.2054 225.975 93.0087C225.863 92.812 225.706 92.6451 225.518 92.5218Z" fill="#455A64"/>
<path d="M222.258 90.5843C221.896 90.3755 221.609 90.5437 221.604 90.9613C221.617 91.1871 221.683 91.4065 221.795 91.6019C221.908 91.7974 222.064 91.9634 222.252 92.0865C222.608 92.2953 222.901 92.1329 222.901 91.7153C222.889 91.489 222.825 91.2688 222.713 91.0723C222.601 90.8758 222.445 90.7086 222.258 90.5843Z" fill="#455A64"/>
<path d="M218.992 88.6473C218.636 88.4385 218.344 88.6067 218.344 89.0243C218.356 89.2496 218.421 89.4689 218.532 89.6644C218.644 89.8599 218.8 90.026 218.987 90.1495C219.348 90.3583 219.635 90.1959 219.641 89.7783C219.628 89.5516 219.563 89.3312 219.45 89.1347C219.337 88.9383 219.181 88.7713 218.992 88.6473Z" fill="#455A64"/>
<path d="M215.731 86.7103C215.369 86.5015 215.082 86.6697 215.082 87.0873C215.093 87.3128 215.158 87.5325 215.269 87.7281C215.381 87.9237 215.537 88.0897 215.725 88.2125C216.081 88.4213 216.374 88.2589 216.374 87.8413C216.362 87.615 216.297 87.3947 216.186 87.1983C216.074 87.0018 215.918 86.8346 215.731 86.7103Z" fill="#455A64"/>
<g opacity="0.2">
<path opacity="0.2" d="M225.518 92.5218C225.162 92.313 224.869 92.4812 224.869 92.8988C224.881 93.1244 224.945 93.344 225.056 93.5396C225.168 93.7352 225.324 93.9012 225.512 94.024C225.868 94.2328 226.161 94.0704 226.161 93.6528C226.15 93.4262 226.086 93.2054 225.975 93.0087C225.863 92.812 225.706 92.6451 225.518 92.5218Z" fill="white"/>
<path opacity="0.2" d="M222.258 90.5848C221.896 90.376 221.609 90.5442 221.604 90.9618C221.617 91.1875 221.683 91.407 221.795 91.6024C221.908 91.7979 222.064 91.9638 222.252 92.087C222.608 92.2958 222.901 92.1334 222.901 91.7158C222.889 91.4895 222.825 91.2692 222.713 91.0728C222.601 90.8763 222.445 90.7091 222.258 90.5848Z" fill="white"/>
<path opacity="0.2" d="M218.99 88.6473C218.635 88.4385 218.342 88.6067 218.342 89.0243C218.354 89.2496 218.419 89.4689 218.53 89.6644C218.642 89.8599 218.798 90.026 218.985 90.1495C219.346 90.3583 219.633 90.1959 219.639 89.7783C219.626 89.5516 219.561 89.3312 219.448 89.1347C219.335 88.9383 219.179 88.7713 218.99 88.6473Z" fill="white"/>
<path opacity="0.2" d="M215.731 86.7103C215.369 86.5015 215.082 86.6697 215.082 87.0873C215.093 87.3128 215.158 87.5325 215.269 87.7281C215.381 87.9237 215.537 88.0897 215.725 88.2125C216.081 88.4213 216.374 88.2589 216.374 87.8413C216.362 87.615 216.297 87.3947 216.186 87.1983C216.074 87.0018 215.918 86.8346 215.731 86.7103Z" fill="white"/>
</g>
<path d="M216.506 110.328C218.002 109.508 219.631 108.962 221.316 108.715C221.947 108.588 222.59 108.46 223.221 108.303C224.247 108.078 225.238 107.713 226.166 107.219C228.496 105.92 230.064 103.484 230.815 100.903C231.469 98.2872 231.674 95.5782 231.424 92.8927C231.263 90.2015 230.936 87.5219 231.016 84.8307C231.062 83.2647 231.298 81.5885 232.342 80.4343C233.387 79.2801 235.172 78.8799 236.751 79.0945C237.271 79.1676 237.784 79.2879 238.283 79.4541L238.983 80.2835L238.714 81.2869L231.854 106.882C231.379 108.66 230.253 110.188 228.703 111.157C228.525 111.267 228.347 111.377 228.158 111.47L214.382 118.517L213.865 114.457C213.894 112.764 215.059 111.227 216.506 110.328Z" fill="#37474F"/>
<path d="M216.488 107.573C221.522 106.123 226.464 105.937 228.29 102.283C230.115 98.629 230.241 93.583 229.329 84.8192C229.216 83.6892 229.243 82.5494 229.409 81.4262C229.949 78.1492 231.9 76.7456 234.145 76.7108C236.366 76.6717 238.519 77.4888 240.166 78.996C240.485 79.2656 240.74 79.6046 240.912 79.9878C240.992 80.1767 241.021 80.3836 240.995 80.5874C240.97 80.7912 240.892 80.9846 240.768 81.1478C240.565 81.3616 240.287 81.4883 239.994 81.5016H239.93C239.626 81.5075 239.323 81.4604 239.035 81.3624L238.691 81.258C238.076 81.0608 237.468 80.8288 236.842 80.678C236.093 80.4547 235.296 80.4547 234.546 80.678C234.194 80.818 233.879 81.0394 233.627 81.3244C233.375 81.6094 233.192 81.9502 233.094 82.3194C230.97 89.3258 233.668 96.8542 231.275 102.619C229.323 107.88 222.573 110.067 217.814 111.627C218.278 111.442 218.687 111.141 219.002 110.751C219.24 110.38 219.35 109.941 219.315 109.501C219.281 109.06 219.105 108.644 218.813 108.315C218.514 108.01 218.146 107.783 217.741 107.654C217.336 107.524 216.906 107.496 216.488 107.573Z" fill="#455A64"/>
<path opacity="0.1" d="M216.488 107.573C221.522 106.123 226.464 105.937 228.29 102.283C230.115 98.629 230.241 93.583 229.329 84.8192C229.216 83.6892 229.243 82.5494 229.409 81.4262C229.949 78.1492 231.9 76.7456 234.145 76.7108C236.366 76.6717 238.519 77.4888 240.166 78.996C240.485 79.2656 240.74 79.6046 240.912 79.9878C240.992 80.1767 241.021 80.3836 240.995 80.5874C240.97 80.7912 240.892 80.9846 240.768 81.1478C240.565 81.3616 240.287 81.4883 239.994 81.5016H239.93C239.626 81.5075 239.323 81.4604 239.035 81.3624L238.691 81.258C238.076 81.0608 237.468 80.8288 236.842 80.678C236.093 80.4547 235.296 80.4547 234.546 80.678C234.194 80.818 233.879 81.0394 233.627 81.3244C233.375 81.6094 233.192 81.9502 233.094 82.3194C230.97 89.3258 233.668 96.8542 231.275 102.619C229.323 107.88 222.573 110.067 217.814 111.627C218.278 111.442 218.687 111.141 219.002 110.751C219.24 110.38 219.35 109.941 219.315 109.501C219.281 109.06 219.105 108.644 218.813 108.315C218.514 108.01 218.146 107.783 217.741 107.654C217.336 107.524 216.906 107.496 216.488 107.573Z" fill="white"/>
<path d="M212.999 111.175C213.294 110.345 213.729 109.574 214.285 108.895C214.849 108.213 215.626 107.746 216.489 107.573C216.918 107.493 217.361 107.522 217.776 107.659C218.191 107.796 218.565 108.035 218.865 108.356C219.157 108.685 219.334 109.101 219.368 109.541C219.402 109.982 219.292 110.421 219.055 110.792C218.739 111.181 218.33 111.483 217.867 111.668C217.487 111.829 217.117 112.013 216.759 112.219C215.819 112.859 215.144 113.824 214.859 114.933C214.576 116.032 214.428 117.162 214.417 118.297V118.517L212.058 117.195C211.949 115.144 212.27 113.092 212.999 111.175Z" fill="#455A64"/>
<path opacity="0.2" d="M212.999 111.175C213.294 110.345 213.729 109.574 214.285 108.895C214.849 108.213 215.626 107.746 216.489 107.573C216.918 107.493 217.361 107.522 217.776 107.659C218.191 107.796 218.565 108.035 218.865 108.356C219.157 108.685 219.334 109.101 219.368 109.541C219.402 109.982 219.292 110.421 219.055 110.792C218.739 111.181 218.33 111.483 217.867 111.668C217.487 111.829 217.117 112.013 216.759 112.219C215.819 112.859 215.144 113.824 214.859 114.933C214.576 116.032 214.428 117.162 214.417 118.297V118.517L212.058 117.195C211.949 115.144 212.27 113.092 212.999 111.175Z" fill="white"/>
<path d="M244.896 87.8351L244.517 87.4175L221.953 96.6279L224.054 104.313L224.433 104.725L246.991 95.5201L244.896 87.8351Z" fill="#44A2C6"/>
<path opacity="0.2" d="M221.953 96.6279L224.054 104.313L224.433 104.725L222.332 97.0455L221.953 96.6279Z" fill="black"/>
<path opacity="0.2" d="M244.896 87.8351L244.517 87.4175L221.953 96.6279L222.332 97.0455L244.896 87.8351Z" fill="white"/>
<path d="M234.093 98.3275L233.203 95.0621C233.191 95.018 233.17 94.9773 233.14 94.9431C233.11 94.9089 233.073 94.8821 233.031 94.8649H232.973H232.91C232.868 94.8595 232.826 94.8595 232.784 94.8649C232.734 94.8813 232.689 94.9091 232.652 94.9461C232.614 94.9781 232.583 95.0176 232.56 95.0621C232.546 95.092 232.535 95.123 232.526 95.1549C232.524 95.1703 232.524 95.1859 232.526 95.2013C232.514 95.2489 232.514 95.2987 232.526 95.3463L232.882 96.6513L230.873 97.4401L230.517 96.1351C230.503 96.0799 230.473 96.0301 230.431 95.992C230.389 95.9538 230.337 95.929 230.281 95.9205H230.172C230.131 95.9122 230.088 95.9122 230.046 95.9205C229.996 95.9427 229.95 95.972 229.908 96.0075C229.871 96.0405 229.84 96.0797 229.816 96.1235C229.802 96.1534 229.791 96.1844 229.782 96.2163C229.782 96.2163 229.782 96.2511 229.782 96.2627C229.773 96.3106 229.773 96.3598 229.782 96.4077L230.677 99.6731C230.689 99.718 230.711 99.7596 230.741 99.7949C230.759 99.8117 230.781 99.8255 230.804 99.8355C230.815 99.8382 230.827 99.8382 230.838 99.8355C230.867 99.8411 230.896 99.8411 230.924 99.8355H230.976C231.027 99.8344 231.078 99.8226 231.125 99.8007C231.22 99.7665 231.299 99.699 231.349 99.6107C231.398 99.5223 231.415 99.4189 231.395 99.3193L231.033 97.9911L232.991 97.1907L233.352 98.5189C233.377 98.5946 233.428 98.6585 233.496 98.6987C233.496 98.6987 233.496 98.6987 233.524 98.6987C233.553 98.7048 233.582 98.7048 233.611 98.6987H233.656C233.683 98.702 233.71 98.702 233.737 98.6987H233.806C233.884 98.6718 233.953 98.6224 234.004 98.5564C234.055 98.4905 234.086 98.4109 234.093 98.3275Z" fill="white"/>
<path d="M229.766 99.6615C229.753 99.6218 229.732 99.5852 229.705 99.5542C229.677 99.5232 229.643 99.4985 229.605 99.4817H229.49C229.456 99.4763 229.421 99.4763 229.387 99.4817C229.346 99.4992 229.307 99.5227 229.272 99.5513C229.242 99.5792 229.215 99.6104 229.192 99.6441L229.129 99.7311C229.099 99.7778 229.067 99.8224 229.031 99.8645L229.002 99.9051L228.888 100.021C228.868 100.049 228.845 100.074 228.819 100.096C228.79 100.125 228.75 100.149 228.715 100.178L228.606 100.259L228.48 100.323L228.319 100.404L228.136 100.462H228.09H228.038C227.729 100.531 227.404 100.475 227.136 100.304C226.867 100.134 226.676 99.8633 226.603 99.5513C226.554 99.3622 226.54 99.1655 226.563 98.9713C226.573 98.8768 226.592 98.7836 226.62 98.6929C226.618 98.6697 226.618 98.6464 226.62 98.6233C226.643 98.5532 226.672 98.4853 226.706 98.4203C226.743 98.3456 226.785 98.2738 226.833 98.2057L226.861 98.1709C226.913 98.1017 226.97 98.0376 227.034 97.9795L227.097 97.9331C227.231 97.815 227.385 97.7209 227.55 97.6547C227.89 97.5085 228.271 97.49 228.624 97.6025C228.7 97.6266 228.782 97.6266 228.859 97.6025C228.954 97.5693 229.034 97.5021 229.084 97.4134C229.134 97.3247 229.15 97.2208 229.129 97.1211C229.112 97.0682 229.082 97.0204 229.043 96.9819C229.009 96.9529 228.97 96.9312 228.928 96.9181C228.875 96.9037 228.821 96.8921 228.767 96.8833H228.652H228.566C228.459 96.8716 228.352 96.8716 228.245 96.8833C228.099 96.8908 227.955 96.9141 227.814 96.9529C227.673 96.9879 227.535 97.0344 227.401 97.0921C227.249 97.1503 227.102 97.2241 226.965 97.3125C226.84 97.3934 226.722 97.4825 226.609 97.5793C226.611 97.5888 226.611 97.5987 226.609 97.6083C226.511 97.7012 226.419 97.8 226.333 97.9041L226.293 97.9563C226.212 98.0625 226.139 98.175 226.075 98.2927C226.035 98.3623 226.012 98.4435 225.977 98.5131C225.943 98.5827 225.926 98.6349 225.903 98.6929C225.882 98.7631 225.867 98.8349 225.857 98.9075C225.836 98.9738 225.821 99.0417 225.811 99.1105C225.805 99.2051 225.805 99.3 225.811 99.3947C225.808 99.441 225.808 99.4875 225.811 99.5339C225.817 99.6754 225.84 99.8156 225.88 99.9515C225.92 100.092 225.974 100.228 226.041 100.357C226.064 100.397 226.091 100.433 226.121 100.468C226.166 100.548 226.218 100.623 226.276 100.694C226.323 100.743 226.373 100.79 226.425 100.833L226.517 100.92L226.58 100.966H226.626C226.688 101.009 226.753 101.046 226.821 101.077L226.867 101.106C227.131 101.213 227.413 101.265 227.697 101.26C227.981 101.255 228.261 101.193 228.52 101.077C229.088 100.858 229.565 100.448 229.869 99.9167C229.869 99.8694 229.86 99.8225 229.843 99.7787C229.825 99.7349 229.799 99.6951 229.766 99.6615Z" fill="white"/>
<path d="M235.913 97.5849L235.023 94.3195C235.009 94.269 234.982 94.2232 234.944 94.1866C234.907 94.15 234.861 94.1238 234.811 94.1107C234.784 94.108 234.757 94.108 234.73 94.1107H234.696C234.656 94.1024 234.615 94.1024 234.575 94.1107C234.526 94.133 234.479 94.1623 234.438 94.1977C234.402 94.2322 234.371 94.2712 234.346 94.3137C234.331 94.3432 234.319 94.3744 234.311 94.4065C234.309 94.4219 234.309 94.4376 234.311 94.4529C234.3 94.5006 234.3 94.5503 234.311 94.5979L235.201 97.8575C235.218 97.9199 235.255 97.975 235.306 98.0147C235.356 98.0544 235.418 98.0766 235.482 98.0779H235.511C235.562 98.074 235.613 98.0623 235.66 98.0431C235.748 98.0074 235.821 97.9424 235.867 97.8591C235.913 97.7757 235.929 97.6789 235.913 97.5849Z" fill="white"/>
<path d="M237.463 97.3008L238.243 96.9876L239.885 96.3148C239.969 96.2812 240.039 96.2185 240.082 96.1379C240.125 96.0572 240.139 95.9637 240.12 95.874C240.103 95.8149 240.066 95.7635 240.016 95.7278C239.966 95.6921 239.906 95.6742 239.845 95.6768C239.805 95.6685 239.764 95.6685 239.724 95.6768L237.658 96.5236L237.377 95.4796L239.145 94.7604C239.228 94.7271 239.298 94.6656 239.342 94.5863C239.386 94.507 239.401 94.4149 239.386 94.3254C239.375 94.2847 239.356 94.2468 239.329 94.2147C239.302 94.1825 239.269 94.1569 239.231 94.1398H239.173H239.11C239.07 94.1345 239.03 94.1345 238.99 94.1398L237.222 94.859L236.946 93.8498L238.978 93.0204C239.022 93.0023 239.063 92.9768 239.099 92.945C239.149 92.9019 239.188 92.8458 239.21 92.7826C239.232 92.7194 239.237 92.6513 239.225 92.5854C239.214 92.5579 239.198 92.5324 239.179 92.51C239.154 92.4806 239.122 92.4569 239.087 92.4404H238.978C238.935 92.4423 238.892 92.4522 238.852 92.4694L236.464 93.4438C236.414 93.4661 236.368 93.4954 236.326 93.5308C236.289 93.5638 236.258 93.6031 236.234 93.6468C236.219 93.6756 236.209 93.7071 236.206 93.7396V93.786C236.194 93.8337 236.194 93.8834 236.206 93.931L237.078 97.1326C237.092 97.1797 237.115 97.2232 237.147 97.2602H237.176L237.233 97.3008H237.273H237.354H237.434H237.463Z" fill="white"/>
<path d="M243.07 92.5856C243.029 92.5897 242.988 92.5994 242.95 92.6145L241.176 93.3395L240.883 92.2724L242.921 91.443C243.007 91.4114 243.08 91.3496 243.125 91.2688C243.17 91.1879 243.186 91.0933 243.168 91.0022C243.157 90.9614 243.138 90.9235 243.111 90.8914C243.084 90.8592 243.051 90.8337 243.013 90.8166C242.977 90.8105 242.94 90.8105 242.904 90.8166C242.862 90.8207 242.822 90.8304 242.783 90.8456L240.384 91.8258C240.334 91.8422 240.289 91.87 240.252 91.907C240.215 91.9382 240.184 91.9755 240.16 92.0172C240.145 92.0442 240.136 92.0736 240.131 92.1042C240.129 92.1215 240.129 92.139 240.131 92.1564C240.126 92.1967 240.126 92.2378 240.131 92.2782L241.015 95.5145C241.027 95.5607 241.051 95.6029 241.084 95.6364H241.119C241.135 95.6513 241.152 95.6648 241.17 95.677C241.204 95.6835 241.239 95.6835 241.274 95.677H241.342H241.394H241.446L241.497 95.6422H241.532H241.561C241.617 95.5945 241.66 95.5318 241.683 95.4611C241.706 95.3904 241.71 95.3145 241.693 95.242L241.348 93.9718L243.116 93.2468C243.205 93.2163 243.28 93.1543 243.328 93.0722C243.375 92.9902 243.392 92.8935 243.374 92.8002C243.358 92.7332 243.318 92.6745 243.262 92.635C243.206 92.5955 243.138 92.5779 243.07 92.5856Z" fill="white"/>
<path d="M233.616 75.3999H233.582C233.429 75.4093 233.277 75.4326 233.128 75.4695C230.149 76.2351 227.325 83.1951 224.972 95.5549C224.968 95.5774 224.968 95.6004 224.972 95.6228C224.977 95.6452 224.986 95.6664 224.999 95.6852C225.012 95.7041 225.028 95.7202 225.047 95.7327C225.066 95.7451 225.087 95.7537 225.109 95.7579H225.144C225.185 95.7574 225.224 95.7426 225.255 95.7162C225.287 95.6898 225.308 95.6534 225.316 95.6129C226.705 88.3049 229.65 75.9277 233.599 75.7421H233.719C233.895 75.7826 234.06 75.8618 234.202 75.9741L235.114 76.4149C234.552 75.7885 234.035 75.3999 233.616 75.3999Z" fill="#E6E6E6"/>
</svg>
