<svg width="338" height="338" viewBox="0 0 338 338" fill="none" xmlns="http://www.w3.org/2000/svg">
<path d="M72.7236 288.354C127.655 315.307 216.712 315.313 271.643 288.354C326.575 261.396 326.568 217.692 271.643 190.733C216.718 163.774 127.655 163.774 72.7236 190.733C17.7919 217.692 17.7986 261.396 72.7236 288.354Z" fill="#F5F5F5"/>
<path d="M267.108 272.868C279.432 272.868 289.423 268.107 289.423 262.234C289.423 256.361 279.432 251.601 267.108 251.601C254.784 251.601 244.793 256.361 244.793 262.234C244.793 268.107 254.784 272.868 267.108 272.868Z" fill="#E6E6E6"/>
<path d="M171.36 167.161L146.017 181.796C144.987 182.469 144.26 183.517 143.989 184.717L137.689 221.092C137.616 221.657 137.704 222.231 137.944 222.747C138.183 223.264 138.563 223.703 139.041 224.013L155.386 233.477C155.911 233.739 156.49 233.876 157.076 233.876C157.663 233.876 158.242 233.739 158.766 233.477L193.702 213.305C194.215 213.032 194.645 212.624 194.944 212.126C195.244 211.627 195.402 211.057 195.402 210.476C195.402 209.894 195.244 209.324 194.944 208.825C194.645 208.327 194.215 207.92 193.702 207.647L181.169 200.366C180.665 200.035 180.235 199.602 179.907 199.096C179.579 198.59 179.359 198.021 179.263 197.425L176.437 169.973C176.353 169.396 176.149 168.842 175.84 168.348C175.53 167.853 175.121 167.428 174.639 167.1C174.126 166.852 173.562 166.728 172.992 166.738C172.423 166.749 171.864 166.894 171.36 167.161Z" fill="#263238"/>
<path d="M157.082 227.055V233.856C157.675 233.867 158.261 233.728 158.786 233.45L193.721 213.278C194.208 212.975 194.616 212.561 194.912 212.07C195.208 211.578 195.384 211.024 195.425 210.452C195.387 209.784 195.152 209.142 194.749 208.607H189.03L157.082 227.055Z" fill="#455A64"/>
<path d="M174.55 169L149.2 183.642C148.17 184.315 147.442 185.362 147.172 186.562L141.446 219.578C141.374 220.144 141.463 220.718 141.702 221.235C141.941 221.753 142.321 222.193 142.798 222.505L155.365 229.759C155.889 230.021 156.468 230.158 157.055 230.158C157.641 230.158 158.22 230.021 158.745 229.759L193.721 209.56C194.667 209.019 194.667 208.14 193.721 207.593L181.168 200.366C180.664 200.035 180.234 199.602 179.906 199.096C179.577 198.59 179.358 198.021 179.261 197.426L176.436 169.973C176.44 169.752 176.382 169.535 176.269 169.345C176.156 169.155 175.992 169.001 175.795 168.9C175.599 168.799 175.378 168.754 175.158 168.772C174.938 168.79 174.727 168.868 174.55 169Z" fill="#263238"/>
<path d="M193.722 207.62L181.169 200.366C180.663 200.05 180.235 199.622 179.918 199.116L141.684 221.187C141.916 221.732 142.31 222.192 142.813 222.505L155.379 229.759C155.904 230.021 156.483 230.158 157.069 230.158C157.656 230.158 158.235 230.021 158.759 229.759L193.722 209.56C194.689 209.046 194.689 208.167 193.722 207.62Z" fill="#37474F"/>
<path d="M90.7938 239.507L89.1714 238.567C88.4767 238.115 87.8985 237.505 87.4838 236.788C87.0692 236.07 86.8298 235.264 86.7852 234.437V125.601C86.8298 124.774 87.0692 123.969 87.4839 123.253C87.8986 122.536 88.4768 121.928 89.1714 121.477L222.181 45.0891C222.921 44.7143 223.738 44.519 224.567 44.519C225.397 44.519 226.214 44.7143 226.954 45.0891L228.191 45.7651C228.885 46.2176 229.463 46.8274 229.878 47.545C230.292 48.2626 230.532 49.0679 230.577 49.8955V158.799C230.533 159.627 230.293 160.432 229.878 161.15C229.464 161.868 228.886 162.477 228.191 162.929L95.5664 239.507C94.8263 239.88 94.009 240.074 93.1801 240.074C92.3512 240.074 91.5339 239.88 90.7938 239.507Z" fill="#455A64"/>
<path d="M96.3711 128.345L87.4885 123.214C87.0667 123.928 86.8341 124.738 86.8125 125.567V234.437C86.8571 235.264 87.0965 236.07 87.5112 236.788C87.9258 237.505 88.504 238.115 89.1988 238.567L90.8212 239.507C91.5613 239.88 92.3786 240.074 93.2075 240.074C94.0363 240.074 94.8536 239.88 95.5937 239.507L96.3982 239.033L96.3711 128.345Z" fill="#263238"/>
<path d="M93.1797 238.128V129.292C93.2243 128.464 93.4637 127.659 93.8783 126.941C94.293 126.223 94.8712 125.613 95.566 125.161L228.19 48.5503C229.509 47.7932 230.577 48.4084 230.577 49.9023V158.799C230.532 159.627 230.293 160.432 229.878 161.15C229.463 161.868 228.885 162.477 228.19 162.93L95.566 239.507C94.2478 240.264 93.1797 239.649 93.1797 238.128Z" fill="#37474F"/>
<path d="M155.481 197.547L168.048 190.287C168.987 189.746 169.751 190.132 169.751 191.152C169.71 191.724 169.534 192.278 169.238 192.769C168.942 193.26 168.534 193.674 168.048 193.978L155.481 201.238C154.534 201.779 153.777 201.394 153.777 200.373C153.818 199.801 153.994 199.247 154.29 198.756C154.586 198.265 154.994 197.851 155.481 197.547Z" fill="#E0E0E0"/>
<path d="M99.2915 128.44L224.196 56.108C224.946 55.6754 225.548 56.0269 225.548 56.8922V151.809C225.523 152.281 225.388 152.74 225.153 153.15C224.918 153.56 224.59 153.909 224.196 154.169L99.2915 226.284C98.5343 226.717 97.9395 226.365 97.9395 225.493V130.853C97.9558 130.372 98.0871 129.902 98.3223 129.482C98.5576 129.063 98.8898 128.705 99.2915 128.44Z" fill="white"/>
<path d="M108.295 130.826L239.378 55.1143C241.46 53.9177 243.164 54.8979 243.164 57.2977V142.846C243.129 143.455 242.952 144.047 242.647 144.576C242.342 145.104 241.917 145.553 241.406 145.888L107.619 223.134C106.652 223.695 105.861 223.235 105.861 222.12V135.045C105.909 134.2 106.154 133.379 106.576 132.646C106.999 131.913 107.588 131.29 108.295 130.826Z" fill="#E0E0E0"/>
<path d="M243.164 59.2919V57.318C243.164 54.9182 241.46 53.938 239.378 55.1345L108.295 130.847C107.588 131.31 106.999 131.934 106.576 132.666C106.154 133.399 105.909 134.22 105.861 135.065V138.58L243.164 59.2919Z" fill="#44A2C6"/>
<path d="M227.298 63.7941C226.92 64.0405 226.605 64.3729 226.379 64.7641C226.154 65.1553 226.024 65.5942 226 66.0451C226 66.8766 226.581 67.2146 227.298 66.8023C227.678 66.5551 227.994 66.2218 228.22 65.8295C228.447 65.4372 228.578 64.9969 228.603 64.5444C228.603 63.7129 228.021 63.3749 227.298 63.7941Z" fill="white"/>
<path d="M232.469 60.84C232.099 61.0868 231.791 61.4161 231.569 61.8019C231.347 62.1878 231.218 62.6198 231.191 63.0641C231.191 63.8955 231.773 64.2335 232.496 63.8144C232.875 63.5669 233.191 63.2335 233.418 62.8412C233.645 62.449 233.776 62.0089 233.801 61.5566C233.774 60.7251 233.219 60.3939 232.469 60.84Z" fill="white"/>
<path d="M237.641 57.8251C237.261 58.0708 236.945 58.4028 236.718 58.794C236.491 59.1853 236.36 59.6246 236.336 60.0761C236.336 60.9076 236.917 61.2456 237.641 60.8333C238.019 60.585 238.333 60.2512 238.559 59.859C238.784 59.4668 238.914 59.0272 238.939 58.5754C238.939 57.7439 238.357 57.4059 237.641 57.8251Z" fill="white"/>
<path d="M234.884 74.3194C234.776 73.9611 234.438 73.8462 234.039 74.076L150.675 122.214C150.412 122.38 150.197 122.614 150.053 122.89L147.309 121.301C147.453 121.025 147.667 120.792 147.931 120.625L231.295 72.4942C231.567 72.3543 231.868 72.2813 232.174 72.2812C232.479 72.2812 232.781 72.3543 233.052 72.4942L234.039 73.062C234.258 73.2039 234.445 73.3884 234.59 73.6045C234.735 73.8206 234.835 74.0637 234.884 74.3194Z" fill="#EBEBEB"/>
<path d="M234.917 74.583V110.607C234.901 110.912 234.813 111.209 234.66 111.473C234.508 111.737 234.295 111.962 234.038 112.128L150.674 160.259L150.552 160.32C150.5 160.342 150.446 160.358 150.39 160.367C150.059 160.415 149.822 160.178 149.822 159.745V123.708C149.833 123.402 149.922 123.105 150.079 122.843C150.223 122.566 150.438 122.333 150.701 122.167L234.065 74.0287C234.464 73.7988 234.802 73.9137 234.91 74.272C234.914 74.2944 234.914 74.3172 234.91 74.3396C234.923 74.4201 234.925 74.5019 234.917 74.583Z" fill="#FAFAFA"/>
<path d="M150.363 160.374C150.094 160.457 149.811 160.482 149.532 160.449C149.316 160.43 149.106 160.365 148.917 160.259L147.93 159.692C147.675 159.524 147.462 159.3 147.31 159.035C147.157 158.771 147.068 158.475 147.051 158.171V122.147C147.06 121.841 147.149 121.543 147.308 121.281L150.052 122.87C149.895 123.132 149.806 123.43 149.795 123.735V159.752C149.795 160.212 150.032 160.422 150.363 160.374Z" fill="#E0E0E0"/>
<path d="M185.462 147.246C185.354 146.888 185.009 146.773 184.617 147.003L150.675 166.607C150.405 166.772 150.183 167.005 150.033 167.283L147.295 165.681C147.444 165.404 147.663 165.171 147.93 165.005L181.866 145.401C182.137 145.261 182.439 145.188 182.744 145.188C183.05 145.188 183.351 145.261 183.623 145.401L184.617 145.969C184.835 146.115 185.023 146.303 185.168 146.523C185.313 146.742 185.413 146.988 185.462 147.246Z" fill="#EBEBEB"/>
<path d="M185.495 147.51V174.023C185.478 174.327 185.39 174.622 185.239 174.886C185.088 175.151 184.877 175.376 184.623 175.544L152.547 194.059L150.681 195.141L150.546 195.208C150.126 195.357 149.822 195.121 149.822 194.627V168.121C149.831 167.831 149.913 167.547 150.059 167.296C150.209 167.018 150.431 166.785 150.701 166.62L184.643 147.016C185.035 146.787 185.38 146.902 185.488 147.26C185.488 147.26 185.488 147.3 185.488 147.327C185.496 147.388 185.498 147.449 185.495 147.51Z" fill="#FAFAFA"/>
<path d="M150.519 195.215L150.411 195.256C150.363 195.276 150.313 195.289 150.262 195.296C150.187 195.317 150.11 195.331 150.032 195.337H149.802C149.643 195.336 149.484 195.318 149.329 195.283C149.185 195.251 149.046 195.198 148.917 195.127L147.93 194.553C147.673 194.387 147.46 194.162 147.307 193.898C147.155 193.633 147.067 193.337 147.051 193.032V166.539C147.061 166.242 147.145 165.952 147.294 165.694L150.032 167.296C149.886 167.547 149.804 167.831 149.795 168.121V194.634C149.795 195.127 150.073 195.364 150.519 195.215Z" fill="#E0E0E0"/>
<path d="M152.541 190.213V172.542C152.553 172.339 152.612 172.141 152.714 171.965C152.816 171.789 152.958 171.639 153.129 171.528L154.704 170.616C155.029 170.433 155.286 170.616 155.286 170.954V188.604C155.275 188.807 155.217 189.004 155.116 189.18C155.015 189.357 154.874 189.507 154.704 189.618L153.129 190.524C152.778 190.74 152.541 190.585 152.541 190.213Z" fill="#44A2C6"/>
<path d="M158.035 187.042V166.201C158.045 165.998 158.103 165.801 158.204 165.624C158.305 165.448 158.446 165.298 158.617 165.187L160.212 164.268C160.536 164.085 160.8 164.268 160.8 164.606V185.447C160.79 185.651 160.731 185.849 160.629 186.025C160.527 186.202 160.384 186.351 160.212 186.461L158.637 187.374C158.292 187.57 158.035 187.414 158.035 187.042Z" fill="#44A2C6"/>
<path d="M163.525 183.872V173.867C163.537 173.664 163.596 173.466 163.698 173.29C163.801 173.114 163.943 172.964 164.114 172.853L165.689 171.948C166.006 171.758 166.27 171.914 166.27 172.286V182.284C166.261 182.487 166.204 182.685 166.103 182.861C166.002 183.038 165.86 183.187 165.689 183.298L164.114 184.21C163.789 184.399 163.525 184.244 163.525 183.872Z" fill="#44A2C6"/>
<path d="M169 180.708V167.736C169.011 167.532 169.07 167.335 169.172 167.158C169.275 166.982 169.417 166.833 169.588 166.722L171.163 165.809C171.488 165.627 171.751 165.776 171.751 166.147V179.14C171.741 179.344 171.683 179.542 171.58 179.718C171.478 179.895 171.335 180.044 171.163 180.154L169.588 181.067C169.277 181.236 169 181.08 169 180.708Z" fill="#44A2C6"/>
<path d="M174.51 177.538V173.124C174.521 172.921 174.579 172.724 174.68 172.547C174.781 172.371 174.922 172.221 175.091 172.11L176.673 171.197C176.991 171.014 177.254 171.163 177.254 171.535V175.949C177.243 176.152 177.185 176.349 177.084 176.525C176.983 176.702 176.842 176.851 176.673 176.963L175.084 177.876C174.773 178.058 174.51 177.91 174.51 177.538Z" fill="#44A2C6"/>
<path d="M180 174.368V159.861C180.012 159.657 180.071 159.46 180.173 159.283C180.275 159.107 180.417 158.958 180.588 158.847L182.163 157.941C182.488 157.751 182.751 157.941 182.751 158.279V172.779C182.741 172.983 182.683 173.181 182.58 173.357C182.478 173.534 182.335 173.683 182.163 173.793L180.588 174.706C180.264 174.888 180 174.739 180 174.368Z" fill="#44A2C6"/>
<path d="M234.883 118.705C234.775 118.347 234.43 118.232 234.038 118.462L191.862 142.798C191.592 142.962 191.371 143.196 191.22 143.474L188.482 141.872C188.632 141.595 188.851 141.362 189.118 141.196L231.287 116.86C231.559 116.72 231.86 116.647 232.166 116.647C232.471 116.647 232.773 116.72 233.044 116.86L234.038 117.428C234.257 117.574 234.444 117.762 234.589 117.982C234.734 118.201 234.834 118.447 234.883 118.705Z" fill="#EBEBEB"/>
<path d="M234.918 118.976V145.489C234.901 145.793 234.813 146.088 234.662 146.353C234.511 146.617 234.3 146.842 234.046 147.01L193.736 170.284L191.87 171.366L191.735 171.434C191.316 171.582 191.012 171.346 191.012 170.852V144.339C191.021 144.049 191.102 143.766 191.248 143.515C191.399 143.237 191.62 143.003 191.891 142.839L234.066 118.503C234.458 118.273 234.803 118.388 234.911 118.746C234.911 118.746 234.911 118.787 234.911 118.814C234.918 118.868 234.92 118.922 234.918 118.976Z" fill="#FAFAFA"/>
<path d="M191.708 171.434L191.6 171.474C191.552 171.494 191.502 171.507 191.451 171.515C191.376 171.535 191.299 171.549 191.221 171.555H190.992C190.832 171.554 190.674 171.536 190.518 171.501C190.374 171.469 190.236 171.416 190.106 171.346L189.119 170.771C188.863 170.605 188.65 170.38 188.497 170.116C188.344 169.852 188.256 169.555 188.24 169.25V142.758C188.25 142.46 188.334 142.17 188.484 141.913L191.221 143.515C191.075 143.766 190.994 144.049 190.985 144.339V170.852C190.985 171.346 191.309 171.582 191.708 171.434Z" fill="#E0E0E0"/>
<path d="M206.594 140.541L204.41 148.653C204.206 149.302 203.891 149.91 203.477 150.451L196.427 158.921C195.971 158.598 195.585 158.185 195.292 157.709C194.999 157.233 194.806 156.702 194.723 156.149C194.23 153.445 195.622 149.7 198.346 146.422C198.813 145.867 199.286 145.347 199.773 144.853C201.676 142.9 204.013 141.422 206.594 140.541Z" fill="#44A2C6"/>
<path d="M212.467 150.788C209.337 156.054 203.388 160.029 198.947 159.752C198.338 159.73 197.737 159.597 197.176 159.36L204.125 151.011C204.497 150.609 205.011 150.367 205.558 150.335H205.633L212.467 150.788Z" fill="#44A2C6"/>
<path d="M211.867 140.405L205.391 148.186L207.534 140.27C208.951 139.822 210.479 139.87 211.867 140.405Z" fill="#44A2C6"/>
<path d="M212.941 149.991L205.701 149.545C205.62 149.539 205.54 149.521 205.465 149.491C205.475 149.442 205.496 149.396 205.526 149.356C205.543 149.326 205.563 149.299 205.587 149.274L212.637 140.804C214.929 142.386 215.051 145.928 212.941 149.991Z" fill="#44A2C6"/>
<path d="M217.232 134.862C217.232 135.349 217.631 135.538 218.111 135.234L231.293 127.622C231.534 127.48 231.739 127.284 231.891 127.049C232.044 126.814 232.14 126.548 232.172 126.27C232.172 125.783 231.78 125.594 231.293 125.891L218.111 133.503C217.871 133.648 217.668 133.846 217.516 134.081C217.363 134.317 217.267 134.584 217.232 134.862Z" fill="#44A2C6"/>
<path d="M217.232 140.162C217.232 140.648 217.631 140.838 218.111 140.533L231.293 132.928C231.538 132.781 231.745 132.578 231.898 132.336C232.05 132.095 232.144 131.82 232.172 131.536C232.172 131.049 231.78 130.86 231.293 131.164L218.111 138.769C217.867 138.918 217.661 139.121 217.509 139.362C217.356 139.604 217.262 139.877 217.232 140.162Z" fill="#E0E0E0"/>
<path d="M217.232 143.434C217.232 143.92 217.631 144.11 218.111 143.806L231.293 136.194C231.538 136.048 231.746 135.847 231.899 135.606C232.051 135.365 232.145 135.092 232.172 134.808C232.172 134.321 231.78 134.132 231.293 134.429L218.111 142.041C217.867 142.19 217.661 142.393 217.509 142.634C217.356 142.876 217.262 143.15 217.232 143.434Z" fill="#E0E0E0"/>
<path d="M217.232 146.692C217.232 147.179 217.631 147.368 218.111 147.07L231.293 139.459C231.539 139.313 231.747 139.11 231.9 138.868C232.053 138.626 232.146 138.351 232.172 138.066C232.172 137.579 231.78 137.39 231.293 137.694L218.111 145.34C217.871 145.483 217.667 145.68 217.515 145.914C217.363 146.148 217.266 146.414 217.232 146.692Z" fill="#E0E0E0"/>
<path d="M217.232 149.971C217.232 150.457 217.631 150.647 218.111 150.349L231.293 142.738C231.538 142.59 231.745 142.387 231.898 142.146C232.05 141.904 232.144 141.63 232.172 141.345C232.172 140.858 231.78 140.669 231.293 140.973L218.111 148.585C217.867 148.732 217.661 148.933 217.508 149.174C217.355 149.414 217.261 149.687 217.232 149.971Z" fill="#E0E0E0"/>
<path d="M138.776 144.083C138.668 143.718 138.33 143.603 137.931 143.839L114.947 157.089C114.687 157.259 114.473 157.491 114.325 157.765L111.607 156.156C111.753 155.881 111.968 155.648 112.229 155.48L135.213 142.224C135.486 142.087 135.787 142.016 136.092 142.016C136.397 142.016 136.698 142.087 136.971 142.224L137.958 142.798C138.174 142.946 138.358 143.136 138.499 143.357C138.639 143.577 138.734 143.824 138.776 144.083Z" fill="#EBEBEB"/>
<path d="M138.81 144.346V151.83C138.793 152.134 138.705 152.431 138.553 152.695C138.4 152.959 138.187 153.184 137.931 153.351L114.947 166.6L114.785 166.681H114.744C114.352 166.796 114.068 166.56 114.068 166.08V158.61C114.077 158.304 114.165 158.006 114.325 157.745C114.473 157.471 114.687 157.239 114.947 157.069L137.931 143.819C138.33 143.582 138.668 143.697 138.776 144.062C138.78 144.085 138.78 144.108 138.776 144.13C138.795 144.201 138.807 144.273 138.81 144.346Z" fill="#FAFAFA"/>
<path d="M114.772 166.695C114.665 166.735 114.554 166.764 114.441 166.783C114.097 166.845 113.742 166.815 113.413 166.695L113.217 166.6L112.23 166.032C111.974 165.866 111.761 165.642 111.608 165.377C111.456 165.113 111.368 164.816 111.352 164.511V157.028C111.363 156.722 111.452 156.425 111.608 156.163L114.353 157.744C114.193 158.005 114.105 158.304 114.096 158.61V166.093C114.096 166.573 114.38 166.81 114.772 166.695Z" fill="#E0E0E0"/>
<path d="M138.778 158.346C138.669 157.981 138.331 157.866 137.933 158.103L114.949 171.352C114.688 171.523 114.475 171.755 114.327 172.028L111.582 170.447C111.728 170.172 111.942 169.939 112.204 169.771L135.188 156.514C135.461 156.377 135.762 156.306 136.067 156.306C136.372 156.306 136.673 156.377 136.946 156.514L137.933 157.089C138.151 157.231 138.338 157.415 138.483 157.631C138.628 157.847 138.729 158.09 138.778 158.346Z" fill="#EBEBEB"/>
<path d="M138.81 158.61V166.093C138.795 166.406 138.706 166.711 138.548 166.982C138.39 167.253 138.169 167.481 137.904 167.648L114.92 180.898L114.758 180.979H114.717C114.325 181.094 114.041 180.857 114.041 180.377V172.873C114.05 172.568 114.138 172.269 114.298 172.008C114.446 171.735 114.66 171.502 114.92 171.332L137.904 158.083C138.303 157.846 138.641 157.961 138.749 158.326C138.753 158.348 138.753 158.371 138.749 158.394C138.777 158.463 138.797 158.536 138.81 158.61Z" fill="#FAFAFA"/>
<path d="M114.772 180.958C114.665 180.999 114.554 181.028 114.441 181.046C114.097 181.109 113.742 181.079 113.413 180.958L113.217 180.864L112.23 180.296C111.974 180.13 111.761 179.905 111.608 179.641C111.456 179.377 111.368 179.08 111.352 178.775V171.292C111.363 170.986 111.452 170.689 111.608 170.426L114.353 172.008C114.193 172.269 114.105 172.567 114.096 172.873V180.357C114.096 180.837 114.38 181.073 114.772 180.958Z" fill="#E0E0E0"/>
<path d="M138.778 172.617C138.669 172.252 138.331 172.137 137.933 172.373L114.949 185.623C114.688 185.793 114.475 186.025 114.327 186.299L111.582 184.717C111.728 184.442 111.942 184.209 112.204 184.041L135.188 170.785C135.461 170.648 135.762 170.577 136.067 170.577C136.372 170.577 136.673 170.648 136.946 170.785L137.933 171.359C138.151 171.501 138.338 171.686 138.483 171.902C138.628 172.118 138.729 172.361 138.778 172.617Z" fill="#EBEBEB"/>
<path d="M138.81 172.88V180.364C138.793 180.668 138.705 180.965 138.553 181.229C138.4 181.493 138.187 181.718 137.931 181.885L114.947 195.134L114.785 195.215H114.744C114.352 195.33 114.068 195.094 114.068 194.614V187.144C114.077 186.838 114.165 186.54 114.325 186.279C114.473 186.005 114.687 185.773 114.947 185.603L137.904 172.38C138.303 172.143 138.641 172.258 138.749 172.623C138.753 172.646 138.753 172.669 138.749 172.691C138.776 172.752 138.796 172.815 138.81 172.88Z" fill="#FAFAFA"/>
<path d="M114.772 195.229C114.665 195.269 114.554 195.299 114.441 195.317C114.097 195.38 113.742 195.349 113.413 195.229L113.217 195.134L112.23 194.566C111.974 194.4 111.761 194.176 111.608 193.911C111.456 193.647 111.368 193.35 111.352 193.045V185.562C111.363 185.257 111.452 184.959 111.608 184.697L114.353 186.279C114.193 186.54 114.105 186.838 114.096 187.144V194.627C114.096 195.107 114.38 195.364 114.772 195.229Z" fill="#E0E0E0"/>
<path d="M138.778 186.887C138.669 186.522 138.331 186.407 137.933 186.644L114.949 199.893C114.688 200.064 114.475 200.296 114.327 200.569L111.582 198.988C111.728 198.713 111.942 198.48 112.204 198.312L135.188 185.055C135.461 184.918 135.762 184.847 136.067 184.847C136.372 184.847 136.673 184.918 136.946 185.055L137.933 185.63C138.151 185.772 138.338 185.956 138.483 186.172C138.628 186.388 138.729 186.631 138.778 186.887Z" fill="#EBEBEB"/>
<path d="M138.81 187.151V194.634C138.793 194.939 138.705 195.235 138.553 195.5C138.4 195.764 138.187 195.989 137.931 196.155L114.947 209.405L114.785 209.486H114.744C114.352 209.601 114.068 209.364 114.068 208.884V201.448C114.077 201.142 114.165 200.844 114.325 200.583C114.473 200.309 114.687 200.077 114.947 199.907L137.931 186.657C138.33 186.421 138.668 186.536 138.776 186.901C138.78 186.923 138.78 186.946 138.776 186.968C138.793 187.028 138.804 187.089 138.81 187.151Z" fill="#FAFAFA"/>
<path d="M114.772 209.499C114.665 209.539 114.554 209.569 114.441 209.587C114.097 209.65 113.742 209.619 113.413 209.499L113.217 209.404L112.23 208.836C111.974 208.67 111.761 208.446 111.608 208.181C111.456 207.917 111.368 207.62 111.352 207.315V199.832C111.363 199.527 111.452 199.229 111.608 198.967L114.353 200.549C114.193 200.81 114.105 201.108 114.096 201.414V208.884C114.096 209.377 114.38 209.614 114.772 209.499Z" fill="#E0E0E0"/>
<path d="M141.189 132.232C141.218 132.224 141.248 132.224 141.277 132.232L138.81 130.813V130.049C138.816 129.984 138.816 129.918 138.81 129.853C138.814 129.83 138.814 129.807 138.81 129.785C138.761 129.529 138.661 129.286 138.516 129.07C138.37 128.854 138.183 128.67 137.965 128.528L136.978 127.953C136.705 127.816 136.404 127.745 136.099 127.745C135.794 127.745 135.493 127.816 135.22 127.953L112.236 141.209C111.98 141.376 111.768 141.601 111.615 141.865C111.462 142.129 111.374 142.426 111.357 142.73V150.214C111.373 150.519 111.461 150.816 111.614 151.08C111.767 151.344 111.98 151.569 112.236 151.735L113.223 152.303L113.419 152.397C113.748 152.518 114.103 152.548 114.447 152.485C114.56 152.467 114.671 152.438 114.778 152.397H114.819L114.981 152.316L137.965 139.067C138.221 138.9 138.433 138.676 138.586 138.411C138.739 138.147 138.827 137.85 138.844 137.546V135.403L141.352 132.509C141.375 132.483 141.39 132.449 141.393 132.414C141.397 132.378 141.389 132.343 141.371 132.312C141.353 132.281 141.326 132.257 141.293 132.243C141.26 132.228 141.224 132.225 141.189 132.232Z" fill="#44A2C6"/>
<path opacity="0.1" d="M114.772 152.425C114.665 152.465 114.554 152.494 114.441 152.513C114.097 152.575 113.742 152.545 113.413 152.425L113.217 152.33L112.217 151.762C111.961 151.596 111.747 151.372 111.595 151.107C111.442 150.843 111.354 150.546 111.338 150.241V142.758C111.35 142.452 111.438 142.155 111.595 141.893L114.339 143.474C114.18 143.735 114.091 144.034 114.082 144.34V151.823C114.096 152.303 114.38 152.54 114.772 152.425Z" fill="black"/>
<path opacity="0.4" d="M138.778 129.792C138.669 129.427 138.331 129.312 137.933 129.549L114.949 142.798C114.688 142.968 114.475 143.201 114.327 143.474L111.582 141.892C111.728 141.617 111.942 141.385 112.204 141.216L135.188 127.96C135.461 127.823 135.762 127.752 136.067 127.752C136.372 127.752 136.673 127.823 136.946 127.96L137.933 128.535C138.151 128.676 138.338 128.861 138.483 129.077C138.628 129.293 138.729 129.536 138.778 129.792Z" fill="white"/>
<path opacity="0.4" d="M141.19 132.232H138.811V130.84L141.278 132.259C141.252 132.242 141.221 132.233 141.19 132.232Z" fill="white"/>
<path d="M67.1881 253.04L71.9201 250.336C71.9201 250.336 74.1983 237.803 72.4947 227.034C70.1017 211.892 59.7927 206.667 56.0477 208.167C52.3026 209.668 51.4238 214.163 58.1838 222.911C62.1925 228.075 67.3166 238.986 67.1881 253.04Z" fill="#44A2C6"/>
<g opacity="0.1">
<path opacity="0.1" d="M67.1881 253.04L71.9201 250.336C71.9201 250.336 74.1983 237.803 72.4947 227.034C70.1017 211.892 59.7927 206.667 56.0477 208.167C52.3026 209.668 51.4238 214.163 58.1838 222.911C62.1925 228.075 67.3166 238.986 67.1881 253.04Z" fill="black"/>
</g>
<path d="M68.9052 247.03H68.8579C68.7704 247.017 68.6917 246.97 68.6386 246.899C68.5855 246.828 68.5623 246.74 68.574 246.652C70.5344 232.456 64.8289 216.942 58.434 210.682C58.4023 210.651 58.3771 210.613 58.36 210.572C58.3428 210.531 58.334 210.487 58.334 210.442C58.334 210.397 58.3428 210.353 58.36 210.312C58.3771 210.271 58.4023 210.233 58.434 210.202C58.4648 210.17 58.5016 210.145 58.5422 210.128C58.5829 210.111 58.6265 210.103 58.6706 210.103C58.7146 210.103 58.7583 210.111 58.7989 210.128C58.8395 210.145 58.8763 210.17 58.9072 210.202C65.4306 216.577 71.2442 232.361 69.2567 246.753C69.2407 246.834 69.1965 246.906 69.1321 246.957C69.0676 247.007 68.9872 247.034 68.9052 247.03Z" fill="white"/>
<path d="M54.0327 260.645C53.2891 261.071 51.741 260.132 51.1529 259.733C50.1412 259.05 49.3219 258.119 48.7734 257.029C48.1544 255.773 47.9463 254.354 48.1785 252.973C48.297 252.25 48.4664 251.536 48.6855 250.837C48.8883 250.161 49.0843 249.451 49.2804 248.761C49.5245 248.091 49.628 247.378 49.5846 246.666C49.4088 245.246 48.1447 244.252 47.0023 243.394C45.7314 242.441 44.4132 241.19 44.4199 239.48C44.5172 238.153 45.0467 236.894 45.9274 235.897C46.7454 234.863 47.7121 233.95 48.4557 232.855C49.0462 232.099 49.361 231.164 49.348 230.205C49.2702 229.619 49.0722 229.055 48.7666 228.549C48.0741 227.487 47.466 226.373 46.9482 225.216C46.5358 224.02 46.5967 222.512 47.5295 221.681C47.9463 221.369 48.4209 221.143 48.9258 221.017C49.4306 220.89 49.9556 220.865 50.4702 220.944C51.4299 221.07 52.3516 221.4 53.1742 221.91C55.8782 223.418 57.4397 226.642 60.3195 227.792C61.4609 228.15 62.6237 228.437 63.8009 228.65C64.3918 228.758 64.9535 228.989 65.4495 229.328C65.9456 229.667 66.365 230.106 66.6806 230.617C67.7352 232.726 65.7748 235.349 66.5184 237.573C67.1944 239.554 69.1007 240.318 70.1823 242.103C70.6284 242.89 70.8064 243.801 70.6893 244.698C70.5979 246.218 70.2266 247.708 69.5942 249.092C68.8913 250.466 68.0869 251.786 67.1876 253.04C67.1403 253.088 54.1476 260.578 54.0327 260.645Z" fill="#44A2C6"/>
<path d="M61.7314 256.542C61.687 256.54 61.6434 256.53 61.6031 256.511C61.5627 256.492 61.5265 256.466 61.4963 256.433C61.4662 256.401 61.4428 256.362 61.4274 256.321C61.4121 256.279 61.4052 256.235 61.407 256.19C61.9613 242.772 55.6407 227.954 51.0439 223.648C50.982 223.584 50.9473 223.499 50.9473 223.411C50.9473 223.323 50.982 223.238 51.0439 223.174C51.1082 223.112 51.1943 223.077 51.2839 223.077C51.3735 223.077 51.4595 223.112 51.5238 223.174C56.2153 227.568 62.6643 242.63 62.1032 256.238C62.099 256.282 62.086 256.325 62.065 256.365C62.044 256.404 62.0154 256.439 61.9808 256.467C61.9462 256.495 61.9064 256.517 61.8636 256.529C61.8208 256.542 61.7759 256.546 61.7314 256.542Z" fill="white"/>
<path d="M59.7172 240.69C59.686 240.697 59.6537 240.697 59.6226 240.69C56.4415 239.818 53.1755 239.292 49.8814 239.121C49.837 239.12 49.7934 239.109 49.753 239.091C49.7127 239.072 49.6764 239.046 49.6463 239.013C49.6161 238.98 49.5927 238.942 49.5774 238.9C49.5621 238.859 49.5551 238.814 49.5569 238.77C49.5577 238.725 49.5676 238.681 49.5859 238.64C49.6042 238.6 49.6306 238.563 49.6634 238.533C49.6963 238.502 49.7349 238.479 49.777 238.464C49.8191 238.449 49.8638 238.443 49.9084 238.445C53.2599 238.621 56.5826 239.158 59.8186 240.048C59.9082 240.061 59.9889 240.11 60.0428 240.182C60.0966 240.255 60.1194 240.347 60.1059 240.436C60.0925 240.526 60.044 240.607 59.9711 240.66C59.8982 240.714 59.8068 240.737 59.7172 240.724V240.69Z" fill="white"/>
<path d="M110.398 225.919C110.36 225.518 110.214 225.134 109.976 224.808C109.738 224.482 109.417 224.226 109.046 224.067C108.051 223.561 106.951 223.297 105.835 223.297C104.719 223.297 103.619 223.561 102.624 224.067C102.254 224.227 101.933 224.483 101.695 224.809C101.458 225.135 101.311 225.518 101.272 225.919L99.4738 273.152C99.4062 274.132 100.021 275.125 101.319 275.856C102.71 276.562 104.248 276.93 105.808 276.93C107.368 276.93 108.906 276.562 110.297 275.856C111.594 275.105 112.203 274.111 112.142 273.152L110.398 225.919Z" fill="#44A2C6"/>
<path opacity="0.15" d="M102.651 224.067C100.879 225.088 100.879 226.771 102.651 227.772C103.645 228.278 104.746 228.542 105.862 228.542C106.978 228.542 108.078 228.278 109.073 227.772C110.844 226.751 110.844 225.068 109.073 224.067C108.078 223.561 106.978 223.297 105.862 223.297C104.746 223.297 103.645 223.561 102.651 224.067Z" fill="black"/>
<path d="M107.802 210.858C107.201 210.552 106.536 210.392 105.862 210.392C105.187 210.392 104.522 210.552 103.922 210.858C103.7 210.955 103.508 211.11 103.367 211.306C103.226 211.502 103.139 211.733 103.117 211.974V225.92C103.138 226.162 103.224 226.394 103.365 226.591C103.507 226.789 103.699 226.944 103.922 227.042C104.523 227.345 105.188 227.503 105.862 227.503C106.536 227.503 107.2 227.345 107.802 227.042C108.024 226.944 108.217 226.789 108.358 226.591C108.5 226.394 108.585 226.162 108.606 225.92V211.974C108.584 211.733 108.498 211.502 108.357 211.306C108.215 211.11 108.023 210.955 107.802 210.858Z" fill="#263238"/>
<path d="M136.417 176.7C136.417 176.423 136.417 176.152 136.377 175.882C136.336 175.611 136.343 175.348 136.316 175.084C136.289 174.821 136.282 174.733 136.262 174.557C136.215 174.097 136.147 173.644 136.073 173.205C136.073 173.009 136.005 172.806 135.965 172.61C135.924 172.414 135.89 172.238 135.85 172.056C135.735 171.556 135.613 171.069 135.471 170.602C135.397 170.379 135.329 170.156 135.255 169.926C135.24 169.894 135.229 169.86 135.221 169.825C135.14 169.609 135.065 169.399 134.984 169.196C134.903 168.993 134.795 168.723 134.687 168.52C134.579 168.317 134.538 168.189 134.45 168.027C134.401 167.905 134.343 167.788 134.275 167.675C134.21 167.531 134.135 167.391 134.051 167.256C134.051 167.256 134.018 167.189 133.997 167.162C133.977 167.134 133.855 166.918 133.781 166.796C133.707 166.675 133.68 166.641 133.632 166.567C133.286 166.021 132.897 165.503 132.47 165.019L132.253 164.775L132.071 164.586L131.834 164.349C131.622 164.126 131.396 163.916 131.158 163.721C131.043 163.619 130.922 163.525 130.8 163.437L130.428 163.166C130.235 163.025 130.034 162.894 129.826 162.774L129.664 162.673H129.63L120.052 157.143H119.997C118.16 156.118 116.085 155.594 113.981 155.622C110.844 155.622 107.302 156.65 103.55 158.813C90.6658 166.249 80.2148 184.352 80.2148 199.238C80.2148 206.674 82.8107 211.879 86.9748 214.326H87.0154L96.6011 219.849H96.6416L96.7566 219.91C96.9363 220.016 97.1213 220.113 97.3109 220.2C97.5407 220.315 97.7773 220.417 97.9869 220.511C98.1964 220.606 98.4128 220.68 98.6629 220.748L99.0076 220.849C99.1284 220.896 99.2527 220.932 99.3794 220.958C99.504 220.995 99.6303 221.027 99.758 221.052C99.8489 221.079 99.9415 221.099 100.035 221.113C100.197 221.147 100.373 221.181 100.542 221.201C100.58 221.207 100.619 221.207 100.657 221.201L101.265 221.282C104.747 221.647 108.783 220.667 113.109 218.172C126 210.736 136.451 192.626 136.451 177.748C136.438 177.403 136.431 177.051 136.417 176.7ZM120.788 166.175C121.29 168.025 121.535 169.936 121.518 171.853C121.518 184.981 111.912 201.597 100.562 208.181C98.9033 209.167 97.1119 209.912 95.2423 210.392C94.7389 208.539 94.491 206.626 94.5055 204.707C94.5055 191.579 104.111 174.963 115.461 168.378C117.123 167.393 118.916 166.65 120.788 166.175Z" fill="#44A2C6"/>
<path opacity="0.1" d="M96.2697 219.633L86.9612 214.292C82.7632 211.838 80.2012 206.62 80.2012 199.211C80.2012 192.572 82.2833 185.299 85.7241 178.62L95.3098 184.149C91.8622 190.828 89.7869 198.102 89.7869 204.74C89.7531 211.967 92.2272 217.118 96.2697 219.633Z" fill="black"/>
<path opacity="0.4" d="M136.417 176.7C136.417 176.423 136.417 176.153 136.376 175.882C136.335 175.612 136.342 175.348 136.315 175.084C136.288 174.821 136.281 174.733 136.261 174.557C136.214 174.097 136.146 173.645 136.072 173.205C136.072 173.009 136.004 172.806 135.964 172.61C135.923 172.414 135.889 172.238 135.849 172.056C135.734 171.556 135.612 171.069 135.47 170.603C135.396 170.379 135.328 170.156 135.254 169.927C135.24 169.894 135.228 169.86 135.22 169.825C135.139 169.609 135.065 169.399 134.983 169.196C134.902 168.994 134.794 168.723 134.686 168.52C134.578 168.318 134.537 168.189 134.449 168.027C134.4 167.905 134.342 167.788 134.274 167.675C134.209 167.531 134.134 167.391 134.051 167.256C134.051 167.256 134.017 167.189 133.996 167.162C133.976 167.135 133.854 166.918 133.78 166.797C133.706 166.675 133.679 166.641 133.631 166.567C133.285 166.021 132.896 165.504 132.469 165.019L132.252 164.775L132.07 164.586L131.833 164.35C131.621 164.126 131.395 163.916 131.157 163.721C131.042 163.619 130.921 163.525 130.799 163.437L130.427 163.167C130.234 163.025 130.033 162.894 129.826 162.774C125.587 160.199 119.686 160.503 113.122 164.282C100.23 171.718 89.7793 189.821 89.7793 204.707C89.7793 212.244 92.4833 217.51 96.7759 219.903C96.9557 220.009 97.1407 220.106 97.3302 220.194C97.5601 220.309 97.7967 220.41 98.0062 220.505C98.2158 220.6 98.4321 220.674 98.6822 220.741L99.027 220.843C99.1477 220.889 99.2721 220.925 99.3988 220.951C99.5233 220.989 99.6496 221.021 99.7773 221.046C99.8682 221.072 99.9608 221.093 100.054 221.107C100.217 221.14 100.392 221.174 100.561 221.194C100.6 221.201 100.638 221.201 100.676 221.194L101.285 221.276C104.766 221.641 108.802 220.66 113.128 218.166C126.02 210.73 136.471 192.62 136.471 177.741C136.437 177.403 136.43 177.052 136.417 176.7ZM110.729 214.09C107.835 215.759 105.05 216.638 102.671 216.638C98.2023 216.638 96.1472 213.589 95.2346 210.392C94.7312 208.539 94.4833 206.627 94.4978 204.707C94.4978 191.579 104.104 174.963 115.454 168.379C117.115 167.393 118.909 166.651 120.781 166.175C121.665 165.955 122.573 165.839 123.485 165.83C130.873 165.83 131.664 174.172 131.664 177.761C131.698 190.889 122.099 207.532 110.729 214.09Z" fill="white"/>
<path opacity="0.1" d="M131.698 177.788C131.698 190.916 122.099 207.532 110.742 214.117C107.849 215.786 105.064 216.665 102.684 216.665C98.2157 216.665 96.1606 213.616 95.248 210.419C97.1176 209.939 98.909 209.195 100.568 208.208C111.938 201.644 121.524 185.008 121.524 171.88C121.541 169.963 121.295 168.052 120.794 166.202C121.679 165.982 122.586 165.866 123.498 165.857C130.907 165.83 131.698 174.172 131.698 177.788Z" fill="black"/>
<path opacity="0.7" d="M127.616 175.469C127.616 188.597 118.017 205.213 106.66 211.798C103.767 213.467 100.981 214.346 98.602 214.346C98.1286 214.347 97.656 214.309 97.1891 214.231C96.2756 213.103 95.61 211.794 95.2355 210.392C94.7321 208.539 94.4842 206.626 94.4986 204.706C94.4986 191.578 104.105 174.962 115.455 168.378C117.116 167.392 118.91 166.65 120.782 166.174C121.666 165.954 122.574 165.838 123.486 165.83C123.961 165.828 124.436 165.867 124.905 165.945C127.271 168.696 127.616 173.11 127.616 175.469Z" fill="white"/>
<path opacity="0.1" d="M104.538 228.42L103.328 276.64C102.655 276.472 102.007 276.215 101.401 275.876C100.103 275.125 99.4882 274.132 99.5558 273.172L101.354 225.946C101.393 226.348 101.54 226.731 101.777 227.057C102.015 227.383 102.336 227.639 102.706 227.799C103.278 228.105 103.897 228.315 104.538 228.42Z" fill="black"/>
<path d="M283.764 181.087C283.764 180.566 282.757 175.003 282.088 171.934L275.578 173.962L276.734 179.66L282.223 184.061C283.92 183.689 283.805 181.607 283.764 181.087Z" fill="#FFA8A7"/>
<path d="M266.757 153.208H268.143C270.714 153.205 273.179 152.182 274.996 150.363C276.813 148.544 277.835 146.079 277.837 143.508C277.835 140.753 276.74 138.112 274.791 136.165C272.843 134.218 270.201 133.125 267.447 133.125C264.692 133.125 262.051 134.218 260.102 136.165C258.154 138.112 257.058 140.753 257.057 143.508C257.057 146.081 258.079 148.548 259.898 150.367C261.717 152.186 264.184 153.208 266.757 153.208Z" fill="#263238"/>
<path d="M252.283 169.412L249.207 175.05L253.993 179.153L258.38 172.204L252.283 169.412Z" fill="#F28F8F"/>
<path d="M263.83 156.832C260.781 156.866 257.421 157.974 256.265 160.368C255.11 162.761 251.473 170.217 251.473 170.217C251.473 170.217 254.177 174.165 258.449 173.888L263.83 156.832Z" fill="#44A2C6"/>
<g opacity="0.1">
<path opacity="0.1" d="M263.83 156.832C260.781 156.866 257.421 157.974 256.265 160.368C255.11 162.761 251.473 170.217 251.473 170.217C251.473 170.217 254.177 174.165 258.449 173.888L263.83 156.832Z" fill="black"/>
</g>
<path d="M274.125 257.103V256.427C273.861 257.211 272.637 260.584 270.785 262.274C269.311 263.626 267.304 265.168 266.79 266.662C266.276 268.156 269.589 268.744 270.968 268.5C272.804 268.19 274.488 267.285 275.76 265.925C276.551 264.958 277.058 263.802 277.619 263.038C278.181 262.274 279.492 261.416 279.796 260.53C279.888 259.705 279.796 258.869 279.526 258.083C279.309 257.258 279.08 256.346 278.796 256.427V256.934C278.131 257.459 277.304 257.739 276.457 257.725C275.808 257.759 274.118 257.623 274.125 257.103Z" fill="#263238"/>
<path d="M269.453 263.457C269.912 263.052 270.372 262.653 270.805 262.274C272.05 260.963 273.019 259.416 273.657 257.725C273.977 256.944 274.142 256.108 274.144 255.264V252.607H278.815V256.934V257.049C278.592 258.022 276.449 260.605 275.232 262.288C274.415 263.417 272.866 264.85 271.014 265.1C269.162 265.35 268.31 264.789 269.453 263.457Z" fill="#FFA8A7"/>
<path d="M256.771 252.594V251.918C256.507 252.702 255.284 256.069 253.432 257.759C251.958 259.111 249.95 260.659 249.436 262.153C248.923 263.647 252.235 264.235 253.607 263.991C255.446 263.682 257.133 262.777 258.407 261.416C259.198 260.449 259.698 259.293 260.266 258.529C260.834 257.766 262.132 256.907 262.443 256.021C262.532 255.196 262.439 254.361 262.172 253.574C261.956 252.75 261.719 251.837 261.442 251.918V252.425C260.776 252.949 259.951 253.228 259.103 253.216C258.42 253.257 256.764 253.121 256.771 252.594Z" fill="#263238"/>
<path d="M252.1 258.955L253.452 257.772C254.695 256.461 255.663 254.914 256.298 253.223C256.622 252.443 256.79 251.607 256.791 250.762V248.092H261.462V252.425V252.547C261.239 253.52 259.096 256.102 257.88 257.786C257.062 258.915 255.514 260.348 253.655 260.598C251.856 260.841 250.957 260.26 252.1 258.955Z" fill="#FFA8A7"/>
<path d="M277.835 184.548C281.459 192.457 277.707 220.315 277.707 220.315C277.815 221.599 279.282 224.121 279.83 229.779C280.506 236.458 278.816 253.209 278.816 253.209C278.102 253.625 277.298 253.859 276.473 253.892C275.648 253.925 274.828 253.756 274.084 253.398C274.084 253.398 269.635 228.163 268.797 221.525C268.067 215.739 266.661 202.131 266.661 202.131L262.679 221.498C263.301 223.723 263.671 226.011 263.781 228.319C263.876 232.24 261.496 249.437 261.496 249.437C261.037 250.316 257.555 250.525 256.643 249.437C256.643 249.437 254.615 225.297 254.175 220.599C253.932 217.794 257.129 183.419 257.129 183.419L277.835 184.548Z" fill="#37474F"/>
<path d="M266.702 202.124L265.532 195.655C265.532 195.655 260.557 194.627 258.299 192.504C259.857 194.329 261.894 195.682 264.18 196.412L265.498 202.07L263.193 219.186L266.702 202.124Z" fill="#263238"/>
<path d="M271.482 157.055C272.813 157.378 274.055 157.995 275.115 158.862C276.175 159.729 277.026 160.824 277.607 162.064C278.459 163.953 278.539 166.1 277.83 168.047L274.592 177.403C274.592 177.403 276.106 181.066 277.864 184.521C269.752 189.057 259.612 186.67 257.171 183.365C257.07 182.689 257.212 179.505 257.016 175.929C256.806 172.096 256.279 167.763 256.881 165.39C257.996 160.989 260.098 156.859 264.269 156.859L271.482 157.055Z" fill="#44A2C6"/>
<path d="M271.482 157.055C274.247 157.447 278.56 157.994 280.466 164.727C282.325 171.291 282.758 173.576 282.758 173.576C282.758 173.576 280.487 176.226 275.89 176.199L274.457 171.143L271.482 157.055Z" fill="#44A2C6"/>
<path d="M260.935 138.384C259.84 139.026 258.482 141.764 258.617 147.577C258.732 152.478 260.32 153.661 261.118 154.04C261.916 154.419 263.457 154.175 264.951 153.925V156.866C264.951 156.866 262.882 159.272 263.011 160.617C263.139 161.963 265.999 162.287 267.932 160.969C269.187 160.065 270.264 158.938 271.109 157.643V150.531C271.266 150.725 271.46 150.885 271.68 151.003C271.899 151.12 272.14 151.193 272.388 151.216C272.636 151.239 272.887 151.213 273.124 151.138C273.362 151.064 273.582 150.943 273.773 150.782C275.422 149.687 275.483 146.969 274.523 145.996C273.563 145.022 271.495 145.32 271.109 146.672C269.145 146.59 267.233 146.018 265.546 145.009C264.311 144.344 263.25 143.398 262.449 142.247C261.648 141.096 261.129 139.773 260.935 138.384Z" fill="#FFA8A7"/>
<path d="M264.1 146.34C264.093 146.423 264.102 146.507 264.127 146.586C264.153 146.665 264.194 146.738 264.248 146.801C264.302 146.864 264.369 146.916 264.443 146.953C264.517 146.99 264.599 147.011 264.681 147.016C264.809 147.028 264.937 147.002 265.049 146.941C265.162 146.879 265.253 146.786 265.312 146.672C265.371 146.558 265.394 146.429 265.379 146.302C265.364 146.175 265.312 146.055 265.228 145.958C265.145 145.861 265.034 145.791 264.911 145.758C264.787 145.724 264.656 145.728 264.535 145.769C264.414 145.81 264.308 145.886 264.23 145.988C264.153 146.09 264.107 146.213 264.1 146.34Z" fill="#263238"/>
<path d="M263.931 150.498L262.498 150.957C262.525 151.052 262.571 151.141 262.633 151.219C262.694 151.296 262.771 151.361 262.858 151.408C262.944 151.456 263.04 151.486 263.138 151.497C263.236 151.508 263.336 151.499 263.431 151.471C263.625 151.406 263.786 151.268 263.879 151.086C263.972 150.904 263.991 150.693 263.931 150.498Z" fill="#F28F8F"/>
<path d="M259.043 144.447L260.26 143.582C260.207 143.499 260.138 143.427 260.057 143.371C259.976 143.315 259.884 143.276 259.787 143.256C259.691 143.237 259.591 143.237 259.494 143.257C259.398 143.277 259.306 143.316 259.225 143.372C259.063 143.494 258.953 143.673 258.919 143.873C258.885 144.073 258.93 144.279 259.043 144.447Z" fill="#263238"/>
<path d="M259.326 145.894C259.324 146.015 259.357 146.134 259.422 146.237C259.487 146.339 259.58 146.421 259.69 146.471C259.8 146.521 259.923 146.538 260.043 146.52C260.162 146.501 260.274 146.448 260.364 146.367C260.454 146.286 260.519 146.181 260.55 146.064C260.58 145.946 260.576 145.823 260.538 145.708C260.499 145.593 260.428 145.492 260.333 145.417C260.238 145.342 260.123 145.296 260.002 145.286C259.918 145.28 259.833 145.292 259.753 145.319C259.673 145.347 259.599 145.391 259.536 145.447C259.473 145.504 259.422 145.573 259.386 145.649C259.35 145.726 259.33 145.809 259.326 145.894Z" fill="#263238"/>
<path d="M262.241 145.542L262.139 149.254L260.186 148.652L262.241 145.542Z" fill="#F28F8F"/>
<path d="M264.992 153.925C266.567 153.715 269.812 152.789 270.319 151.505C270.116 152.153 269.72 152.724 269.183 153.141C268.21 153.972 264.992 154.905 264.992 154.905V153.925Z" fill="#F28F8F"/>
<path opacity="0.1" d="M275.579 174.55C274.957 172.867 274.427 171.152 273.99 169.412C273.99 169.412 274.247 173.232 275.342 175.287L275.579 174.55Z" fill="black"/>
<path d="M239.148 169.067L257.049 173.779L262.335 195.999L245.314 191.051L239.148 169.067Z" fill="#E0E0E0"/>
<g opacity="0.1">
<path opacity="0.1" d="M246.957 183.764C246.788 184.217 245.808 185.481 243.726 185.379L243.469 184.46L246.957 183.764Z" fill="black"/>
</g>
<g opacity="0.1">
<path opacity="0.1" d="M250.959 184.46C251.033 185.055 252.25 186.15 254.339 186.833C256.678 187.617 260.274 187.205 260.274 187.205L259.95 186.096L250.959 184.46Z" fill="black"/>
</g>
<g opacity="0.1">
<path opacity="0.1" d="M244.393 172.285L244.245 171.609C244.164 171.231 245.211 171.21 246.59 171.569L249.227 172.245C250.579 172.603 251.789 173.198 251.87 173.597L252.019 174.273L244.393 172.285Z" fill="black"/>
</g>
<path d="M243.151 169.71C243.097 169.473 243.523 169.412 244.104 169.568L245.145 169.858C245.145 169.858 244.834 168.378 247.173 168.899C247.793 168.989 248.379 169.238 248.874 169.622C249.37 170.005 249.757 170.511 249.999 171.089L251.114 171.406C251.73 171.582 252.284 171.913 252.358 172.15L252.493 172.576L243.266 170.142C243.266 170.142 243.205 169.946 243.151 169.71Z" fill="#37474F"/>
<path d="M244.42 170.447C245.265 170.649 245.617 170.757 245.739 171.339C245.86 171.92 245.941 172.495 245.941 172.495L249.997 173.57C249.997 173.57 249.801 172.731 249.741 172.4C249.68 172.069 249.815 171.88 250.464 172.049L250.518 171.792L244.123 170.163L244.42 170.447Z" fill="#37474F"/>
<path d="M244.28 172.38L244.131 171.704C244.05 171.325 245.105 171.312 246.477 171.67L249.113 172.346C250.465 172.704 251.675 173.299 251.757 173.698L251.905 174.374L244.28 172.38Z" fill="#37474F"/>
<path d="M282.224 184.027L276.735 179.626C276.735 179.626 264.621 181.783 263.215 181.898C262.461 181.919 261.718 181.712 261.085 181.303C260.451 180.893 259.957 180.302 259.666 179.606C259.125 178.207 258.165 178.383 258.165 178.383C258.165 178.383 258.591 180.154 258.719 180.715C258.848 181.276 255.441 181.749 253.548 181.107C251.655 180.465 248.917 181.398 250.614 183.973C252.311 186.549 255.617 186.853 257.908 186.853C258.867 186.846 259.824 186.781 260.774 186.657C261.518 186.562 262.255 186.488 262.999 186.434C267.697 186.102 280.088 184.696 282.224 184.027Z" fill="#FFA8A7"/>
<path d="M240.975 175.564C240.975 175.564 241.617 177.849 241.765 178.396C241.914 178.944 244.003 179.931 245.314 180.289C246.626 180.647 248.073 181.08 247.451 182.919C246.876 184.615 244.713 185.007 243.604 184.947C242.496 184.886 240.995 183.845 240.4 182.141C239.643 179.978 240.048 177.666 239.724 176.395C239.399 175.124 240.312 174.807 240.975 175.564Z" fill="#FFA8A7"/>
<path d="M283.528 161.003C281.801 161.001 280.144 160.314 278.922 159.092C277.701 157.87 277.014 156.214 277.012 154.486V139.188C278.739 139.19 280.396 139.877 281.618 141.099C282.839 142.32 283.527 143.977 283.528 145.705V161.003Z" fill="#263238"/>
<path d="M276.801 139.723L279.505 138.276C279.42 138.095 279.299 137.934 279.149 137.802C279 137.669 278.825 137.568 278.636 137.505C278.446 137.442 278.246 137.418 278.047 137.434C277.848 137.45 277.654 137.507 277.477 137.6C277.113 137.798 276.839 138.13 276.713 138.525C276.587 138.921 276.618 139.35 276.801 139.723Z" fill="#263238"/>
<path d="M99.5681 75.0361L94.924 77.7401C94.9505 77.5361 94.964 77.3306 94.9645 77.1249V75.7729C94.9645 73.3798 93.288 72.3929 91.2127 73.6097C90.3228 74.1541 89.5616 74.8852 88.9819 75.7526C88.6372 72.7512 86.2779 71.629 83.4117 73.2852C80.3156 75.0699 77.8009 79.4233 77.8009 82.9993V85.0273C77.7817 85.8289 77.9459 86.6243 78.2808 87.3528L74.4276 89.5768C73.8234 89.9679 73.3192 90.4951 72.9553 91.1161C72.5914 91.737 72.378 92.4346 72.332 93.1529C72.332 94.5049 73.2649 95.0119 74.4141 94.3494L99.5546 79.8356C100.16 79.4408 100.663 78.9087 101.024 78.2826C101.384 77.6565 101.592 76.9541 101.63 76.2326C101.643 74.9076 100.724 74.3601 99.5681 75.0361Z" fill="#EBEBEB"/>
</svg>
