<svg width="284" height="284" viewBox="0 0 284 284" fill="none" xmlns="http://www.w3.org/2000/svg">
<path d="M231.363 226.541C181.708 255.066 101.206 255.066 51.5513 226.541C1.89673 198.016 1.90241 151.775 51.5513 123.256C101.2 94.7369 181.714 94.7369 231.363 123.256C281.012 151.775 281.018 198.022 231.363 226.541Z" fill="#FAFAFA"/>
<path d="M155.962 174.898C145.528 168.878 128.613 168.878 118.179 174.898C109.335 180.01 107.994 187.798 114.14 193.728C113.793 193.818 113.459 193.954 113.146 194.131L80.2023 213.159C78.805 213.965 78.805 215.278 80.2023 216.084L82.2698 217.277C83.0458 217.671 83.9083 217.865 84.7785 217.84C85.6487 217.815 86.4988 217.573 87.2511 217.135L117.923 197.045C118.049 196.963 118.166 196.869 118.275 196.766C128.715 202.736 145.539 202.719 155.956 196.715C166.374 190.712 166.425 180.925 155.962 174.898Z" fill="#E6E6E6"/>
<path d="M229.301 152.991L187.315 177.284C186.791 177.55 186.212 177.688 185.625 177.688C185.038 177.688 184.459 177.55 183.935 177.284L110.896 135.11C109.964 134.576 109.964 133.701 110.896 133.162L152.882 108.868C153.406 108.602 153.985 108.464 154.572 108.464C155.16 108.464 155.738 108.602 156.262 108.868L229.301 151.042C230.233 151.576 230.233 152.451 229.301 152.991Z" fill="#E6E6E6"/>
<path d="M42.3334 198.936L31.1041 192.45C29.7466 191.666 29.7466 190.394 31.1041 189.61L109.244 144.493C110.006 144.107 110.849 143.905 111.703 143.905C112.558 143.905 113.401 144.107 114.163 144.493L125.398 150.98C126.755 151.764 126.755 153.036 125.398 153.82L47.2523 198.936C46.4901 199.323 45.6475 199.525 44.7929 199.525C43.9382 199.525 43.0956 199.323 42.3334 198.936Z" fill="#E6E6E6"/>
<path d="M229.415 211.83C240.874 211.83 250.164 206.754 250.164 200.493C250.164 194.231 240.874 189.155 229.415 189.155C217.956 189.155 208.666 194.231 208.666 200.493C208.666 206.754 217.956 211.83 229.415 211.83Z" fill="#E6E6E6"/>
<path d="M238.496 189.235C238.695 186.719 240.933 181.658 243.807 178.602C246.681 175.546 250.969 173.49 253.804 174.723C256.445 175.859 255.866 179.409 252.378 181.499C248.89 183.589 243.71 186.162 241.932 190.121L238.496 194.881V189.235Z" fill="#44A2C6"/>
<path opacity="0.1" d="M238.496 189.235C238.695 186.719 240.933 181.658 243.807 178.602C246.681 175.546 250.969 173.49 253.804 174.723C256.445 175.859 255.866 179.409 252.378 181.499C248.89 183.589 243.71 186.162 241.932 190.121L238.496 194.881V189.235Z" fill="black"/>
<path d="M238.031 192.66C238.072 192.66 238.112 192.647 238.145 192.622C238.178 192.598 238.202 192.563 238.213 192.524C240.587 184.077 248.09 177.659 252.367 176.455C252.41 176.437 252.444 176.404 252.464 176.363C252.483 176.322 252.487 176.275 252.475 176.231C252.462 176.187 252.434 176.149 252.395 176.124C252.357 176.099 252.31 176.09 252.265 176.097C247.909 177.33 240.263 183.85 237.855 192.427C237.848 192.451 237.846 192.475 237.849 192.499C237.852 192.524 237.86 192.547 237.872 192.568C237.884 192.59 237.9 192.608 237.92 192.623C237.939 192.638 237.962 192.648 237.986 192.654L238.031 192.66Z" fill="white"/>
<path d="M238.871 198.232C239.388 196.852 241.302 194.659 244.25 192.955C247.51 191.075 251.498 190.411 252.531 188.82C253.775 186.917 252.247 184.901 249.038 185.037C245.829 185.174 239.91 189.053 238.496 195.5L238.871 198.232Z" fill="#44A2C6"/>
<path d="M238.377 196.721C238.412 196.722 238.447 196.712 238.476 196.693C238.505 196.673 238.528 196.646 238.542 196.614C241.768 189.474 247.584 187.344 250.208 187.213C250.257 187.213 250.303 187.194 250.337 187.16C250.371 187.126 250.39 187.08 250.39 187.031C250.39 186.983 250.371 186.937 250.337 186.903C250.303 186.869 250.257 186.85 250.208 186.85C247.306 186.992 241.518 189.173 238.224 196.46C238.213 196.482 238.208 196.507 238.207 196.531C238.206 196.556 238.211 196.58 238.22 196.603C238.229 196.626 238.242 196.646 238.26 196.664C238.277 196.681 238.297 196.695 238.32 196.704C238.338 196.714 238.357 196.719 238.377 196.721Z" fill="white"/>
<path d="M32.0285 175.211C32.0285 175.211 31.4605 169.991 28.8363 165.935C26.2122 161.88 22.6678 159.358 19.3394 159.091C16.0109 158.824 13.3242 161.891 16.8856 163.999C20.447 166.106 26.7745 168.247 29.6883 176.114L32.0285 175.211Z" fill="#44A2C6"/>
<path opacity="0.1" d="M32.0285 175.211C32.0285 175.211 31.4605 169.991 28.8363 165.935C26.2122 161.88 22.6678 159.358 19.3394 159.091C16.0109 158.824 13.3242 161.891 16.8856 163.999C20.447 166.106 26.7745 168.247 29.6883 176.114L32.0285 175.211Z" fill="black"/>
<path d="M31.0522 173.853H31.0863C31.1081 173.845 31.128 173.832 31.1447 173.815C31.1614 173.799 31.1747 173.779 31.1837 173.757C31.1927 173.736 31.1972 173.712 31.1971 173.689C31.197 173.665 31.1921 173.642 31.1829 173.621C27.6726 164.964 20.9589 161.352 17.9371 160.647C17.8928 160.643 17.8484 160.655 17.8122 160.681C17.776 160.706 17.7506 160.745 17.7408 160.788C17.731 160.832 17.7375 160.877 17.759 160.916C17.7805 160.955 17.8156 160.985 17.8576 161C20.8396 161.681 27.3943 165.237 30.8534 173.751C30.8704 173.788 30.8992 173.818 30.9353 173.837C30.9713 173.855 31.0124 173.861 31.0522 173.853Z" fill="white"/>
<path d="M15.0797 173.808C15.4035 174.535 16.2157 174.91 16.9257 175.205C17.6929 175.413 18.3699 175.868 18.8512 176.5C19.6521 177.881 18.34 179.823 19.1977 181.164C19.3989 181.435 19.6542 181.662 19.9474 181.831C20.2407 181.999 20.5656 182.104 20.9017 182.141C21.4516 182.22 22.0052 182.272 22.5603 182.294C22.8244 182.288 23.088 182.267 23.3498 182.232C24.1133 182.06 24.9122 182.146 25.6218 182.476C26.718 183.089 27.0532 184.475 27.7177 185.543C28.1309 186.173 28.6752 186.706 29.3134 187.106C29.9516 187.506 30.6686 187.763 31.4154 187.86C32.0514 187.989 32.7101 187.946 33.3239 187.735L33.4318 187.667C33.501 187.594 33.5655 187.516 33.6249 187.434V187.4C33.818 186.685 33.5 185.941 33.4886 185.202V185.066C33.4886 184.208 33.5454 183.362 33.5624 182.499C33.6003 180.919 33.6155 179.34 33.6079 177.761C33.6079 176.739 33.7215 175.614 33.2898 174.649C32.807 173.587 31.6142 173.564 31.1655 172.519C30.9837 172.104 30.8872 171.661 30.7111 171.241C30.4405 170.626 30.0059 170.097 29.4549 169.712C28.9039 169.327 28.2578 169.102 27.5871 169.06C25.4968 168.952 23.6111 170.639 21.5436 170.485C21.0066 170.413 20.4739 170.313 19.9475 170.184C18.2435 169.866 16.3066 170.349 15.358 171.775C15.1488 172.065 15.014 172.402 14.9655 172.757C14.917 173.111 14.9562 173.472 15.0797 173.808Z" fill="#44A2C6"/>
<path d="M33.818 184.123C33.8408 184.117 33.8623 184.107 33.8811 184.094C33.9 184.08 33.9157 184.062 33.9275 184.042C33.9392 184.022 33.9466 183.999 33.9493 183.976C33.952 183.953 33.9498 183.929 33.943 183.907C31.0746 173.092 19.6862 171.536 17.0393 171.723C17.0162 171.725 16.9935 171.731 16.9727 171.741C16.9519 171.751 16.9333 171.765 16.918 171.783C16.9027 171.8 16.891 171.82 16.8835 171.842C16.8761 171.864 16.873 171.887 16.8746 171.911C16.8714 171.934 16.8732 171.958 16.88 171.981C16.8867 172.004 16.8983 172.026 16.9138 172.044C16.9293 172.062 16.9486 172.077 16.9702 172.087C16.9918 172.097 17.0154 172.103 17.0393 172.104C19.6464 171.916 30.7906 173.444 33.6079 184.032C33.6263 184.069 33.6576 184.099 33.6961 184.116C33.7347 184.133 33.7779 184.135 33.818 184.123Z" fill="white"/>
<path d="M21.1626 178.647C21.1993 178.641 21.233 178.623 21.2592 178.596C22.3106 177.685 23.5501 177.017 24.8893 176.64C26.2285 176.263 27.6344 176.186 29.0067 176.415C29.0538 176.42 29.1012 176.407 29.1391 176.379C29.1771 176.35 29.2028 176.308 29.2112 176.262C29.2143 176.239 29.2129 176.215 29.2069 176.192C29.2009 176.17 29.1904 176.149 29.1761 176.13C29.1619 176.112 29.144 176.096 29.1237 176.085C29.1034 176.073 29.081 176.066 29.0578 176.063C27.6313 175.829 26.1708 175.913 24.7805 176.309C23.3903 176.704 22.1045 177.402 21.0149 178.352C20.9984 178.368 20.9853 178.388 20.9764 178.409C20.9675 178.431 20.9629 178.454 20.9629 178.477C20.9629 178.5 20.9675 178.523 20.9764 178.545C20.9853 178.566 20.9984 178.586 21.0149 178.602C21.0349 178.62 21.0584 178.633 21.0839 178.641C21.1093 178.648 21.1362 178.651 21.1626 178.647Z" fill="white"/>
<path d="M227.769 145.124L187.202 168.599C186.695 168.854 186.136 168.987 185.569 168.987C185.002 168.987 184.443 168.854 183.936 168.599L113.334 127.845C112.43 127.328 112.43 126.482 113.334 125.965L153.929 102.484C154.434 102.229 154.993 102.097 155.559 102.097C156.125 102.097 156.683 102.229 157.189 102.484L227.769 143.238C228.643 143.761 228.643 144.601 227.769 145.124Z" fill="#37474F"/>
<path d="M206.065 155.887C205.361 156.245 204.583 156.431 203.793 156.431C203.004 156.431 202.225 156.245 201.521 155.887C200.272 155.166 200.272 153.996 201.521 153.274C202.224 152.914 203.003 152.726 203.793 152.726C204.583 152.726 205.362 152.914 206.065 153.274C207.32 153.996 207.32 155.166 206.065 155.887Z" fill="#263238"/>
<path d="M187.174 168.599L227.769 145.124C228.576 144.658 228.661 143.931 228.025 143.42C228.428 143.739 228.76 144.14 228.997 144.596C229.235 145.052 229.374 145.553 229.405 146.067V147.6C229.376 148.169 229.212 148.723 228.928 149.217C228.644 149.711 228.247 150.13 227.769 150.44L187.202 173.916C186.701 174.183 186.14 174.318 185.572 174.308V169.008C186.132 169.008 186.683 168.868 187.174 168.599Z" fill="#455A64"/>
<path d="M113.333 133.15C112.857 132.839 112.461 132.419 112.177 131.926C111.894 131.432 111.732 130.879 111.703 130.31V128.777C111.733 128.262 111.871 127.76 112.109 127.303C112.347 126.845 112.679 126.444 113.083 126.124C112.447 126.647 112.515 127.368 113.333 127.828L183.907 168.582C184.41 168.85 184.973 168.985 185.543 168.974V174.273C184.973 174.284 184.41 174.149 183.907 173.881L113.333 133.15Z" fill="#263238"/>
<path d="M180.396 163.68L218.662 141.528C218.783 141.49 218.888 141.414 218.962 141.312C219.037 141.21 219.077 141.087 219.077 140.96C219.077 140.834 219.037 140.711 218.962 140.609C218.888 140.506 218.783 140.431 218.662 140.392L162.101 107.675C161.798 107.521 161.464 107.441 161.124 107.441C160.784 107.441 160.45 107.521 160.147 107.675L121.864 129.827C121.743 129.866 121.638 129.942 121.564 130.044C121.489 130.146 121.449 130.269 121.449 130.395C121.449 130.522 121.489 130.645 121.564 130.747C121.638 130.849 121.743 130.925 121.864 130.963L178.437 163.68C178.74 163.834 179.076 163.915 179.416 163.915C179.757 163.915 180.093 163.834 180.396 163.68Z" fill="#FAFAFA"/>
<path d="M127.8 130.833L146.078 141.432C146.459 141.625 146.881 141.726 147.308 141.726C147.735 141.726 148.156 141.625 148.538 141.432L180.686 122.875C180.835 122.825 180.964 122.729 181.055 122.602C181.146 122.475 181.195 122.322 181.195 122.165C181.195 122.009 181.146 121.856 181.055 121.729C180.964 121.601 180.835 121.506 180.686 121.455L162.385 110.879C162.004 110.686 161.583 110.585 161.156 110.585C160.728 110.585 160.307 110.686 159.926 110.879L127.8 129.413C127.651 129.463 127.523 129.559 127.431 129.686C127.34 129.814 127.291 129.966 127.291 130.123C127.291 130.28 127.34 130.432 127.431 130.56C127.523 130.687 127.651 130.783 127.8 130.833Z" fill="#EBEBEB"/>
<path d="M141.222 125.784L145.914 126.698C146.207 126.759 146.512 126.731 146.789 126.619L150.765 124.915C151.395 124.642 152.293 124.915 152.281 125.363L152.219 128.203C152.219 128.385 152.367 128.555 152.622 128.663L156.666 130.316C157.308 130.578 157.155 131.151 156.399 131.288L151.657 132.145C151.532 132.157 151.412 132.196 151.304 132.258C151.197 132.321 151.104 132.407 151.032 132.509L149.561 135.241C149.322 135.672 148.328 135.763 147.857 135.394L145.017 133.06C144.789 132.896 144.513 132.813 144.233 132.827L139.274 132.861C138.485 132.861 138.03 132.35 138.502 131.986L141.467 129.714C141.509 129.69 141.546 129.658 141.576 129.619C141.606 129.581 141.627 129.537 141.64 129.49C141.653 129.443 141.656 129.394 141.65 129.346C141.643 129.297 141.627 129.251 141.603 129.209L140.013 126.499C139.763 126.045 140.473 125.636 141.222 125.784Z" fill="#FAFAFA"/>
<path d="M151.656 119.797L161.721 113.986C161.919 113.87 162.141 113.801 162.37 113.785C162.598 113.769 162.828 113.807 163.039 113.895C163.357 114.083 163.283 114.424 162.88 114.656L152.821 120.467C152.623 120.582 152.401 120.65 152.173 120.665C151.944 120.681 151.715 120.644 151.503 120.558C151.185 120.371 151.259 120.03 151.656 119.797Z" fill="#FAFAFA"/>
<path d="M154.201 121.262L164.26 115.452C164.458 115.335 164.68 115.266 164.908 115.251C165.137 115.235 165.366 115.272 165.578 115.361C165.896 115.548 165.828 115.889 165.419 116.122L155.36 121.932C155.162 122.047 154.94 122.115 154.711 122.131C154.483 122.147 154.254 122.11 154.042 122.023C153.718 121.836 153.792 121.495 154.201 121.262Z" fill="#FAFAFA"/>
<path d="M156.734 122.728L166.793 116.917C166.99 116.799 167.212 116.73 167.441 116.714C167.67 116.698 167.899 116.737 168.111 116.826C168.434 117.013 168.361 117.354 167.952 117.587L157.904 123.398C157.706 123.513 157.484 123.58 157.255 123.596C157.027 123.612 156.798 123.575 156.586 123.489C156.256 123.301 156.325 122.96 156.734 122.728Z" fill="#FAFAFA"/>
<path d="M159.267 124.187L169.332 118.382C169.528 118.265 169.749 118.195 169.977 118.179C170.205 118.163 170.434 118.202 170.644 118.291C170.968 118.473 170.894 118.814 170.491 119.052L160.426 124.857C160.229 124.975 160.007 125.045 159.778 125.06C159.549 125.076 159.319 125.038 159.108 124.948C158.79 124.767 158.864 124.426 159.267 124.187Z" fill="#FAFAFA"/>
<path d="M161.805 125.653L171.865 119.848C172.062 119.73 172.284 119.66 172.513 119.645C172.742 119.629 172.971 119.667 173.183 119.757C173.501 119.938 173.432 120.279 173.023 120.518L162.964 126.323C162.767 126.44 162.545 126.51 162.316 126.526C162.087 126.542 161.858 126.503 161.646 126.414C161.311 126.232 161.397 125.891 161.805 125.653Z" fill="#FAFAFA"/>
<path d="M164.339 127.118L174.376 121.313C174.573 121.196 174.795 121.126 175.024 121.11C175.253 121.095 175.482 121.133 175.694 121.223C176.012 121.404 175.944 121.745 175.535 121.984L165.498 127.8C165.301 127.918 165.079 127.987 164.85 128.003C164.621 128.019 164.392 127.98 164.18 127.891C163.862 127.698 163.93 127.357 164.339 127.118Z" fill="#FAFAFA"/>
<path d="M150.356 143.874L151.185 144.357C151.414 144.472 151.667 144.532 151.923 144.532C152.18 144.532 152.432 144.472 152.662 144.357L171.974 133.219C172.383 132.98 172.383 132.599 171.974 132.367L171.139 131.884C170.909 131.769 170.657 131.709 170.4 131.709C170.144 131.709 169.891 131.769 169.662 131.884L150.35 143.022C150.26 143.052 150.183 143.11 150.128 143.187C150.073 143.264 150.044 143.356 150.045 143.45C150.046 143.545 150.076 143.636 150.132 143.713C150.187 143.789 150.266 143.845 150.356 143.874Z" fill="#E0E0E0"/>
<path d="M184.964 123.892L185.794 124.375C186.203 124.608 186.203 124.988 185.794 125.227L178.041 129.703C177.811 129.818 177.559 129.877 177.302 129.877C177.046 129.877 176.793 129.818 176.564 129.703L175.734 129.22C175.325 128.987 175.325 128.606 175.734 128.368L183.465 123.892C183.697 123.773 183.954 123.711 184.215 123.711C184.475 123.711 184.732 123.773 184.964 123.892Z" fill="#E0E0E0"/>
<path d="M155.485 146.822L173.809 157.392C174.19 157.586 174.611 157.686 175.038 157.686C175.466 157.686 175.887 157.586 176.268 157.392L208.417 138.836C208.565 138.785 208.694 138.69 208.785 138.563C208.877 138.435 208.926 138.282 208.926 138.126C208.926 137.969 208.877 137.816 208.785 137.689C208.694 137.562 208.565 137.466 208.417 137.416L190.116 126.84C189.735 126.647 189.314 126.546 188.886 126.546C188.459 126.546 188.038 126.647 187.657 126.84L155.485 145.408C155.339 145.459 155.212 145.555 155.122 145.682C155.033 145.808 154.984 145.96 154.984 146.115C154.984 146.27 155.033 146.421 155.122 146.548C155.212 146.675 155.339 146.77 155.485 146.822Z" fill="#EBEBEB"/>
<path d="M168.923 141.767L173.62 142.687C173.913 142.748 174.218 142.72 174.495 142.607L178.471 140.903C179.107 140.631 180.005 140.903 179.993 141.346L179.931 144.186C179.931 144.368 180.073 144.539 180.329 144.641L184.378 146.294C185.02 146.561 184.861 147.134 184.111 147.271L179.374 148.117C179.25 148.13 179.131 148.17 179.023 148.232C178.915 148.295 178.822 148.379 178.749 148.481L177.278 151.213C177.045 151.644 176.051 151.735 175.574 151.366L172.734 149.032C172.505 148.867 172.227 148.785 171.945 148.799L166.986 148.833C166.202 148.833 165.742 148.322 166.214 147.958L169.179 145.686C169.263 145.636 169.324 145.556 169.351 145.462C169.377 145.368 169.366 145.267 169.321 145.18L167.725 142.471C167.469 142.034 168.179 141.625 168.923 141.767Z" fill="#FAFAFA"/>
<path d="M179.368 135.786L189.428 129.975C189.625 129.859 189.847 129.79 190.076 129.774C190.304 129.759 190.534 129.796 190.745 129.885C191.069 130.072 190.995 130.413 190.586 130.646L180.527 136.456C180.329 136.571 180.107 136.639 179.879 136.655C179.65 136.67 179.421 136.634 179.209 136.547C178.92 136.36 178.959 136.019 179.368 135.786Z" fill="#FAFAFA"/>
<path d="M181.903 137.251L191.985 131.441C192.182 131.324 192.404 131.256 192.633 131.24C192.861 131.224 193.091 131.262 193.302 131.35C193.62 131.537 193.547 131.878 193.143 132.111L183.078 137.922C182.882 138.04 182.66 138.11 182.432 138.128C182.203 138.146 181.973 138.11 181.761 138.024C181.425 137.825 181.499 137.484 181.903 137.251Z" fill="#FAFAFA"/>
<path d="M184.441 138.711L194.501 132.912C194.698 132.794 194.92 132.724 195.149 132.709C195.378 132.693 195.607 132.731 195.818 132.821C196.136 133.002 196.068 133.343 195.659 133.582L185.6 139.387C185.402 139.501 185.18 139.569 184.952 139.585C184.723 139.601 184.494 139.564 184.282 139.478C183.958 139.29 184.032 138.949 184.441 138.711Z" fill="#FAFAFA"/>
<path d="M186.974 140.176L197.033 134.372C197.23 134.254 197.452 134.184 197.681 134.168C197.91 134.153 198.14 134.191 198.351 134.281C198.675 134.462 198.601 134.803 198.192 135.042L188.133 140.864C187.936 140.981 187.714 141.051 187.485 141.067C187.256 141.083 187.026 141.044 186.815 140.955C186.497 140.756 186.565 140.415 186.974 140.176Z" fill="#FAFAFA"/>
<path d="M189.507 141.642L199.572 135.837C199.768 135.719 199.989 135.65 200.218 135.634C200.446 135.618 200.674 135.656 200.884 135.746C201.208 135.928 201.134 136.268 200.731 136.507L190.666 142.312C190.469 142.43 190.247 142.499 190.018 142.515C189.789 142.531 189.56 142.492 189.348 142.403C189.03 142.221 189.104 141.88 189.507 141.642Z" fill="#FAFAFA"/>
<path d="M192.047 143.136L202.106 137.331C202.303 137.213 202.525 137.144 202.754 137.128C202.983 137.112 203.212 137.151 203.424 137.24C203.742 137.422 203.674 137.763 203.265 138.001L193.205 143.806C193.008 143.924 192.786 143.993 192.557 144.009C192.328 144.025 192.099 143.987 191.888 143.897C191.564 143.704 191.638 143.346 192.047 143.136Z" fill="#FAFAFA"/>
<path d="M178.058 159.864L178.893 160.346C179.122 160.461 179.375 160.521 179.631 160.521C179.887 160.521 180.14 160.461 180.369 160.346L199.681 149.208C199.771 149.178 199.849 149.121 199.904 149.045C199.96 148.968 199.989 148.876 199.989 148.782C199.989 148.687 199.96 148.596 199.904 148.519C199.849 148.443 199.771 148.385 199.681 148.356L198.847 147.873C198.617 147.758 198.365 147.698 198.108 147.698C197.852 147.698 197.599 147.758 197.37 147.873L178.058 159.012C177.968 159.041 177.89 159.098 177.835 159.175C177.78 159.251 177.75 159.343 177.75 159.438C177.75 159.532 177.78 159.624 177.835 159.7C177.89 159.777 177.968 159.834 178.058 159.864Z" fill="#E0E0E0"/>
<path d="M212.665 139.881L213.5 140.364C213.909 140.597 213.909 140.977 213.5 141.216L205.746 145.692C205.517 145.807 205.264 145.867 205.008 145.867C204.752 145.867 204.499 145.807 204.27 145.692L203.435 145.209C203.345 145.179 203.267 145.122 203.212 145.046C203.157 144.969 203.127 144.877 203.127 144.783C203.127 144.689 203.157 144.597 203.212 144.52C203.267 144.444 203.345 144.387 203.435 144.357L211.194 139.881C211.422 139.766 211.674 139.707 211.929 139.707C212.185 139.707 212.437 139.766 212.665 139.881Z" fill="#E0E0E0"/>
<path d="M137.047 115.98C136.891 116.056 136.72 116.096 136.547 116.096C136.373 116.096 136.202 116.056 136.047 115.98C135.988 115.959 135.937 115.921 135.901 115.87C135.865 115.819 135.846 115.758 135.846 115.696C135.846 115.633 135.865 115.573 135.901 115.522C135.937 115.471 135.988 115.432 136.047 115.412C136.202 115.336 136.373 115.296 136.547 115.296C136.72 115.296 136.891 115.336 137.047 115.412C137.325 115.565 137.325 115.821 137.047 115.98Z" fill="#263238"/>
<path d="M135.451 120.518C135.141 120.675 134.799 120.756 134.452 120.756C134.104 120.756 133.762 120.675 133.452 120.518C133.339 120.472 133.243 120.393 133.175 120.292C133.107 120.191 133.07 120.072 133.07 119.95C133.07 119.828 133.107 119.709 133.175 119.608C133.243 119.507 133.339 119.428 133.452 119.382C133.762 119.225 134.104 119.144 134.452 119.144C134.799 119.144 135.141 119.225 135.451 119.382C135.564 119.428 135.661 119.507 135.729 119.608C135.797 119.709 135.833 119.828 135.833 119.95C135.833 120.072 135.797 120.191 135.729 120.292C135.661 120.393 135.564 120.472 135.451 120.518Z" fill="#263238"/>
<path d="M136.888 118.507C136.519 118.291 136.542 117.939 136.934 117.712L143.511 113.912C143.725 113.803 143.961 113.746 144.201 113.746C144.441 113.746 144.678 113.803 144.891 113.912C145.255 114.122 145.238 114.48 144.846 114.707L138.269 118.502C138.055 118.61 137.819 118.668 137.579 118.669C137.339 118.67 137.103 118.614 136.888 118.507Z" fill="#263238"/>
<path d="M120.934 62.9401V64.2749L116.322 66.9388L109.404 70.9148L48.3325 106.216C47.9707 106.443 47.6718 106.758 47.4635 107.131C47.2391 107.497 47.1138 107.916 47.1 108.346V189.513C47.1 193.927 43.9987 195.716 40.1817 193.489C36.3648 191.263 33.2578 185.918 33.2578 181.504V100.332C33.2814 99.9046 33.4054 99.4893 33.6195 99.1192C33.8337 98.7492 34.132 98.4348 34.4904 98.2016L102.474 58.9471L109.057 55.1528C109.277 55.5231 109.399 55.9435 109.41 56.374V57.6123L36.7965 99.6443C36.4557 99.8558 36.1727 100.149 35.9729 100.496C35.7246 100.878 35.5851 101.319 35.5696 101.774V182.834C35.5696 185.776 37.6371 189.349 40.1874 190.82C42.7377 192.291 44.7996 191.098 44.7996 188.156V106.989C44.8193 106.563 44.9392 106.149 45.1494 105.779C45.3597 105.409 45.6543 105.093 46.0094 104.859L120.576 61.8041C120.791 62.146 120.914 62.5371 120.934 62.9401Z" fill="#E0E0E0"/>
<path d="M114.01 59.0324V62.9403L43.7368 103.53C43.3757 103.759 43.0738 104.071 42.8557 104.439C42.6376 104.807 42.5094 105.221 42.4815 105.648V186.815C42.4815 188.286 41.4534 188.883 40.1811 188.144C39.5111 187.71 38.9531 187.123 38.5524 186.432C38.1517 185.742 37.9196 184.966 37.875 184.168V102.996C37.8896 102.567 38.0127 102.149 38.2328 101.78C38.4446 101.41 38.7427 101.096 39.1019 100.866L113.663 57.8169C113.879 58.1865 113.998 58.6045 114.01 59.0324Z" fill="#E0E0E0"/>
<path d="M49.7633 108.442C49.5425 108.808 49.4193 109.225 49.4055 109.652V190.121C49.4067 190.706 49.3687 191.29 49.2919 191.87C49.2692 192.022 49.2465 192.169 49.2237 192.313C49.2237 192.449 49.1726 192.58 49.1442 192.716C49.1158 192.853 49.0874 192.955 49.0533 193.069C49.0193 193.182 48.9965 193.29 48.9624 193.398C48.5862 194.78 47.7016 195.969 46.486 196.727C44.8331 197.675 42.6179 197.562 40.1812 196.159C35.0692 193.216 30.9512 185.741 30.9512 179.471V98.9965C30.965 98.5692 31.0882 98.1527 31.309 97.7866L33.6208 99.1157C33.3963 99.4826 33.2711 99.9014 33.2573 100.331V181.498C33.2573 185.912 36.3585 191.279 40.1812 193.483C44.0038 195.687 47.0994 193.904 47.0994 189.507V108.323C47.1132 107.893 47.2385 107.474 47.4629 107.108L49.7633 108.442Z" fill="#EBEBEB"/>
<path d="M45.1503 105.779C44.9303 106.145 44.8071 106.561 44.7925 106.989V188.156C44.7925 191.098 42.725 192.291 40.1803 190.82C37.6357 189.349 35.5625 185.776 35.5625 182.834V101.752C35.5781 101.297 35.7175 100.855 35.9658 100.474L38.2378 101.78C38.0177 102.148 37.8946 102.567 37.8799 102.996V184.163C37.9246 184.96 38.1567 185.736 38.5574 186.427C38.9581 187.117 39.516 187.704 40.186 188.139C41.4583 188.877 42.4864 188.281 42.4864 186.81V105.648C42.5003 105.218 42.6255 104.799 42.8499 104.433L45.1503 105.779Z" fill="#EBEBEB"/>
<path d="M109.056 55.1527L102.485 58.947L34.4894 98.2015C34.1263 98.4269 33.8271 98.7418 33.6204 99.1159L31.3086 97.7868C31.5151 97.4111 31.8143 97.0943 32.1776 96.8666L100.167 57.6122L101.479 56.8511L102.808 56.1013L103.944 55.4424L104.62 55.0505L105.876 54.3291C106.242 54.1345 106.648 54.0289 107.063 54.021C107.478 54.0131 107.888 54.1031 108.261 54.2837C108.597 54.4994 108.871 54.7989 109.056 55.1527Z" fill="#FAFAFA"/>
<path d="M125.195 64.4736L118.623 68.2678L107.087 74.9248L50.6389 107.522C50.2752 107.751 49.9745 108.068 49.7642 108.442L47.4922 107.108C47.6956 106.746 47.9841 106.44 48.3328 106.216L109.399 70.9374L116.317 66.9614L120.929 64.2975L122.002 63.6784L122.122 63.6159C122.476 63.4461 122.865 63.3579 123.258 63.3579C123.651 63.3579 124.039 63.4461 124.394 63.6159L124.513 63.6898C124.794 63.8988 125.027 64.1662 125.195 64.4736Z" fill="#FAFAFA"/>
<path d="M113.663 57.8166L39.102 100.865C38.7428 101.096 38.4447 101.409 38.2329 101.78L35.9609 100.473C36.1608 100.126 36.4438 99.8329 36.7845 99.6214L109.398 57.5894L110.465 56.9702C110.832 56.7756 111.238 56.67 111.653 56.6621C112.067 56.6542 112.478 56.7442 112.851 56.9248C113.195 57.1462 113.475 57.4536 113.663 57.8166Z" fill="#FAFAFA"/>
<path d="M120.593 61.8042L46.0089 104.859C45.644 105.086 45.3429 105.403 45.1342 105.779L42.8281 104.444C43.0459 104.065 43.3592 103.75 43.7369 103.53L114.033 62.9402L117.441 60.9863C117.807 60.7925 118.214 60.6879 118.629 60.681C119.043 60.6741 119.453 60.7651 119.826 60.9466C120.151 61.1619 120.415 61.4573 120.593 61.8042Z" fill="#FAFAFA"/>
<path d="M125.53 65.695V146.164C125.53 149.464 124.394 151.775 122.559 152.798L46.3789 196.784C47.0533 196.378 47.6383 195.84 48.0982 195.201C48.5581 194.563 48.8833 193.837 49.0542 193.069C49.0883 192.955 49.1167 192.836 49.1451 192.717C49.1735 192.598 49.1962 192.45 49.2246 192.314C49.253 192.177 49.27 192.024 49.2927 191.871C49.3696 191.291 49.4075 190.706 49.4063 190.121V109.653C49.4202 109.225 49.5434 108.809 49.7642 108.443C49.9745 108.068 50.2752 107.752 50.6389 107.523L107.087 74.9307L118.623 68.2737L125.195 64.4795C125.409 64.8493 125.524 65.2678 125.53 65.695Z" fill="#F5F5F5"/>
<path d="M57.5626 108.857L68.9226 102.286C69.6042 101.894 70.1495 102.206 70.1495 102.996V118.803C70.1274 119.23 70.0048 119.645 69.7915 120.015C69.5783 120.385 69.2806 120.7 68.9226 120.933L57.5626 127.505C56.881 127.897 56.3301 127.579 56.3301 126.795V110.987C56.3533 110.56 56.477 110.145 56.6912 109.775C56.9054 109.404 57.204 109.09 57.5626 108.857Z" fill="#455A64"/>
<path d="M56.3301 133.542L118.628 97.5767V100.241L56.3301 136.206V133.542Z" fill="#44A2C6"/>
<path opacity="0.4" d="M56.3301 133.542L118.628 97.5767V100.241L56.3301 136.206V133.542Z" fill="white"/>
<path d="M57.0685 141.108L69.4395 133.969C69.8428 133.73 70.1722 133.923 70.1722 134.395V159.33C70.159 159.585 70.0858 159.834 69.9585 160.056C69.8312 160.278 69.6534 160.467 69.4395 160.608L57.0685 167.748C56.6595 167.986 56.3301 167.793 56.3301 167.322V142.386C56.3435 142.13 56.4174 141.881 56.5458 141.659C56.6741 141.437 56.8532 141.248 57.0685 141.108Z" fill="#F0F0F0"/>
<path d="M57.0685 170.4L69.4395 163.255C69.8428 163.022 70.1722 163.215 70.1722 163.681V183.197L56.3301 191.206V171.695C56.3408 171.436 56.4135 171.183 56.542 170.958C56.6704 170.733 56.851 170.541 57.0685 170.4Z" fill="#F0F0F0"/>
<path d="M73.2208 131.776L85.5862 124.636C85.9951 124.403 86.3246 124.591 86.3246 125.062V158.006C86.3107 158.262 86.2366 158.511 86.1083 158.733C85.98 158.955 85.8011 159.144 85.5862 159.284L73.2208 166.424C72.8119 166.657 72.4824 166.469 72.4824 165.998V133.054C72.4972 132.798 72.5717 132.549 72.6999 132.327C72.8281 132.105 73.0065 131.916 73.2208 131.776Z" fill="#F0F0F0"/>
<path d="M89.3693 122.461L101.735 115.304C102.144 115.065 102.473 115.259 102.473 115.73V140.665C102.46 140.921 102.386 141.171 102.257 141.393C102.129 141.615 101.95 141.804 101.735 141.943L89.3693 149.1C88.9603 149.339 88.6309 149.145 88.6309 148.674V123.739C88.6443 123.483 88.7182 123.233 88.8465 123.011C88.9749 122.789 89.154 122.6 89.3693 122.461Z" fill="#F0F0F0"/>
<path d="M105.524 113.134L117.889 105.994C118.298 105.756 118.627 105.949 118.627 106.42V139.364C118.613 139.62 118.538 139.869 118.41 140.091C118.282 140.313 118.103 140.502 117.889 140.642L105.524 147.782C105.115 148.015 104.785 147.828 104.785 147.356V114.412C104.799 114.156 104.872 113.907 105.001 113.685C105.129 113.462 105.308 113.274 105.524 113.134Z" fill="#F0F0F0"/>
<path d="M73.2208 169.082L85.5862 161.942C85.9951 161.704 86.3246 161.897 86.3246 162.368V173.887L72.4824 181.885V170.36C72.4958 170.104 72.5698 169.854 72.6981 169.632C72.8264 169.41 73.0056 169.222 73.2208 169.082Z" fill="#F0F0F0"/>
<path d="M88.6094 153.042V172.559L102.452 164.567V145.05C102.452 144.579 102.122 144.391 101.713 144.624L89.3478 151.764C89.1328 151.904 88.954 152.093 88.8257 152.315C88.6973 152.537 88.6232 152.786 88.6094 153.042Z" fill="#F0F0F0"/>
<path d="M105.518 150.435L117.889 143.295C118.298 143.056 118.627 143.249 118.627 143.721V155.24L104.785 163.232V151.713C104.798 151.457 104.872 151.208 104.999 150.986C105.126 150.764 105.304 150.575 105.518 150.435Z" fill="#F0F0F0"/>
<path d="M75.545 170.4L83.2982 165.924C83.7072 165.686 84.0366 165.879 84.0366 166.35V172.672C84.0232 172.928 83.9493 173.178 83.821 173.4C83.6926 173.622 83.5135 173.81 83.2982 173.95L75.545 178.414C75.1361 178.647 74.8066 178.46 74.8066 177.988V171.701C74.8165 171.441 74.8887 171.187 75.0172 170.96C75.1457 170.734 75.3268 170.542 75.545 170.4Z" fill="#E0E0E0"/>
<path d="M107.83 151.775L115.583 147.299C115.987 147.061 116.322 147.254 116.322 147.725V154.013C116.307 154.269 116.232 154.517 116.104 154.739C115.976 154.961 115.797 155.15 115.583 155.291L107.83 159.767C107.421 160 107.092 159.812 107.092 159.341V153.053C107.105 152.797 107.179 152.547 107.307 152.325C107.436 152.103 107.615 151.915 107.83 151.775Z" fill="#E0E0E0"/>
<path d="M59.3732 142.443L67.1264 137.962C67.5353 137.729 67.8648 137.922 67.8648 138.388V144.681C67.85 144.937 67.7755 145.186 67.6473 145.408C67.5191 145.63 67.3407 145.819 67.1264 145.959L59.3732 150.435C58.9699 150.668 58.6348 150.48 58.6348 150.009V143.704C58.6512 143.451 58.7266 143.205 58.8548 142.986C58.983 142.767 59.1605 142.581 59.3732 142.443Z" fill="#E0E0E0"/>
<path d="M59.1289 151.906L67.3763 147.146C67.6489 146.993 67.8648 147.118 67.8648 147.43V147.629C67.8561 147.799 67.8073 147.965 67.7225 148.113C67.6376 148.261 67.519 148.387 67.3763 148.481L59.1289 153.241C58.8563 153.4 58.6348 153.241 58.6348 152.957V152.758C58.6445 152.587 58.6943 152.421 58.7802 152.273C58.866 152.125 58.9855 151.999 59.1289 151.906Z" fill="#E0E0E0"/>
<path d="M59.1289 154.57L67.3763 149.81C67.6489 149.657 67.8648 149.782 67.8648 150.094V150.293C67.8561 150.463 67.8073 150.629 67.7225 150.777C67.6376 150.925 67.519 151.051 67.3763 151.145L59.1289 155.905C58.8563 156.064 58.6348 155.905 58.6348 155.621V155.422C58.6445 155.251 58.6943 155.085 58.7802 154.937C58.866 154.789 58.9855 154.663 59.1289 154.57Z" fill="#E0E0E0"/>
<path d="M59.1289 157.233L67.3763 152.474C67.6489 152.32 67.8648 152.445 67.8648 152.758V152.956C67.8561 153.127 67.8073 153.293 67.7225 153.441C67.6376 153.589 67.519 153.715 67.3763 153.808L59.1289 158.568C58.8563 158.727 58.6348 158.597 58.6348 158.284V158.085C58.6445 157.915 58.6943 157.749 58.7802 157.6C58.866 157.452 58.9855 157.327 59.1289 157.233Z" fill="#E0E0E0"/>
<path d="M59.1289 159.898L67.3763 155.138C67.6489 154.984 67.8648 155.109 67.8648 155.422V155.632C67.8561 155.802 67.8073 155.968 67.7225 156.116C67.6376 156.264 67.519 156.39 67.3763 156.484L59.1289 161.244C58.8563 161.403 58.6348 161.272 58.6348 160.96V160.744C58.6454 160.574 58.6956 160.409 58.7814 160.262C58.8672 160.115 58.9862 159.99 59.1289 159.898Z" fill="#E0E0E0"/>
<path d="M59.1289 162.562L67.3763 157.802C67.6489 157.648 67.8648 157.773 67.8648 158.086V158.285C67.8561 158.455 67.8073 158.621 67.7225 158.769C67.6376 158.917 67.519 159.043 67.3763 159.137L59.1289 163.896C58.8563 164.055 58.6348 163.925 58.6348 163.612V163.414C58.6445 163.243 58.6943 163.077 58.7802 162.929C58.866 162.781 58.9855 162.655 59.1289 162.562Z" fill="#E0E0E0"/>
<path d="M75.545 133.116L83.2982 128.64C83.7072 128.402 84.0366 128.595 84.0366 129.066V135.354C84.0228 135.61 83.9487 135.86 83.8204 136.082C83.6921 136.304 83.5132 136.492 83.2982 136.632L75.545 141.108C75.1361 141.341 74.8066 141.154 74.8066 140.682V134.394C74.8201 134.138 74.894 133.889 75.0223 133.667C75.1507 133.444 75.3298 133.256 75.545 133.116Z" fill="#E0E0E0"/>
<path d="M75.2775 142.568L83.5249 137.808C83.7975 137.649 84.0191 137.774 84.0191 138.092V138.285C84.0098 138.456 83.9601 138.623 83.8742 138.771C83.7884 138.919 83.6687 139.044 83.5249 139.137L75.2775 143.897C75.0106 144.056 74.7891 143.897 74.7891 143.613V143.42C74.7977 143.25 74.8465 143.084 74.9314 142.936C75.0163 142.788 75.1349 142.662 75.2775 142.568Z" fill="#E0E0E0"/>
<path d="M75.2775 145.249L83.5249 140.489C83.7975 140.33 84.0191 140.455 84.0191 140.773V140.966C84.0098 141.137 83.9601 141.303 83.8742 141.451C83.7884 141.599 83.6687 141.725 83.5249 141.818L75.2775 146.578C75.0106 146.737 74.7891 146.606 74.7891 146.294V146.101C74.7977 145.93 74.8465 145.764 74.9314 145.616C75.0163 145.468 75.1349 145.342 75.2775 145.249Z" fill="#E0E0E0"/>
<path d="M75.2775 147.913L83.5249 143.136C83.7975 142.977 84.0191 143.102 84.0191 143.42V143.613C84.0098 143.784 83.9601 143.95 83.8742 144.098C83.7884 144.246 83.6687 144.372 83.5249 144.465L75.2775 149.225C75.0106 149.384 74.7891 149.253 74.7891 148.941V148.748C74.8003 148.58 74.8503 148.418 74.9351 148.273C75.0199 148.128 75.1371 148.005 75.2775 147.913Z" fill="#E0E0E0"/>
<path d="M75.2775 150.577L83.5249 145.817C83.7975 145.658 84.0191 145.783 84.0191 146.101V146.294C84.0098 146.465 83.9601 146.631 83.8742 146.779C83.7884 146.928 83.6687 147.053 83.5249 147.146L75.2775 151.906C75.0106 152.065 74.7891 151.934 74.7891 151.622V151.429C74.7977 151.258 74.8465 151.092 74.9314 150.944C75.0163 150.796 75.1349 150.67 75.2775 150.577Z" fill="#E0E0E0"/>
<path d="M75.2775 153.241L83.5249 148.481C83.7975 148.322 84.0191 148.447 84.0191 148.765V148.958C84.0098 149.129 83.9601 149.295 83.8742 149.443C83.7884 149.592 83.6687 149.717 83.5249 149.81L75.2775 154.57C75.0106 154.729 74.7891 154.598 74.7891 154.286V154.093C74.7977 153.922 74.8465 153.756 74.9314 153.608C75.0163 153.46 75.1349 153.334 75.2775 153.241Z" fill="#E0E0E0"/>
<path d="M75.2775 155.904L83.5249 151.145C83.7975 150.986 84.0191 151.116 84.0191 151.429V151.622C84.0107 151.793 83.9614 151.959 83.8755 152.108C83.7895 152.256 83.6693 152.381 83.5249 152.474L75.2775 157.234C75.0106 157.393 74.7891 157.268 74.7891 156.95V156.768C74.7973 156.596 74.8458 156.428 74.9307 156.278C75.0155 156.128 75.1343 156 75.2775 155.904Z" fill="#E0E0E0"/>
<path d="M75.2775 158.568L83.5249 153.809C83.7975 153.65 84.0191 153.78 84.0191 154.093V154.286C84.0107 154.457 83.9614 154.624 83.8755 154.772C83.7895 154.92 83.6693 155.045 83.5249 155.138L75.2775 159.898C75.0106 160.057 74.7891 159.932 74.7891 159.614V159.42C74.7991 159.25 74.8484 159.085 74.9331 158.937C75.0179 158.789 75.1358 158.663 75.2775 158.568Z" fill="#E0E0E0"/>
<path d="M75.2775 161.233L83.5249 156.473C83.7975 156.314 84.0191 156.444 84.0191 156.757V156.95C84.0107 157.121 83.9614 157.288 83.8755 157.436C83.7895 157.584 83.6693 157.71 83.5249 157.802L75.2775 162.562C75.0106 162.721 74.7891 162.596 74.7891 162.278V162.085C74.7991 161.914 74.8484 161.749 74.9331 161.601C75.0179 161.453 75.1358 161.327 75.2775 161.233Z" fill="#E0E0E0"/>
<path d="M59.3732 171.752L67.1264 167.27C67.5353 167.037 67.8648 167.23 67.8648 167.696V173.99C67.8509 174.246 67.7768 174.495 67.6485 174.717C67.5202 174.939 67.3413 175.128 67.1264 175.268L59.3732 179.744C58.9699 179.976 58.6348 179.789 58.6348 179.318V173.03C58.6486 172.774 58.7227 172.524 58.851 172.302C58.9793 172.08 59.1582 171.892 59.3732 171.752Z" fill="#E0E0E0"/>
<path d="M59.1289 181.192L67.3763 176.432C67.6489 176.279 67.8648 176.404 67.8648 176.716V176.915C67.8561 177.085 67.8073 177.251 67.7225 177.399C67.6376 177.547 67.519 177.673 67.3763 177.767L59.1289 182.527C58.8563 182.686 58.6348 182.555 58.6348 182.243V182.044C58.6445 181.873 58.6943 181.707 58.7802 181.559C58.866 181.411 58.9855 181.285 59.1289 181.192Z" fill="#E0E0E0"/>
<path d="M59.1289 183.878L67.3763 179.119C67.6489 178.965 67.8648 179.09 67.8648 179.403V179.601C67.8561 179.772 67.8073 179.938 67.7225 180.086C67.6376 180.234 67.519 180.36 67.3763 180.453L59.1289 185.213C58.8563 185.372 58.6348 185.242 58.6348 184.929V184.73C58.6445 184.56 58.6943 184.394 58.7802 184.246C58.866 184.098 58.9855 183.972 59.1289 183.878Z" fill="#E0E0E0"/>
<path d="M59.1289 186.548L67.3763 181.76C67.6489 181.606 67.8648 181.731 67.8648 182.044V182.243C67.8561 182.413 67.8073 182.579 67.7225 182.727C67.6376 182.875 67.519 183.001 67.3763 183.095L59.1289 187.854C58.8563 188.013 58.6348 187.883 58.6348 187.57V187.377C58.6467 187.21 58.6976 187.048 58.7834 186.904C58.8692 186.76 58.9875 186.638 59.1289 186.548Z" fill="#E0E0E0"/>
<path d="M91.6759 123.79L99.4291 119.314C99.8381 119.081 100.167 119.269 100.167 119.74V126.028C100.154 126.284 100.08 126.534 99.9518 126.756C99.8235 126.978 99.6443 127.166 99.4291 127.306L91.6759 131.776C91.2726 132.009 90.9375 131.816 90.9375 131.35V125.068C90.9531 124.812 91.028 124.564 91.1561 124.342C91.2843 124.12 91.4622 123.931 91.6759 123.79Z" fill="#E0E0E0"/>
<path d="M91.4492 133.258L99.6966 128.499C99.9636 128.345 100.185 128.499 100.185 128.783V128.981C100.175 129.152 100.126 129.317 100.041 129.465C99.9562 129.613 99.8384 129.739 99.6966 129.833L91.4492 134.616C91.1766 134.769 90.9551 134.616 90.9551 134.332V134.133C90.9613 133.958 91.0094 133.788 91.0954 133.636C91.1814 133.483 91.3028 133.354 91.4492 133.258Z" fill="#E0E0E0"/>
<path d="M91.4492 135.923L99.6966 131.163C99.9636 131.009 100.185 131.163 100.185 131.447V131.645C100.175 131.816 100.126 131.981 100.041 132.129C99.9562 132.277 99.8384 132.403 99.6966 132.497L91.4492 137.257C91.1766 137.411 90.9551 137.257 90.9551 136.973V136.775C90.9648 136.604 91.0146 136.438 91.1005 136.29C91.1863 136.142 91.3058 136.016 91.4492 135.923Z" fill="#E0E0E0"/>
<path d="M91.4492 138.592L99.6966 133.832C99.9636 133.679 100.185 133.804 100.185 134.116V134.315C100.175 134.485 100.126 134.65 100.041 134.798C99.9562 134.946 99.8384 135.072 99.6966 135.167L91.4492 139.921C91.1766 140.074 90.9551 139.921 90.9551 139.637V139.438C90.9657 139.268 91.0159 139.103 91.1017 138.956C91.1875 138.809 91.3065 138.685 91.4492 138.592Z" fill="#E0E0E0"/>
<path d="M91.4492 141.25L99.6966 136.49C99.9636 136.337 100.185 136.462 100.185 136.774V136.973C100.175 137.143 100.126 137.309 100.041 137.456C99.9562 137.604 99.8384 137.73 99.6966 137.825L91.4492 142.568C91.1766 142.721 90.9551 142.596 90.9551 142.284V142.085C90.9674 141.917 91.0185 141.754 91.1042 141.61C91.1899 141.465 91.308 141.342 91.4492 141.25Z" fill="#E0E0E0"/>
<path d="M91.4492 143.914L99.6796 139.16C99.9465 139.007 100.168 139.132 100.168 139.444V139.643C100.158 139.813 100.109 139.979 100.024 140.126C99.9392 140.274 99.8213 140.4 99.6796 140.495L91.4492 145.249C91.1766 145.402 90.9551 145.278 90.9551 144.965V144.766C90.9648 144.595 91.0146 144.429 91.1005 144.281C91.1863 144.133 91.3058 144.008 91.4492 143.914Z" fill="#E0E0E0"/>
<path d="M107.83 114.469L115.583 109.993C115.987 109.754 116.322 109.948 116.322 110.419V116.707C116.307 116.963 116.232 117.211 116.104 117.433C115.976 117.655 115.797 117.844 115.583 117.985L107.83 122.461C107.421 122.693 107.092 122.506 107.092 122.035V115.747C107.105 115.491 107.179 115.241 107.307 115.019C107.436 114.797 107.615 114.608 107.83 114.469Z" fill="#E0E0E0"/>
<path d="M107.58 123.932L115.828 119.172C116.1 119.019 116.322 119.143 116.322 119.456V119.655C116.312 119.825 116.262 119.992 116.176 120.14C116.091 120.288 115.971 120.413 115.828 120.507L107.58 125.267C107.313 125.426 107.092 125.295 107.092 124.983V124.784C107.102 124.614 107.151 124.448 107.236 124.3C107.321 124.152 107.439 124.026 107.58 123.932Z" fill="#E0E0E0"/>
<path d="M107.58 126.601L115.828 121.836C116.1 121.683 116.322 121.808 116.322 122.12V122.319C116.312 122.49 116.262 122.656 116.176 122.804C116.091 122.952 115.971 123.077 115.828 123.171L107.58 127.931C107.313 128.09 107.092 127.959 107.092 127.647V127.453C107.1 127.283 107.149 127.117 107.234 126.969C107.319 126.821 107.438 126.695 107.58 126.601Z" fill="#E0E0E0"/>
<path d="M107.58 129.266L115.828 124.5C116.1 124.347 116.322 124.472 116.322 124.784V124.96C116.312 125.131 116.262 125.297 116.176 125.445C116.091 125.593 115.971 125.719 115.828 125.812L107.58 130.572C107.313 130.731 107.092 130.6 107.092 130.288V130.095C107.104 129.928 107.154 129.767 107.239 129.623C107.324 129.479 107.441 129.357 107.58 129.266Z" fill="#E0E0E0"/>
<path d="M107.58 131.929L115.828 127.164C116.1 127.01 116.322 127.164 116.322 127.448V127.646C116.312 127.817 116.262 127.983 116.176 128.131C116.091 128.279 115.971 128.405 115.828 128.498L107.58 133.258C107.313 133.417 107.092 133.258 107.092 132.974V132.781C107.1 132.611 107.149 132.445 107.234 132.297C107.319 132.149 107.438 132.023 107.58 131.929Z" fill="#E0E0E0"/>
<path d="M107.58 134.616L115.828 129.851C116.1 129.697 116.322 129.851 116.322 130.135V130.333C116.312 130.504 116.262 130.67 116.176 130.818C116.091 130.966 115.971 131.092 115.828 131.185L107.58 135.923C107.313 136.082 107.092 135.923 107.092 135.639V135.445C107.104 135.279 107.154 135.118 107.239 134.974C107.324 134.83 107.441 134.707 107.58 134.616Z" fill="#E0E0E0"/>
<path d="M107.58 137.257L115.828 132.497C116.1 132.338 116.322 132.463 116.322 132.781V132.974C116.312 133.145 116.263 133.312 116.177 133.46C116.091 133.608 115.971 133.733 115.828 133.826L107.58 138.592C107.313 138.751 107.092 138.592 107.092 138.308V138.115C107.1 137.943 107.149 137.776 107.233 137.627C107.318 137.478 107.437 137.351 107.58 137.257Z" fill="#E0E0E0"/>
<path d="M107.58 139.921L115.828 135.184C116.1 135.025 116.322 135.15 116.322 135.468V135.661C116.312 135.832 116.263 135.999 116.177 136.147C116.091 136.295 115.971 136.42 115.828 136.513L107.58 141.273C107.313 141.432 107.092 141.273 107.092 140.989V140.796C107.097 140.622 107.145 140.451 107.23 140.299C107.315 140.147 107.435 140.017 107.58 139.921Z" fill="#E0E0E0"/>
<path d="M107.58 142.568L115.828 137.808C116.1 137.649 116.322 137.774 116.322 138.092V138.285C116.312 138.456 116.263 138.623 116.177 138.771C116.091 138.919 115.971 139.044 115.828 139.137L107.58 143.897C107.313 144.056 107.092 143.931 107.092 143.613V143.42C107.101 143.25 107.15 143.084 107.235 142.936C107.32 142.788 107.438 142.662 107.58 142.568Z" fill="#E0E0E0"/>
<path d="M91.6759 153.099L99.4291 148.623C99.8381 148.39 100.167 148.577 100.167 149.049V155.337C100.154 155.593 100.08 155.842 99.9518 156.064C99.8235 156.286 99.6443 156.475 99.4291 156.615L91.6759 161.096C91.2726 161.329 90.9375 161.136 90.9375 160.67V154.377C90.9531 154.121 91.028 153.872 91.1561 153.651C91.2843 153.429 91.4622 153.24 91.6759 153.099Z" fill="#E0E0E0"/>
<path d="M91.4492 162.567L99.6966 157.808C99.9636 157.654 100.185 157.779 100.185 158.092V158.29C100.175 158.461 100.126 158.626 100.041 158.774C99.9562 158.922 99.8384 159.048 99.6966 159.142L91.4492 163.902C91.1766 164.056 90.9551 163.931 90.9551 163.618V163.419C90.9648 163.249 91.0146 163.083 91.1005 162.934C91.1863 162.786 91.3058 162.661 91.4492 162.567Z" fill="#E0E0E0"/>
<path d="M91.4492 165.231L99.6966 160.471C99.9636 160.318 100.185 160.471 100.185 160.755V160.954C100.175 161.124 100.126 161.29 100.041 161.437C99.9562 161.585 99.8384 161.711 99.6966 161.806L91.4492 166.566C91.1766 166.719 90.9551 166.594 90.9551 166.282V166.083C90.9648 165.912 91.0146 165.746 91.1005 165.598C91.1863 165.45 91.3058 165.324 91.4492 165.231Z" fill="#E0E0E0"/>
<path d="M91.4492 167.895L99.6966 163.135C99.9636 162.982 100.185 163.135 100.185 163.419V163.618C100.175 163.788 100.126 163.954 100.041 164.102C99.9562 164.249 99.8384 164.376 99.6966 164.47L91.4492 169.23C91.1766 169.383 90.9551 169.258 90.9551 168.946V168.747C90.9648 168.576 91.0146 168.41 91.1005 168.262C91.1863 168.114 91.3058 167.988 91.4492 167.895Z" fill="#E0E0E0"/>
<path d="M75.147 115.906C75.0334 115.868 74.9766 115.76 74.9766 115.582C74.9834 115.409 75.0179 115.239 75.0788 115.077L75.6922 113.123C75.7313 112.946 75.82 112.785 75.9478 112.657C75.9896 112.634 76.0365 112.622 76.0842 112.622C76.1318 112.622 76.1787 112.634 76.2205 112.657C76.5363 112.789 76.8803 112.84 77.2208 112.804C77.5613 112.768 77.8873 112.647 78.1687 112.452C78.6765 112.156 79.0749 111.704 79.3047 111.163C79.5703 110.499 79.696 109.788 79.6739 109.073V97.6163C79.6634 97.2856 79.7234 96.9564 79.85 96.6507C79.9862 96.3687 80.2092 96.1378 80.4862 95.9918L81.7471 95.2648C82.0311 95.1001 82.2356 95.0773 82.3549 95.2023C82.505 95.428 82.5695 95.7 82.5366 95.9691V107.465C82.5571 109.079 82.2154 110.676 81.537 112.14C80.9187 113.488 79.8964 114.609 78.6118 115.349C77.2448 116.141 76.0898 116.326 75.147 115.906Z" fill="#455A64"/>
<path d="M85.376 109.005C84.3574 107.96 83.8481 105.959 83.8481 103.001C83.7901 100.333 84.3114 97.684 85.376 95.2367C86.2836 93.1435 87.8331 91.3931 89.8008 90.2383C91.7263 89.1023 93.2087 89.1023 94.2141 90.136C95.2195 91.1698 95.742 93.1748 95.742 96.1341C95.8 98.8023 95.2787 101.451 94.2141 103.899C93.3088 105.988 91.7635 107.737 89.8008 108.891C87.8696 110.005 86.3946 110.043 85.376 109.005ZM92.1466 102.848C92.7245 101.207 92.9941 99.4743 92.9418 97.7359C92.9418 95.6873 92.6767 94.2938 92.1466 93.5554C91.6183 92.817 90.8402 92.7488 89.8008 93.3452C88.6988 94.0206 87.8641 95.056 87.4379 96.2761C86.8612 97.9167 86.5935 99.65 86.6483 101.388C86.6483 103.433 86.9096 104.83 87.4379 105.563C87.9661 106.296 88.7556 106.369 89.8008 105.762C90.8979 105.093 91.7275 104.063 92.1466 102.848Z" fill="#455A64"/>
<path d="M97.3229 103.882C97.173 103.662 97.1084 103.396 97.1411 103.132V87.5516C97.1317 87.2186 97.1937 86.8874 97.3229 86.5804C97.4407 86.3168 97.6397 86.0978 97.8909 85.9556L102.889 83.0644C104.146 82.3412 105.093 82.2427 105.729 82.7691C106.365 83.2954 106.678 84.3368 106.667 85.8931C106.667 86.7164 106.538 87.5348 106.286 88.3184C106.065 89.0453 105.709 89.7237 105.235 90.3178C106.405 90.2383 106.99 91.2228 106.99 93.2714C106.99 94.2766 106.839 95.2761 106.542 96.2364C106.243 97.2055 105.78 98.1161 105.173 98.9287C104.564 99.7468 103.79 100.428 102.901 100.928L97.9023 103.819C97.6353 103.973 97.4422 103.995 97.3229 103.882ZM102.435 90.5677C102.891 90.3009 103.258 89.9058 103.491 89.4317C103.757 88.8897 103.888 88.2914 103.872 87.688C103.872 86.9723 103.753 86.552 103.52 86.3532C103.287 86.1544 102.923 86.2396 102.435 86.5179L99.9698 87.9492V92.0161L102.435 90.5677ZM102.708 97.8722C103.215 97.5862 103.614 97.1411 103.844 96.6056C104.094 96.0288 104.22 95.4055 104.213 94.7766C104.213 94.0268 104.071 93.544 103.787 93.3339C103.503 93.1237 103.099 93.1635 102.588 93.4588L99.9698 94.964V99.4569L102.708 97.8722Z" fill="#455A64"/>
<path d="M109.518 97.0711C108.87 97.2611 108.177 97.2332 107.547 96.9916C107.472 96.9591 107.409 96.9061 107.363 96.8386C107.318 96.7712 107.293 96.6922 107.291 96.611C107.298 96.4693 107.327 96.3295 107.376 96.1964L108.081 94.0834C108.109 93.9319 108.187 93.7941 108.302 93.6915C108.341 93.6706 108.385 93.6597 108.43 93.6597C108.474 93.6597 108.518 93.6706 108.558 93.6915C109.03 93.8179 109.525 93.8374 110.006 93.7483C110.589 93.6436 111.149 93.4359 111.659 93.1349C112.25 92.8161 112.755 92.3579 113.13 91.8001C113.459 91.254 113.624 90.6253 113.607 89.9882C113.636 89.6316 113.555 89.2747 113.374 88.9658C113.208 88.7488 112.963 88.606 112.693 88.5682C112.231 88.5066 111.766 88.4763 111.301 88.4773C110.677 88.4919 110.054 88.4192 109.449 88.2614C108.927 88.1024 108.484 87.7539 108.205 87.2845C107.833 86.5878 107.664 85.8006 107.717 85.0125C107.696 83.4336 108.105 81.8788 108.898 80.5139C109.638 79.2182 110.708 78.1421 112 77.3956C113.704 76.413 114.993 76.1574 115.891 76.6174C115.962 76.6539 116.023 76.708 116.068 76.7746C116.112 76.8412 116.139 76.9181 116.146 76.998C116.139 77.1397 116.11 77.2795 116.061 77.4126L115.362 79.5256C115.334 79.6757 115.256 79.8118 115.141 79.9118C115.102 79.9343 115.058 79.9461 115.013 79.9461C114.968 79.9461 114.924 79.9343 114.885 79.9118C114.192 79.6127 113.352 79.7471 112.363 80.3151C111.793 80.6087 111.318 81.057 110.991 81.6086C110.665 82.1602 110.501 82.7927 110.517 83.4334C110.492 83.7769 110.567 84.1203 110.733 84.4218C110.864 84.6229 111.067 84.7654 111.301 84.8194C111.691 84.8899 112.087 84.9222 112.483 84.9159H112.96C113.624 84.9185 114.285 85.0199 114.919 85.217C115.405 85.3937 115.801 85.755 116.021 86.2223C116.317 86.9416 116.447 87.718 116.402 88.4943C116.403 89.9965 116.011 91.4729 115.266 92.777C114.505 94.1289 113.384 95.2436 112.028 95.9976C111.253 96.4846 110.405 96.8468 109.518 97.0711Z" fill="#455A64"/>
<path d="M180.493 42.4126L178.187 41.0778C178.019 41 177.834 40.9684 177.65 40.9864C177.467 41.0043 177.291 41.0712 177.142 41.1801L147.793 58.1633C147.364 58.4441 147.007 58.8217 146.751 59.2656C146.494 59.7095 146.345 60.2074 146.316 60.7193V121.211C146.297 121.394 146.327 121.579 146.402 121.747C146.478 121.915 146.598 122.059 146.748 122.166L149.02 123.495H149.054C149.217 123.561 149.395 123.584 149.569 123.563C149.744 123.542 149.911 123.478 150.054 123.375L157.807 118.9V123.563C157.807 124.386 157.938 124.864 158.154 124.994L160.426 126.318C160.687 126.46 161.067 126.096 161.493 125.182L166.992 113.538L179.357 106.358C179.786 106.077 180.143 105.7 180.399 105.256C180.656 104.812 180.805 104.314 180.834 103.802V43.3612C180.862 43.1871 180.846 43.0088 180.786 42.8428C180.726 42.6769 180.626 42.5288 180.493 42.4126Z" fill="#44A2C6"/>
<path opacity="0.4" d="M180.437 42.3784C180.273 42.3201 180.099 42.3015 179.927 42.3242C179.755 42.3469 179.591 42.4103 179.448 42.5091L150.094 59.498C149.668 59.7633 149.316 60.1327 149.072 60.5715L146.766 59.2367C147.008 58.7967 147.36 58.4269 147.788 58.1632L177.137 41.1743C177.334 41.0532 177.559 40.9848 177.79 40.9755C177.927 40.9729 178.062 41.0062 178.182 41.072L180.437 42.3784Z" fill="white"/>
<path opacity="0.2" d="M158.192 125.017C157.982 124.886 157.852 124.409 157.852 123.586V118.928L160.175 117.576V124.903C160.175 125.687 160.294 126.164 160.481 126.323L158.192 125.017Z" fill="black"/>
<path opacity="0.1" d="M149.065 123.5L146.759 122.171C146.612 122.064 146.495 121.92 146.42 121.753C146.346 121.587 146.316 121.404 146.333 121.223V60.7193C146.354 60.1942 146.51 59.6834 146.787 59.2368L149.093 60.5716C148.818 61.0185 148.663 61.5294 148.645 62.0541V122.546C148.623 122.728 148.651 122.913 148.725 123.08C148.799 123.248 148.916 123.393 149.065 123.5Z" fill="black"/>
<path d="M154.461 62.2982L175.074 50.3702C175.756 49.9783 176.307 50.2963 176.307 51.0802V64.1839C176.283 64.6117 176.16 65.028 175.946 65.3991C175.731 65.7702 175.433 66.0855 175.074 66.3196L154.461 78.2476C153.785 78.6395 153.234 78.3215 153.234 77.5376V64.4282C153.258 64.0019 153.381 63.587 153.594 63.2171C153.807 62.8471 154.104 62.5324 154.461 62.2982Z" fill="white"/>
<path d="M176.307 69.6313C176.277 70.0451 176.149 70.4459 175.935 70.8013C175.721 71.1566 175.426 71.4563 175.074 71.6761L154.461 83.5757C153.785 83.9676 153.234 83.6893 153.234 82.9509C153.265 82.5387 153.392 82.1395 153.605 81.7853C153.818 81.4312 154.111 81.132 154.461 80.9118L175.074 69.0122C175.756 68.6202 176.307 68.8986 176.307 69.6313Z" fill="white"/>
<path d="M176.307 74.9757C176.277 75.3895 176.149 75.7904 175.935 76.1457C175.721 76.501 175.426 76.8008 175.074 77.0205L154.461 88.9485C153.785 89.3404 153.234 89.0621 153.234 88.3237C153.265 87.9115 153.392 87.5123 153.605 87.1582C153.818 86.804 154.111 86.5048 154.461 86.2846L175.074 74.3566C175.756 73.9476 176.307 74.226 176.307 74.9757Z" fill="white"/>
<path d="M176.307 80.2866C176.277 80.7004 176.149 81.1012 175.935 81.4565C175.721 81.8119 175.426 82.1116 175.074 82.3314L154.461 94.2594C153.785 94.6513 153.234 94.373 153.234 93.6346C153.265 93.2224 153.392 92.8232 153.605 92.469C153.818 92.1148 154.111 91.8156 154.461 91.5954L175.074 79.6674C175.756 79.2755 176.307 79.5538 176.307 80.2866Z" fill="white"/>
<path d="M176.307 85.6148C176.277 86.0286 176.149 86.4295 175.935 86.7848C175.721 87.1401 175.426 87.4398 175.074 87.6596L154.461 99.5592C153.785 99.9511 153.234 99.6728 153.234 98.9344C153.265 98.5222 153.392 98.123 153.605 97.7688C153.818 97.4147 154.111 97.1155 154.461 96.8953L175.074 84.9673C175.756 84.6321 176.307 84.8821 176.307 85.6148Z" fill="white"/>
<path d="M153.234 104.268C153.234 105 153.802 105.279 154.461 104.887L156.62 103.643C156.969 103.423 157.263 103.123 157.476 102.769C157.689 102.415 157.816 102.016 157.847 101.604C157.847 100.865 157.279 100.587 156.62 100.979L154.461 102.223C154.111 102.443 153.817 102.744 153.604 103.099C153.391 103.454 153.264 103.854 153.234 104.268Z" fill="white"/>
<path d="M160.971 99.8088C160.971 100.542 161.539 100.82 162.203 100.428L175.074 92.9871C175.426 92.7674 175.721 92.4676 175.935 92.1123C176.149 91.757 176.277 91.3561 176.307 90.9423C176.307 90.2096 175.739 89.9313 175.074 90.3232L162.203 97.764C161.851 97.9838 161.556 98.2835 161.342 98.6388C161.128 98.9941 161.001 99.395 160.971 99.8088Z" fill="white"/>
<path d="M153.234 109.624C153.234 110.357 153.802 110.635 154.461 110.243L156.62 108.999C156.969 108.779 157.263 108.48 157.476 108.126C157.689 107.771 157.816 107.372 157.847 106.96C157.847 106.222 157.279 105.943 156.62 106.335L154.461 107.579C154.111 107.8 153.817 108.1 153.604 108.455C153.391 108.81 153.264 109.211 153.234 109.624Z" fill="white"/>
<path d="M160.971 105.137C160.971 105.87 161.539 106.148 162.203 105.756L175.074 98.3152C175.426 98.0955 175.721 97.7957 175.935 97.4404C176.149 97.0851 176.277 96.6842 176.307 96.2705C176.307 95.5377 175.739 95.2594 175.074 95.6513L162.203 103.092C161.851 103.312 161.556 103.612 161.342 103.967C161.128 104.322 161.001 104.723 160.971 105.137Z" fill="white"/>
<path d="M153.234 114.923C153.234 115.656 153.802 115.934 154.461 115.542L156.62 114.298C156.969 114.078 157.263 113.779 157.476 113.425C157.689 113.071 157.816 112.672 157.847 112.259C157.847 111.521 157.279 111.243 156.62 111.635L154.461 112.878C154.111 113.099 153.817 113.399 153.604 113.755C153.391 114.11 153.264 114.51 153.234 114.923Z" fill="white"/>
<path d="M160.971 110.464C160.971 111.197 161.539 111.475 162.203 111.084L175.074 103.643C175.425 103.424 175.72 103.125 175.934 102.77C176.148 102.416 176.276 102.016 176.307 101.604C176.307 100.865 175.739 100.587 175.074 100.979L162.203 108.42C161.851 108.639 161.556 108.939 161.342 109.294C161.128 109.65 161.001 110.051 160.971 110.464Z" fill="white"/>
<path d="M208.195 58.3618L205.923 57.027C205.755 56.9492 205.57 56.9176 205.386 56.9356C205.202 56.9536 205.027 57.0204 204.878 57.1293L175.512 74.1068C175.083 74.3876 174.726 74.7652 174.469 75.2091C174.213 75.653 174.064 76.1509 174.035 76.6628V137.155C174.016 137.338 174.045 137.523 174.121 137.691C174.197 137.858 174.316 138.003 174.467 138.109L176.767 139.438H176.796C176.96 139.505 177.138 139.528 177.314 139.508C177.489 139.487 177.657 139.422 177.801 139.319L185.554 134.843V139.506C185.554 140.33 185.685 140.807 185.895 140.938L188.167 142.261H188.195C188.457 142.403 188.837 142.04 189.258 141.125L194.761 129.481L207.127 122.302C207.556 122.021 207.913 121.643 208.169 121.199C208.426 120.755 208.575 120.257 208.604 119.746V59.3104C208.624 59.1304 208.597 58.9481 208.525 58.7817C208.454 58.6153 208.34 58.4706 208.195 58.3618Z" fill="#44A2C6"/>
<path opacity="0.4" d="M208.132 58.3278C207.969 58.2695 207.794 58.2509 207.622 58.2736C207.45 58.2963 207.286 58.3597 207.143 58.4585L177.784 75.4474C177.357 75.7127 177.005 76.0821 176.761 76.5209L174.455 75.1861C174.699 74.7473 175.051 74.3779 175.477 74.1126L204.832 57.1237C205.028 57.0014 205.254 56.9329 205.485 56.9249C205.62 56.923 205.753 56.9563 205.871 57.0214L208.132 58.3278Z" fill="white"/>
<path opacity="0.2" d="M185.89 140.966C185.679 140.836 185.549 140.358 185.549 139.535V134.877L187.855 133.542V140.864C187.855 141.648 187.974 142.125 188.167 142.284L185.89 140.966Z" fill="black"/>
<path opacity="0.1" d="M176.761 139.449L174.461 138.12C174.313 138.014 174.195 137.87 174.121 137.703C174.046 137.537 174.016 137.353 174.035 137.172V76.6797C174.053 76.155 174.208 75.6442 174.483 75.1973L176.789 76.5321C176.514 76.979 176.359 77.4898 176.341 78.0145V138.507C176.321 138.687 176.35 138.869 176.424 139.035C176.498 139.2 176.614 139.343 176.761 139.449Z" fill="black"/>
<path d="M182.164 78.2476L202.777 66.3197C203.453 65.9277 204.004 66.2458 204.004 67.0297V80.1675C203.981 80.5947 203.858 81.0105 203.645 81.3814C203.432 81.7524 203.134 82.0681 202.777 82.3032L182.164 94.2312C181.483 94.6231 180.932 94.305 180.932 93.5212V80.3776C180.955 79.9506 181.079 79.5351 181.293 79.165C181.507 78.7948 181.806 78.4805 182.164 78.2476Z" fill="white"/>
<path d="M204.004 85.5805C203.974 85.9937 203.847 86.394 203.634 86.7492C203.421 87.1045 203.127 87.4046 202.777 87.6253L182.164 99.5249C181.483 99.9168 180.932 99.6385 180.932 98.9001C180.963 98.4873 181.09 98.0876 181.304 97.7333C181.518 97.379 181.813 97.0802 182.164 96.861L202.777 84.9614C203.453 84.5695 204.004 84.8478 204.004 85.5805Z" fill="white"/>
<path d="M204.004 90.9086C203.974 91.3217 203.847 91.7221 203.634 92.0773C203.421 92.4325 203.127 92.7326 202.777 92.9534L182.164 104.853C181.483 105.245 180.932 104.967 180.932 104.228C180.963 103.815 181.09 103.416 181.304 103.061C181.518 102.707 181.813 102.408 182.164 102.189L202.777 90.3122C203.453 89.8975 204.004 90.1758 204.004 90.9086Z" fill="white"/>
<path d="M204.004 96.2363C203.971 96.6465 203.844 97.0434 203.631 97.3955C203.418 97.7476 203.125 98.045 202.777 98.264L182.164 110.192C181.483 110.584 180.932 110.306 180.932 109.567C180.963 109.154 181.09 108.755 181.304 108.4C181.518 108.046 181.813 107.747 182.164 107.528L202.777 95.6171C203.453 95.2252 204.004 95.5035 204.004 96.2363Z" fill="white"/>
<path d="M204.004 101.564C203.974 101.977 203.847 102.378 203.634 102.733C203.421 103.088 203.127 103.388 202.777 103.609L182.164 115.537C181.483 115.929 180.932 115.651 180.932 114.912C180.963 114.499 181.09 114.1 181.304 113.745C181.518 113.391 181.813 113.092 182.164 112.873L202.777 100.945C203.453 100.536 204.004 100.831 204.004 101.564Z" fill="white"/>
<path d="M180.932 120.217C180.932 120.95 181.5 121.228 182.164 120.836L184.317 119.592C184.668 119.373 184.963 119.074 185.177 118.72C185.391 118.366 185.519 117.966 185.549 117.553C185.549 116.815 184.981 116.537 184.317 116.929L182.164 118.172C181.812 118.392 181.517 118.692 181.303 119.047C181.089 119.403 180.962 119.803 180.932 120.217Z" fill="white"/>
<path d="M188.672 115.759C188.672 116.491 189.24 116.77 189.904 116.378L202.775 108.937C203.126 108.716 203.42 108.416 203.633 108.061C203.846 107.706 203.972 107.305 204.002 106.892C204.002 106.159 203.434 105.881 202.775 106.273L189.899 113.714C189.548 113.934 189.255 114.235 189.041 114.59C188.828 114.945 188.702 115.345 188.672 115.759Z" fill="white"/>
<path d="M180.932 125.528C180.932 126.26 181.5 126.539 182.164 126.147L184.317 124.903C184.668 124.684 184.963 124.385 185.177 124.031C185.391 123.676 185.519 123.277 185.549 122.864C185.549 122.125 184.981 121.847 184.317 122.239L182.164 123.483C181.812 123.703 181.517 124.002 181.303 124.358C181.089 124.713 180.962 125.114 180.932 125.528Z" fill="white"/>
<path d="M188.672 121.086C188.672 121.819 189.24 122.097 189.904 121.705L202.775 114.264C203.126 114.044 203.42 113.744 203.633 113.388C203.846 113.033 203.972 112.633 204.002 112.22C204.002 111.487 203.434 111.209 202.775 111.601L189.899 119.041C189.548 119.262 189.255 119.562 189.041 119.917C188.828 120.273 188.702 120.673 188.672 121.086Z" fill="white"/>
<path d="M180.932 130.873C180.932 131.606 181.5 131.884 182.164 131.492L184.317 130.248C184.668 130.029 184.963 129.73 185.177 129.376C185.391 129.022 185.519 128.622 185.549 128.209C185.549 127.471 184.981 127.192 184.317 127.584L182.164 128.828C181.812 129.048 181.517 129.348 181.303 129.703C181.089 130.058 180.962 130.459 180.932 130.873Z" fill="white"/>
<path d="M188.672 126.414C188.672 127.147 189.24 127.425 189.904 127.033L202.775 119.592C203.125 119.372 203.418 119.073 203.631 118.719C203.845 118.365 203.972 117.965 204.002 117.553C204.002 116.815 203.434 116.537 202.775 116.929L189.899 124.392C189.551 124.611 189.259 124.907 189.046 125.258C188.833 125.609 188.705 126.005 188.672 126.414Z" fill="white"/>
<path d="M238.207 34.9146L235.151 33.1652H235.123C233.777 32.4098 231.931 32.5234 229.886 33.6991C225.768 36.0791 222.434 41.8613 222.434 46.6154C222.434 48.984 223.263 50.6539 224.609 51.4321L227.37 53.0111L228.028 51.8751C228.781 51.7102 229.503 51.4305 230.17 51.0459C234.282 48.6716 237.622 42.8894 237.622 38.1352C237.62 37.494 237.542 36.8553 237.389 36.2324L238.207 34.9146Z" fill="#44A2C6"/>
<path d="M222.451 46.5758C222.451 48.9501 223.28 50.62 224.627 51.3981L227.387 52.9772L228.046 51.8753C228.797 51.7056 229.519 51.4242 230.187 51.0403C232.541 49.5591 234.452 47.4715 235.72 44.9968L224.928 38.7488C223.412 41.0868 222.556 43.7913 222.451 46.5758Z" fill="#263238"/>
<path d="M238.213 34.9149L235.18 33.1654H235.152C233.806 32.4043 231.96 32.5179 229.915 33.6994C227.868 34.9591 226.157 36.6955 224.928 38.7602L235.72 45.0082C236.894 42.9225 237.549 40.5846 237.628 38.1922C237.626 37.551 237.548 36.9123 237.395 36.2894L238.213 34.9149Z" fill="#455A64"/>
<path d="M232.782 35.341C228.67 37.7152 225.33 43.4975 225.33 48.28C225.33 53.0626 228.67 54.9597 232.782 52.5798C236.895 50.1999 240.263 44.3949 240.263 39.6408C240.263 34.8866 236.9 32.944 232.782 35.341Z" fill="#37474F"/>
<path d="M233.328 39.2771C233.548 39.2001 233.785 39.1825 234.015 39.2259C234.202 39.2693 234.375 39.3614 234.515 39.4929C234.65 39.6248 234.753 39.7861 234.816 39.9643C234.888 40.1458 234.93 40.3375 234.941 40.5323C234.945 40.6271 234.923 40.7213 234.878 40.805C234.844 40.8796 234.789 40.9428 234.719 40.9867L234.151 41.3105C234.061 41.3673 233.992 41.3787 233.947 41.3503C233.891 41.3146 233.848 41.2632 233.822 41.2026C233.783 41.1293 233.729 41.0644 233.665 41.0118C233.601 40.9591 233.527 40.9197 233.447 40.8959C233.32 40.8776 233.191 40.8852 233.067 40.9184C232.943 40.9516 232.827 41.0096 232.726 41.089C232.581 41.1701 232.448 41.2694 232.328 41.3843C232.203 41.4994 232.093 41.6291 231.999 41.7706C231.905 41.9073 231.83 42.0564 231.777 42.2136C231.726 42.3635 231.699 42.5208 231.698 42.6794C231.686 42.8236 231.717 42.968 231.789 43.094C231.822 43.1379 231.865 43.1736 231.914 43.1982C231.963 43.2229 232.017 43.2358 232.073 43.236C232.243 43.2436 232.413 43.2264 232.578 43.1849L233.328 43.0088C233.593 42.9388 233.866 42.9082 234.14 42.9179C234.347 42.9216 234.546 42.9935 234.708 43.1224C234.861 43.2611 234.968 43.4435 235.015 43.645C235.079 43.9224 235.11 44.2066 235.106 44.4913C235.102 44.8113 235.06 45.1297 234.981 45.4399C234.898 45.7697 234.78 46.0896 234.629 46.3941C234.472 46.7075 234.282 47.0027 234.061 47.2745C233.842 47.5483 233.592 47.7961 233.316 48.0129V48.8479C233.315 48.9409 233.291 49.0323 233.248 49.1148C233.219 49.1909 233.168 49.2564 233.101 49.3023L232.447 49.6771C232.426 49.6963 232.399 49.7069 232.371 49.7069C232.342 49.7069 232.315 49.6963 232.294 49.6771C232.271 49.6507 232.254 49.6201 232.243 49.5869C232.233 49.5537 232.229 49.5187 232.232 49.484V48.6434C232.015 48.7195 231.785 48.7542 231.556 48.7456C231.353 48.7367 231.157 48.6739 230.988 48.5639C230.822 48.4446 230.691 48.284 230.607 48.0981C230.503 47.8557 230.449 47.595 230.448 47.3313C230.443 47.2363 230.464 47.1418 230.511 47.0587C230.543 46.983 230.596 46.918 230.664 46.8712L231.232 46.5474C231.323 46.4963 231.391 46.4793 231.442 46.502C231.498 46.5379 231.54 46.592 231.561 46.6554C231.601 46.7398 231.647 46.8214 231.698 46.8996C231.751 46.9736 231.827 47.0292 231.913 47.0587C232.026 47.0848 232.142 47.0848 232.254 47.0587C232.436 47.0166 232.609 46.9435 232.765 46.8428C232.929 46.7479 233.085 46.6396 233.231 46.5191C233.376 46.3971 233.507 46.26 233.623 46.1101C233.735 45.9616 233.826 45.7993 233.896 45.6273C233.965 45.4579 234 45.2764 233.998 45.0934C234.006 45.0255 234 44.9568 233.981 44.8913C233.961 44.8259 233.928 44.7651 233.884 44.7128C233.837 44.675 233.782 44.647 233.724 44.6304C233.665 44.6138 233.604 44.609 233.544 44.6163C233.352 44.6268 233.161 44.6572 232.976 44.7071C232.748 44.7639 232.493 44.8151 232.197 44.8719C231.967 44.9262 231.729 44.9435 231.493 44.923C231.309 44.9105 231.135 44.8365 230.999 44.7128C230.856 44.5654 230.755 44.3833 230.704 44.1846C230.633 43.8889 230.601 43.5854 230.607 43.2814C230.607 42.9574 230.649 42.6347 230.732 42.3215C230.811 42.0028 230.922 41.6927 231.061 41.3957C231.201 41.0994 231.372 40.8194 231.573 40.5607C231.765 40.3086 231.982 40.0764 232.22 39.8678V39.0328C232.223 38.9405 232.244 38.8496 232.283 38.7659C232.315 38.6902 232.368 38.6252 232.436 38.5784L233.089 38.2035C233.109 38.1848 233.136 38.1743 233.163 38.1743C233.191 38.1743 233.217 38.1848 233.237 38.2035C233.262 38.2289 233.28 38.2593 233.292 38.2926C233.304 38.3259 233.308 38.3614 233.305 38.3967L233.328 39.2771Z" fill="#FAFAFA"/>
<path d="M238.207 90.4935L235.151 88.7441H235.123C233.777 87.9829 231.931 88.0965 229.886 89.278C225.768 91.6522 222.434 97.4345 222.434 102.189C222.434 104.563 223.263 106.227 224.609 107.011L227.37 108.584L228.028 107.482C228.78 107.315 229.502 107.035 230.17 106.653C234.282 104.273 237.622 98.4909 237.622 93.7368C237.619 93.0956 237.541 92.4569 237.389 91.834L238.207 90.4935Z" fill="#44A2C6"/>
<path d="M222.451 102.178C222.451 104.552 223.28 106.216 224.627 107L227.387 108.573L228.046 107.471C228.797 107.302 229.519 107.02 230.187 106.636C232.543 105.153 234.454 103.061 235.72 100.581L224.928 94.3335C223.41 96.6772 222.555 99.3875 222.451 102.178Z" fill="#263238"/>
<path d="M238.212 90.4935L235.179 88.7441H235.15C233.804 87.9829 231.958 88.0965 229.913 89.278C227.87 90.5423 226.162 92.2827 224.938 94.3502L235.73 100.598C236.914 98.4938 237.571 96.1336 237.644 93.7197C237.641 93.0785 237.563 92.4398 237.411 91.8169L238.212 90.4935Z" fill="#455A64"/>
<path d="M232.782 90.9199C228.67 93.2941 225.33 99.0764 225.33 103.831C225.33 108.585 228.67 110.51 232.782 108.136C236.895 105.762 240.263 99.9681 240.263 95.2253C240.263 90.4825 236.9 88.5456 232.782 90.9199Z" fill="#37474F"/>
<path d="M236.576 101.223L228.993 105.603C228.902 105.654 228.834 105.603 228.834 105.449V98.7241C228.832 98.6589 228.846 98.5941 228.873 98.5349C228.901 98.4758 228.942 98.4239 228.993 98.3833L236.576 94.004C236.661 93.9529 236.735 94.004 236.735 94.1574V100.888C236.736 100.952 236.722 101.016 236.694 101.074C236.667 101.132 236.626 101.183 236.576 101.223Z" fill="#FAFAFA"/>
<path d="M234.276 95.7763C234.19 95.8274 234.117 95.7763 234.117 95.6229V94.6005L231.453 96.1398V97.1622C231.454 97.2279 231.439 97.293 231.411 97.3522C231.382 97.4114 231.34 97.463 231.288 97.503C231.203 97.5541 231.129 97.503 231.129 97.3497V96.0773C231.128 96.013 231.142 95.9494 231.169 95.8913C231.197 95.8332 231.238 95.7822 231.288 95.7422L234.276 94.0382C234.367 93.9871 234.435 94.0382 234.435 94.1916V95.4241C234.439 95.4914 234.427 95.5587 234.399 95.6202C234.372 95.6816 234.329 95.7352 234.276 95.7763Z" fill="#FAFAFA"/>
<path d="M234.276 94.5096L231.288 96.2136C231.203 96.2647 231.129 96.2135 231.129 96.0602V95.4922C231.128 95.4271 231.142 95.3628 231.17 95.3038C231.197 95.2449 231.238 95.1928 231.288 95.1514L234.276 93.4474C234.367 93.3963 234.435 93.4474 234.435 93.6007V94.1687C234.436 94.234 234.423 94.2988 234.395 94.3579C234.368 94.4171 234.327 94.469 234.276 94.5096Z" fill="#FAFAFA"/>
<path d="M233.867 98.7072L231.698 99.9568C231.635 99.9965 231.584 99.9568 231.584 99.8432V99.4342C231.583 99.3876 231.593 99.3413 231.613 99.299C231.632 99.2566 231.661 99.2194 231.698 99.19L233.867 97.9404C233.936 97.9006 233.987 97.9404 233.987 98.0483V98.4573C233.988 98.5054 233.978 98.553 233.957 98.5965C233.936 98.6399 233.905 98.6778 233.867 98.7072Z" fill="#37474F"/>
<path d="M238.207 62.7072L235.151 60.9521H235.123C233.777 60.1909 231.931 60.3045 229.886 61.486C225.768 63.8659 222.434 69.6425 222.434 74.3966C222.434 76.7709 223.263 78.4408 224.609 79.2189L227.37 80.7923L228.028 79.6904C228.781 79.5255 229.503 79.2458 230.17 78.8611C234.282 76.4812 237.622 70.7046 237.622 65.9505C237.62 65.3074 237.542 64.6668 237.389 64.042L238.207 62.7072Z" fill="#44A2C6"/>
<path d="M222.451 74.4078C222.451 76.7821 223.28 78.452 224.627 79.2301L227.387 80.8035L228.046 79.7016C228.798 79.5367 229.52 79.257 230.187 78.8723C232.546 77.3802 234.458 75.2783 235.72 72.789L224.928 66.541C223.406 68.8913 222.551 71.6099 222.451 74.4078Z" fill="#263238"/>
<path d="M238.212 62.7072L235.179 60.9521H235.15C233.804 60.1966 231.958 60.3046 229.913 61.486C227.87 62.7504 226.162 64.4907 224.938 66.5582L235.73 72.8062C236.907 70.7116 237.562 68.3636 237.638 65.9618C237.636 65.3187 237.558 64.6781 237.405 64.0534L238.212 62.7072Z" fill="#455A64"/>
<path d="M232.782 63.1273C228.67 65.5072 225.33 71.2838 225.33 76.0379C225.33 80.7921 228.67 82.7233 232.782 80.3434C236.895 77.9634 240.263 72.1869 240.263 67.4327C240.263 62.6786 236.9 60.7758 232.782 63.1273Z" fill="#37474F"/>
<path d="M230.039 70.6934C230.039 69.6142 230.607 68.4214 231.311 68.001C232.016 67.5807 232.584 68.143 232.584 69.2279C232.584 70.3128 232.016 71.4999 231.311 71.9202C230.607 72.3406 230.039 71.7782 230.039 70.6934Z" fill="white"/>
<path d="M233.583 76.1458L228.902 78.8495L229.152 75.7368C229.26 74.4134 229.959 73.0559 230.788 72.5788L231.691 72.0562C232.521 71.5791 233.219 72.1244 233.327 73.3285L233.583 76.1458Z" fill="white"/>
<path d="M233.129 67.4497C233.129 66.3705 233.697 65.1777 234.401 64.7574C235.106 64.3371 235.674 64.8994 235.674 65.9843C235.674 67.0692 235.106 68.2563 234.401 68.6766C233.697 69.0969 233.129 68.5346 233.129 67.4497Z" fill="white"/>
<path d="M236.663 72.9027L233.794 74.5612L233.664 73.0731C233.567 72.028 233.096 71.3691 232.471 71.3691C232.691 70.5547 233.187 69.842 233.874 69.3527L234.777 68.8358C235.606 68.353 236.305 68.8983 236.413 70.1024L236.663 72.9027Z" fill="white"/>
<path d="M160.461 178.818C160.461 175.296 158.132 171.775 153.474 169.088C144.165 163.709 129.05 163.709 119.758 169.088C115.1 171.775 112.771 175.296 112.771 178.818V185.31C112.771 188.832 115.1 192.353 119.758 195.046C129.067 200.419 144.182 200.419 153.474 195.046C158.132 192.353 160.461 188.832 160.461 185.31V178.818ZM120.911 171.082C125.069 168.679 130.646 167.361 136.616 167.361C142.586 167.361 148.164 168.679 152.321 171.082C156.081 173.251 158.155 176 158.155 178.818C158.155 181.635 156.081 184.384 152.321 186.554C148.164 188.957 142.569 190.28 136.616 190.28C130.663 190.28 125.069 188.957 120.911 186.554C117.151 184.384 115.078 181.635 115.078 178.818C115.078 176 117.151 173.24 120.911 171.082Z" fill="#44A2C6"/>
<path opacity="0.3" d="M119.753 188.576C129.068 193.949 144.177 193.949 153.475 188.576C162.774 183.203 162.785 174.484 153.475 169.111C144.166 163.737 129.051 163.732 119.753 169.111C110.455 174.49 110.444 183.18 119.753 188.576ZM115.079 178.841C115.079 176.001 117.146 173.274 120.906 171.104C125.064 168.702 130.648 167.384 136.617 167.384C142.587 167.384 148.165 168.702 152.322 171.104C156.083 173.274 158.15 176.023 158.15 178.841C158.15 181.658 156.083 184.407 152.322 186.577C148.165 188.957 142.57 190.28 136.617 190.28C130.665 190.28 125.064 188.957 120.906 186.554C117.146 184.384 115.079 181.635 115.079 178.818V178.841Z" fill="white"/>
<path d="M115.078 178.818C115.092 179.965 115.414 181.087 116.01 182.067C116.953 180.431 118.617 178.892 120.911 177.574C125.064 175.171 130.647 173.848 136.617 173.848C142.586 173.848 148.164 175.171 152.322 177.574C154.317 178.625 156.007 180.172 157.229 182.067C157.821 181.085 158.141 179.964 158.155 178.818C158.155 175.978 156.082 173.251 152.322 171.082C148.164 168.685 142.586 167.361 136.617 167.361C130.647 167.361 125.064 168.685 120.911 171.082C117.146 173.24 115.078 176.001 115.078 178.818Z" fill="#44A2C6"/>
<path opacity="0.1" d="M115.078 178.818C115.092 179.965 115.414 181.087 116.01 182.067C116.953 180.431 118.617 178.892 120.911 177.574C125.064 175.171 130.647 173.848 136.617 173.848C142.586 173.848 148.164 175.171 152.322 177.574C154.317 178.625 156.007 180.172 157.229 182.067C157.821 181.085 158.141 179.964 158.155 178.818C158.155 175.978 156.082 173.251 152.322 171.082C148.164 168.685 142.586 167.361 136.617 167.361C130.647 167.361 125.064 168.685 120.911 171.082C117.146 173.24 115.078 176.001 115.078 178.818Z" fill="black"/>
<path opacity="0.4" d="M120.906 174.018C125.064 171.621 130.647 170.298 136.617 170.298C142.587 170.298 148.164 171.621 152.322 174.018C155.423 175.813 157.372 177.994 157.962 180.266C157.394 182.538 155.423 184.742 152.322 186.514C148.164 188.957 142.57 190.28 136.617 190.28C130.664 190.28 125.064 188.957 120.906 186.554C117.805 184.765 115.857 182.578 115.271 180.306C115.874 177.994 117.805 175.813 120.906 174.018Z" fill="white"/>
<path opacity="0.1" d="M131 192.2V198.686C127.055 198.198 123.241 196.962 119.759 195.045C115.101 192.353 112.772 188.832 112.772 185.31V178.818C112.774 178.1 112.87 177.386 113.056 176.693C111.92 180.885 114.158 185.321 119.753 188.553C123.236 190.472 127.053 191.71 131 192.2Z" fill="black"/>
<path d="M120.463 192.683C120.434 192.103 120.268 191.539 119.98 191.036C119.692 190.532 119.289 190.104 118.804 189.786C118.637 189.663 118.44 189.587 118.233 189.565C118.027 189.543 117.818 189.576 117.629 189.661L109.625 194.256C109.454 194.373 109.317 194.535 109.231 194.724C109.145 194.914 109.112 195.123 109.137 195.329C109.162 195.907 109.322 196.47 109.604 196.974C109.886 197.478 110.282 197.909 110.761 198.232C110.93 198.355 111.128 198.432 111.336 198.453C111.544 198.473 111.753 198.438 111.943 198.351L119.969 193.773C120.141 193.652 120.277 193.487 120.364 193.295C120.451 193.103 120.485 192.892 120.463 192.683Z" fill="#37474F"/>
<path d="M119.969 193.768C120.14 193.647 120.276 193.483 120.363 193.292C120.45 193.101 120.484 192.891 120.463 192.683C120.456 192.252 120.361 191.826 120.185 191.433L109.83 197.352C110.079 197.704 110.395 198.004 110.762 198.232C110.93 198.356 111.128 198.432 111.336 198.453C111.544 198.474 111.753 198.439 111.943 198.351L119.969 193.773V193.768Z" fill="#263238"/>
<path d="M112.112 198.232C112.075 197.477 111.86 196.741 111.485 196.085C111.11 195.428 110.585 194.87 109.953 194.455C109.738 194.298 109.485 194.2 109.22 194.171C108.955 194.142 108.687 194.183 108.442 194.29L81.8203 208.49L85.7963 215.51L111.493 199.606C111.707 199.451 111.876 199.243 111.985 199.002C112.094 198.76 112.137 198.495 112.112 198.232Z" fill="#44A2C6"/>
<path opacity="0.1" d="M85.7694 215.505L111.466 199.601C111.688 199.446 111.865 199.234 111.978 198.987C112.091 198.74 112.136 198.468 112.108 198.198C112.075 197.389 111.826 196.605 111.386 195.926L83.7246 211.864L85.7694 215.505Z" fill="black"/>
<path d="M83.7638 215.272C82.9341 214.728 82.2445 213.996 81.751 213.136C81.2576 212.275 80.9741 211.31 80.9238 210.319C80.9238 208.502 82.2075 207.769 83.7638 208.683C84.5934 209.226 85.283 209.957 85.7765 210.817C86.2701 211.676 86.5535 212.641 86.6038 213.631C86.6152 215.477 85.3372 216.209 83.7638 215.272Z" fill="#44A2C6"/>
<g opacity="0.2">
<path opacity="0.2" d="M83.7638 215.272C82.9341 214.728 82.2445 213.996 81.751 213.136C81.2576 212.275 80.9741 211.31 80.9238 210.319C80.9238 208.502 82.2075 207.769 83.7638 208.683C84.5934 209.226 85.283 209.957 85.7765 210.817C86.2701 211.676 86.5535 212.641 86.6038 213.631C86.6152 215.477 85.3372 216.209 83.7638 215.272Z" fill="black"/>
</g>
<path d="M240.679 152.542C240.968 141.75 240.111 139.154 237.231 137.172L236.095 143.42C236.095 143.42 237.407 150.804 237.265 153.252C237.146 155.41 236.935 158.114 236.424 159.858C236.331 160.165 236.129 160.427 235.856 160.596C235.261 161.02 234.729 161.527 234.277 162.101C233.846 162.556 233.476 162.669 233.533 162.811C233.616 162.97 233.756 163.091 233.924 163.151C234.093 163.211 234.278 163.206 234.442 163.135C234.81 162.989 235.159 162.798 235.481 162.567C235.227 163.229 234.868 163.847 234.419 164.396C233.391 165.651 233.346 166.424 235.419 166.447C236.72 166.447 237.759 165.657 238.736 162.794C239.114 161.745 239.419 160.671 239.651 159.579C240.137 157.257 240.48 154.907 240.679 152.542Z" fill="#FFA8A7"/>
<path d="M234.811 136.354C235.694 136.196 236.605 136.33 237.406 136.734C238.207 137.139 238.855 137.793 239.252 138.598C240.456 140.75 240.752 144.46 240.888 148.146C240.888 148.146 238.497 150.151 235.623 149.168L234.811 136.354Z" fill="#44A2C6"/>
<path d="M238.85 195.767C239.065 195.852 239.122 196.267 239.156 197.09C239.156 197.715 239.31 198.794 238.588 199.027C237.867 199.26 236.782 199.129 236.316 198.544C235.748 197.806 235.334 197.164 234.499 196.272C233.772 195.494 232.988 194.767 232.698 193.677C232.431 192.688 232.653 192.262 233.323 191.973C234.249 191.581 235.703 192.87 236.43 193.069C237.043 193.239 238.628 195.687 238.85 195.767Z" fill="#263238"/>
<path d="M238.848 195.005V196.016C238.468 196.26 238.028 196.396 237.577 196.408C237.125 196.42 236.679 196.308 236.286 196.085C236.241 195.988 236.02 194.636 236.02 194.636L238.848 195.005Z" fill="#FFA8A7"/>
<path d="M230.635 201.64C230.814 202.182 230.964 202.734 231.084 203.293C231.209 203.906 231.39 204.928 231.174 205.388C230.959 205.849 230.124 206.15 228.823 206.138C227.744 206.27 226.706 206.632 225.778 207.2C224.569 207.714 223.253 207.922 221.944 207.808C220.808 207.677 219.593 207.007 219.405 206.53C219.218 206.053 219.468 205.553 222.189 204.394C222.189 204.394 225.972 203.162 227.301 201.708L230.635 201.64Z" fill="#263238"/>
<path d="M230.636 200.504V201.685C230.636 202.117 230.136 202.759 228.819 202.708C227.899 202.674 227.251 202.429 227.291 201.668V200.572L230.636 200.504Z" fill="#FFA8A7"/>
<path d="M239.508 181.556C239.283 179.76 238.881 177.99 238.309 176.273C238.309 176.273 238.673 171.729 238.843 167.401C239.031 162.738 238.843 156.87 238.923 155.706C238.923 155.706 223.871 152.661 223.587 158.057C223.303 163.453 224.155 177.176 224.359 179.545C224.564 181.913 224.927 184.004 225.433 187.843C225.938 191.683 227.273 200.584 227.273 200.584C227.793 200.849 228.371 200.981 228.954 200.969C229.538 200.957 230.11 200.801 230.619 200.515C230.619 200.515 231.681 189.723 231.567 187.003C231.482 184.976 231.134 182.97 230.533 181.033C230.533 181.033 230.817 176.586 231.067 172.717C231.317 168.849 231.59 166.992 231.635 165.333L231.959 165.174C231.959 165.174 232.288 171.848 232.47 174.217C232.652 176.586 233.038 178.858 233.708 183.254C234.305 187.071 236.071 195.148 236.071 195.148C237.775 196.079 238.82 195.028 238.82 195.028C238.82 195.028 239.968 184.867 239.508 181.556Z" fill="#37474F"/>
<path d="M231.664 165.288C231.664 165.288 235.316 163.487 237.145 161.88C237.145 161.88 235.441 164.271 233.22 165.328C233.22 165.328 232.425 173.62 232.431 173.456L231.971 165.288H231.664Z" fill="#263238"/>
<path d="M228.414 134.644L229.306 139.546L233.731 139.223L232.805 133.667L228.414 134.644Z" fill="#FFA8A7"/>
<path d="M238.411 138.864C237.968 137.53 236.281 136.081 234.588 136.394C232.081 136.823 229.611 137.442 227.198 138.245C225.648 138.813 224.239 140.137 224.108 145.232C224.108 145.232 223.591 157.114 223.58 159.432C226.813 160.7 230.334 161.048 233.753 160.437C238.411 159.42 238.973 157.489 238.973 157.489C238.973 157.489 239.03 148.969 238.893 145.254C238.751 142.102 238.712 139.779 238.411 138.864Z" fill="#F5F5F5"/>
<path d="M224.995 128.68C224.995 128.68 223.859 130.469 224.012 130.64C224.166 130.81 225.006 130.946 225.006 130.946L224.995 128.68Z" fill="#FFA8A7"/>
<path d="M228.114 123.727C225.774 124.295 225.121 125.329 224.979 129.066C224.837 132.98 225.263 134.178 225.791 134.712C226.143 135.059 228.063 135.082 229.034 134.792C230.244 134.428 232.965 133.395 234.209 131.384C235.669 129.038 235.998 125.897 234.345 124.647C232.028 122.909 229.068 123.506 228.114 123.727Z" fill="#FFA8A7"/>
<path d="M225.007 124.704C225.545 125.488 226.304 126.093 227.188 126.442C227.637 126.954 227.387 128.947 228.176 129.282C228.176 129.282 228.517 127.828 229.738 127.982C230.96 128.135 231.164 129.686 230.414 130.663C229.665 131.64 228.938 131.282 228.938 131.282C228.938 131.282 229.023 133.344 229.966 134.491C230.945 134.682 231.956 134.635 232.914 134.355C234.084 134.076 235.714 132.565 236.378 130.992C237.787 127.669 237.821 124.704 235.697 123.864C235.435 122.347 234.226 121.694 232.857 121.416C229.909 120.808 228.012 122.648 225.745 122.483C224.445 122.375 224.2 123.324 225.007 124.704Z" fill="#263238"/>
<path d="M235.747 124.352L237.133 123.489C237.08 123.391 237.007 123.305 236.919 123.236C236.832 123.167 236.731 123.116 236.623 123.088C236.515 123.059 236.402 123.053 236.292 123.07C236.182 123.086 236.076 123.125 235.981 123.184C235.886 123.243 235.805 123.321 235.741 123.413C235.678 123.504 235.634 123.608 235.612 123.718C235.59 123.827 235.59 123.94 235.614 124.049C235.637 124.158 235.682 124.261 235.747 124.352Z" fill="#263238"/>
<path d="M208.455 147.072C209.182 147.396 217.759 153.735 219.099 152.996C220.44 152.258 227.296 144.238 227.296 144.238C227.875 143.342 228.184 142.297 228.184 141.23C228.184 140.163 227.875 139.119 227.296 138.223C225.955 138.512 224.765 139.277 223.944 140.375C222.808 142.113 217.821 148.327 217.821 148.327C216.595 147.714 215.368 147.089 214.152 146.459C213.147 145.936 212.136 145.419 211.153 144.857C210.876 144.732 210.616 144.572 210.381 144.38C209.892 143.903 209.977 142.738 209.989 142.108C209.985 141.814 209.998 141.52 210.028 141.227C210.074 140.864 210.142 139.983 209.489 140.262C209.367 140.323 209.262 140.413 209.182 140.523C209.079 140.656 209 140.806 208.949 140.966C208.824 141.347 208.864 141.767 208.756 142.148C208.743 142.206 208.713 142.259 208.671 142.301C208.643 142.325 208.611 142.343 208.575 142.354C208.54 142.365 208.503 142.368 208.466 142.363C207.524 142.335 206.626 141.012 206.194 140.307C206.037 139.973 205.789 139.689 205.479 139.489C205.205 139.407 204.912 139.418 204.646 139.521C204.379 139.624 204.155 139.812 204.008 140.057C203.599 140.67 203.432 141.413 203.536 142.142C203.621 143.132 204.058 144.06 204.769 144.755C205.855 145.734 207.102 146.518 208.455 147.072Z" fill="#FFA8A7"/>
<path d="M228.062 137.967C227.119 138.075 225.79 137.899 223.938 139.893C222.444 141.599 221.05 143.391 219.764 145.26C220.008 146.241 220.53 147.131 221.266 147.824C222.002 148.517 222.922 148.984 223.916 149.168C223.916 149.168 227.159 145.84 228.062 144.011C228.965 142.182 229.181 139.206 228.062 137.967Z" fill="#44A2C6"/>
</svg>
