<svg width="312" height="312" viewBox="0 0 312 312" fill="none" xmlns="http://www.w3.org/2000/svg">
<path d="M60.9963 257.619C113.462 285.031 198.538 285.031 251.004 257.619C303.47 230.206 303.476 185.765 251.004 158.353C198.532 130.94 113.462 130.94 60.9963 158.353C8.53039 185.765 8.52415 230.206 60.9963 257.619Z" fill="#F5F5F5"/>
<path d="M197.003 250.686C212.825 250.686 225.651 244.573 225.651 237.032C225.651 229.492 212.825 223.379 197.003 223.379C181.182 223.379 168.355 229.492 168.355 237.032C168.355 244.573 181.182 250.686 197.003 250.686Z" fill="#EBEBEB"/>
<path d="M247.752 219.548C259.959 219.548 269.855 214.832 269.855 209.015C269.855 203.198 259.959 198.482 247.752 198.482C235.546 198.482 225.65 203.198 225.65 209.015C225.65 214.832 235.546 219.548 247.752 219.548Z" fill="#EBEBEB"/>
<path d="M90.2251 206.064C88.9771 199.474 84.4094 190.083 78.8371 184.848C73.4769 179.818 65.5209 178.065 62.351 180.386C59.1811 182.707 61.259 187.724 67.4117 193.84C74.3568 200.735 87.6916 219.867 90.2251 230.705V206.064Z" fill="#44A2C6"/>
<g opacity="0.2">
<path opacity="0.2" d="M90.2251 206.064C88.9771 199.474 84.4094 190.083 78.8371 184.848C73.4769 179.818 65.5209 178.065 62.351 180.386C59.1811 182.707 61.259 187.724 67.4117 193.84C74.3568 200.735 87.6916 219.867 90.2251 230.705V206.064Z" fill="black"/>
</g>
<path d="M90.2248 221.919C90.1466 221.918 90.0716 221.888 90.0141 221.835C89.9565 221.782 89.9205 221.71 89.9128 221.632C88.3403 205.034 76.7339 186.376 65.5768 182.489C65.4989 182.461 65.4351 182.403 65.399 182.328C65.3629 182.254 65.3573 182.168 65.3834 182.09C65.4117 182.012 65.4692 181.948 65.5438 181.912C65.6184 181.876 65.7041 181.87 65.7827 181.896C77.3517 185.921 88.9269 204.466 90.5493 221.576C90.5563 221.659 90.5309 221.741 90.4785 221.805C90.4261 221.869 90.3508 221.91 90.2685 221.919H90.2248Z" fill="white"/>
<path d="M90.2242 238.674C90.2242 238.674 88.0652 240.396 80.8642 239.722C73.6633 239.048 69.9505 233.9 69.9505 231.691C69.9505 229.482 76.5711 229.102 78.0063 223.623C76.5464 225.188 74.6043 226.218 72.4902 226.55C68.7462 227.255 65.7385 226.057 64.8836 219.236C66.7289 219.506 68.6115 219.35 70.3873 218.781C73.3513 217.826 74.0564 216.198 73.2826 215.848C72.5089 215.499 68.378 215.848 65.7322 214.843C63.0865 213.839 65.1082 200.061 66.843 199.081C68.5777 198.102 76.7833 200.41 78.3807 201.646C79.8034 202.744 81.8002 204.647 80.8767 208.672C81.9707 207.649 82.8233 206.396 83.3727 205.003C84.1465 203.131 84.7081 203.568 85.8687 204.285C86.5657 204.678 87.1706 205.216 87.6431 205.861C88.1155 206.507 88.4445 207.246 88.6081 208.029C88.8889 209.777 88.4334 215.804 85.9748 217.764C85.9748 217.764 88.3335 218.063 90.2617 214.082C90.2617 214.082 94.0057 215.592 94.8543 218.038C95.703 220.484 96.6265 232.459 90.2242 238.674Z" fill="#44A2C6"/>
<path d="M90.8616 240.034C90.7853 240.033 90.7119 240.005 90.6546 239.955C90.5973 239.904 90.5601 239.835 90.5496 239.759C88.9023 226.275 78.6499 208.559 68.5973 201.908C68.5278 201.861 68.4795 201.789 68.4631 201.707C68.4468 201.625 68.4636 201.54 68.5099 201.471C68.5563 201.401 68.6283 201.353 68.7102 201.337C68.7922 201.32 68.8772 201.337 68.9467 201.383C79.1242 208.154 89.5387 226.05 91.1674 239.685C91.178 239.766 91.1557 239.849 91.1054 239.915C91.0551 239.98 90.9809 240.023 90.8991 240.034H90.8616Z" fill="white"/>
<path d="M91.4902 241.919C91.1179 241.661 90.8111 241.319 90.5944 240.922C90.3777 240.524 90.2571 240.081 90.2422 239.629V90.5487C90.2677 90.0796 90.4036 89.6231 90.6389 89.2165C90.8742 88.8098 91.2022 88.4645 91.5963 88.2087L185.196 34.1578C185.587 33.9124 186.038 33.7783 186.5 33.7699C186.962 33.7616 187.417 33.8792 187.817 34.1103C188.216 34.3413 188.546 34.677 188.769 35.0812C188.992 35.4853 189.101 35.9428 189.084 36.4042L94.111 241.869C93.7089 242.083 93.2619 242.199 92.8066 242.207C92.3512 242.216 91.9002 242.117 91.4902 241.919Z" fill="#E0E0E0"/>
<path d="M92.758 93.3817L130.778 68.5028L128.245 67.0364L91.5787 88.2087C91.1846 88.4645 90.8566 88.8098 90.6213 89.2165C90.386 89.6231 90.2501 90.0796 90.2246 90.5487V91.9153L92.758 93.3817Z" fill="#37474F"/>
<path opacity="0.2" d="M92.758 93.3817L130.778 68.5028L128.245 67.0364L91.5787 88.2087C91.1846 88.4645 90.8566 88.8098 90.6213 89.2165C90.386 89.6231 90.2501 90.0796 90.2246 90.5487V91.9153L92.758 93.3817Z" fill="#37474F"/>
<path d="M105.456 97.7683L90.6173 89.2319C90.3755 89.6344 90.2402 90.0918 90.2242 90.5611V239.616C90.2081 240.077 90.3178 240.533 90.5416 240.937C90.7654 241.34 91.0947 241.675 91.4943 241.905C91.8939 242.135 92.3487 242.252 92.8098 242.244C93.2709 242.235 93.721 242.101 94.1117 241.856L105.456 235.335V97.7683Z" fill="#263238"/>
<path opacity="0.4" d="M105.456 97.7683L90.6173 89.2319C90.3755 89.6344 90.2402 90.0918 90.2242 90.5611V239.616C90.2081 240.077 90.3178 240.533 90.5416 240.937C90.7654 241.34 91.0947 241.675 91.4943 241.905C91.8939 242.135 92.3487 242.252 92.8098 242.244C93.2709 242.235 93.721 242.101 94.1117 241.856L105.456 235.335V97.7683Z" fill="#263238"/>
<path d="M94.1119 241.869L187.712 187.818C188.106 187.562 188.434 187.217 188.669 186.81C188.905 186.403 189.041 185.947 189.066 185.478V36.4043C189.066 35.5432 188.442 35.1937 187.712 35.6243L94.1119 89.6752C93.7179 89.931 93.3898 90.2763 93.1545 90.6829C92.9192 91.0896 92.7833 91.546 92.7578 92.0152V241.089C92.7578 241.95 93.3631 242.299 94.1119 241.869Z" fill="#455A64"/>
<path opacity="0.1" d="M94.1119 241.869L187.712 187.818C188.106 187.562 188.434 187.217 188.669 186.81C188.905 186.403 189.041 185.947 189.066 185.478V36.4043C189.066 35.5432 188.442 35.1937 187.712 35.6243L94.1119 89.6752C93.7179 89.931 93.3898 90.2763 93.1545 90.6829C92.9192 91.0896 92.7833 91.546 92.7578 92.0152V241.089C92.7578 241.95 93.3631 242.299 94.1119 241.869Z" fill="#455A64"/>
<path d="M100.532 126.448L122.996 113.468C124.487 112.607 125.698 113.219 125.698 114.835C125.631 115.742 125.352 116.621 124.883 117.401C124.413 118.18 123.767 118.838 122.996 119.321L100.532 132.301C99.0344 133.162 97.8301 132.55 97.8301 130.934C97.8953 130.026 98.174 129.147 98.6435 128.367C99.1131 127.587 99.7601 126.93 100.532 126.448Z" fill="#44A2C6"/>
<path d="M100.532 135.658L115.402 127.071C116.893 126.21 118.104 126.822 118.104 128.438C118.037 129.345 117.758 130.224 117.288 131.004C116.819 131.783 116.173 132.441 115.402 132.925L100.532 141.511C99.0344 142.372 97.8301 141.76 97.8301 140.144C97.8953 139.236 98.174 138.357 98.6435 137.577C99.1131 136.798 99.7601 136.14 100.532 135.658Z" fill="#44A2C6"/>
<path d="M98.9096 151.42L101.817 149.741C102.441 149.398 102.897 149.679 102.897 150.365V153.722C102.877 154.097 102.768 154.462 102.581 154.787C102.393 155.113 102.132 155.389 101.817 155.594L98.9096 157.248C98.2856 157.597 97.8301 157.317 97.8301 156.624V153.267C97.8546 152.896 97.9649 152.537 98.1523 152.216C98.3396 151.896 98.5989 151.623 98.9096 151.42Z" fill="#44A2C6"/>
<path opacity="0.2" d="M98.9096 151.42L101.817 149.741C102.441 149.398 102.897 149.679 102.897 150.365V153.722C102.877 154.097 102.768 154.462 102.581 154.787C102.393 155.113 102.132 155.389 101.817 155.594L98.9096 157.248C98.2856 157.597 97.8301 157.317 97.8301 156.624V153.267C97.8546 152.896 97.9649 152.537 98.1523 152.216C98.3396 151.896 98.5989 151.623 98.9096 151.42Z" fill="black"/>
<path d="M98.9096 163.132L101.817 161.454C102.441 161.104 102.897 161.385 102.897 162.078V165.435C102.875 165.809 102.766 166.174 102.579 166.499C102.391 166.824 102.131 167.1 101.817 167.307L98.9096 168.985C98.2856 169.328 97.8301 169.048 97.8301 168.361V165.004C97.8493 164.629 97.9572 164.264 98.1449 163.938C98.3325 163.613 98.5946 163.337 98.9096 163.132Z" fill="#44A2C6"/>
<g opacity="0.2">
<path opacity="0.2" d="M98.9096 163.132L101.817 161.454C102.441 161.104 102.897 161.385 102.897 162.078V165.435C102.875 165.809 102.766 166.174 102.579 166.499C102.391 166.824 102.131 167.1 101.817 167.307L98.9096 168.985C98.2856 169.328 97.8301 169.048 97.8301 168.361V165.004C97.8493 164.629 97.9572 164.264 98.1449 163.938C98.3325 163.613 98.5946 163.337 98.9096 163.132Z" fill="black"/>
</g>
<path d="M106.786 160.05L124.358 149.897C125.106 149.467 125.712 149.772 125.712 150.584C125.678 151.037 125.537 151.476 125.302 151.865C125.067 152.255 124.743 152.583 124.358 152.824L106.786 162.976C106.037 163.407 105.432 163.101 105.432 162.29C105.466 161.836 105.606 161.397 105.841 161.008C106.076 160.619 106.4 160.29 106.786 160.05Z" fill="#44A2C6"/>
<path opacity="0.2" d="M106.786 160.05L124.358 149.897C125.106 149.467 125.712 149.772 125.712 150.584C125.678 151.037 125.537 151.476 125.302 151.865C125.067 152.255 124.743 152.583 124.358 152.824L106.786 162.976C106.037 163.407 105.432 163.101 105.432 162.29C105.466 161.836 105.606 161.397 105.841 161.008C106.076 160.619 106.4 160.29 106.786 160.05Z" fill="black"/>
<path d="M98.9096 174.839L101.817 173.16C102.441 172.811 102.897 173.091 102.897 173.784V177.141C102.876 177.516 102.767 177.88 102.58 178.205C102.392 178.531 102.131 178.807 101.817 179.013L98.9096 180.692C98.2856 181.035 97.8301 180.754 97.8301 180.068V176.711C97.8493 176.336 97.9572 175.97 98.1449 175.645C98.3325 175.32 98.5946 175.043 98.9096 174.839Z" fill="#E0E0E0"/>
<path d="M106.786 171.756L124.358 161.616C125.106 161.185 125.712 161.491 125.712 162.302C125.679 162.756 125.539 163.196 125.304 163.585C125.068 163.974 124.744 164.302 124.358 164.542L106.786 174.695C106.037 175.126 105.432 174.82 105.432 174.009C105.464 173.553 105.603 173.111 105.838 172.72C106.074 172.328 106.398 171.998 106.786 171.756Z" fill="#F0F0F0"/>
<path d="M98.9096 186.576L101.817 184.897C102.441 184.548 102.897 184.829 102.897 185.521V188.879C102.876 189.253 102.767 189.618 102.58 189.943C102.392 190.268 102.131 190.544 101.817 190.751L98.9096 192.429C98.2856 192.772 97.8301 192.491 97.8301 191.805V188.448C97.8493 188.073 97.9572 187.708 98.1449 187.382C98.3325 187.057 98.5946 186.781 98.9096 186.576Z" fill="#E0E0E0"/>
<path d="M106.786 183.494L124.358 173.347C125.106 172.911 125.712 173.223 125.712 174.028C125.679 174.482 125.539 174.923 125.304 175.313C125.068 175.703 124.744 176.033 124.358 176.274L106.786 186.42C106.037 186.851 105.432 186.545 105.432 185.734C105.466 185.28 105.606 184.841 105.841 184.452C106.076 184.063 106.4 183.734 106.786 183.494Z" fill="#F0F0F0"/>
<path d="M98.9096 198.283L101.817 196.604C102.441 196.255 102.897 196.535 102.897 197.228V200.585C102.876 200.96 102.767 201.324 102.58 201.649C102.392 201.974 102.131 202.251 101.817 202.457L98.9096 204.136C98.2856 204.479 97.8301 204.198 97.8301 203.512V200.155C97.8493 199.779 97.9572 199.414 98.1449 199.089C98.3325 198.763 98.5946 198.487 98.9096 198.283Z" fill="#E0E0E0"/>
<path d="M106.786 195.2L124.358 185.053C125.106 184.617 125.712 184.929 125.712 185.734C125.679 186.188 125.539 186.629 125.304 187.019C125.068 187.409 124.744 187.739 124.358 187.98L106.786 198.126C106.037 198.557 105.432 198.251 105.432 197.44C105.466 196.986 105.606 196.547 105.841 196.158C106.076 195.769 106.4 195.441 106.786 195.2Z" fill="#F0F0F0"/>
<path d="M99.1779 209.801L111.658 202.582C112.407 202.151 113.012 202.457 113.012 203.268C112.978 203.722 112.838 204.161 112.603 204.55C112.367 204.939 112.044 205.267 111.658 205.508L99.1779 212.728C98.4354 213.159 97.8301 212.853 97.8301 212.048C97.8628 211.594 98.0019 211.154 98.236 210.764C98.4702 210.374 98.7928 210.044 99.1779 209.801Z" fill="#44A2C6"/>
<path d="M99.1779 215.654L124.356 201.121C125.105 200.691 125.71 200.997 125.71 201.802C125.677 202.256 125.538 202.697 125.302 203.087C125.067 203.477 124.743 203.807 124.356 204.048L99.1779 218.581C98.4354 219.012 97.8301 218.706 97.8301 217.901C97.8628 217.447 98.0019 217.007 98.236 216.617C98.4702 216.227 98.7928 215.897 99.1779 215.654Z" fill="#44A2C6"/>
<path opacity="0.8" d="M99.1779 215.654L124.356 201.121C125.105 200.691 125.71 200.997 125.71 201.802C125.677 202.256 125.538 202.697 125.302 203.087C125.067 203.477 124.743 203.807 124.356 204.048L99.1779 218.581C98.4354 219.012 97.8301 218.706 97.8301 217.901C97.8628 217.447 98.0019 217.007 98.236 216.617C98.4702 216.227 98.7928 215.897 99.1779 215.654Z" fill="white"/>
<path d="M99.1779 215.654L116.756 205.508C117.499 205.077 118.104 205.383 118.104 206.194C118.07 206.647 117.931 207.086 117.697 207.475C117.462 207.864 117.14 208.193 116.756 208.435L99.1779 218.581C98.4354 219.011 97.8301 218.706 97.8301 217.901C97.8628 217.447 98.0019 217.007 98.236 216.617C98.4702 216.226 98.7928 215.897 99.1779 215.654Z" fill="#44A2C6"/>
<path d="M99.1779 221.52L111.658 214.301C112.407 213.87 113.012 214.176 113.012 214.987C112.978 215.44 112.838 215.88 112.603 216.269C112.367 216.658 112.044 216.986 111.658 217.227L99.1779 224.447C98.4354 224.877 97.8301 224.572 97.8301 223.767C97.8628 223.313 98.0019 222.873 98.236 222.483C98.4702 222.092 98.7928 221.763 99.1779 221.52Z" fill="#44A2C6"/>
<path d="M106.786 148.337L124.358 138.191C125.106 137.761 125.712 138.066 125.712 138.878C125.678 139.331 125.537 139.77 125.302 140.159C125.067 140.549 124.743 140.877 124.358 141.118L106.786 151.264C106.037 151.694 105.432 151.389 105.432 150.584C105.465 150.129 105.604 149.689 105.84 149.298C106.075 148.908 106.399 148.579 106.786 148.337Z" fill="#44A2C6"/>
<path opacity="0.2" d="M106.786 148.337L124.358 138.191C125.106 137.761 125.712 138.066 125.712 138.878C125.678 139.331 125.537 139.77 125.302 140.159C125.067 140.549 124.743 140.877 124.358 141.118L106.786 151.264C106.037 151.694 105.432 151.389 105.432 150.584C105.465 150.129 105.604 149.689 105.84 149.298C106.075 148.908 106.399 148.579 106.786 148.337Z" fill="black"/>
<path d="M99.1779 221.52L111.658 214.301C112.407 213.87 113.012 214.176 113.012 214.987C112.978 215.44 112.838 215.88 112.603 216.269C112.367 216.658 112.044 216.986 111.658 217.227L99.1779 224.447C98.4354 224.877 97.8301 224.572 97.8301 223.767C97.8628 223.313 98.0019 222.873 98.236 222.483C98.4702 222.092 98.7928 221.763 99.1779 221.52Z" fill="#44A2C6"/>
<path d="M99.1779 227.355L124.356 212.822C125.105 212.391 125.71 212.697 125.71 213.502C125.677 213.956 125.538 214.397 125.302 214.787C125.067 215.178 124.743 215.507 124.356 215.748L99.1779 230.256C98.4354 230.693 97.8301 230.381 97.8301 229.576C97.8666 229.127 98.0075 228.692 98.2414 228.306C98.4754 227.92 98.7961 227.595 99.1779 227.355Z" fill="#44A2C6"/>
<path opacity="0.8" d="M99.1779 227.355L124.356 212.822C125.105 212.391 125.71 212.697 125.71 213.502C125.677 213.956 125.538 214.397 125.302 214.787C125.067 215.178 124.743 215.507 124.356 215.748L99.1779 230.256C98.4354 230.693 97.8301 230.381 97.8301 229.576C97.8666 229.127 98.0075 228.692 98.2414 228.306C98.4754 227.92 98.7961 227.595 99.1779 227.355Z" fill="white"/>
<path d="M99.1779 227.355L121.823 214.251C122.572 213.82 123.177 214.126 123.177 214.937C123.143 215.391 123.003 215.83 122.768 216.219C122.532 216.608 122.209 216.936 121.823 217.177L99.1779 230.281C98.4354 230.718 97.8301 230.406 97.8301 229.601C97.8628 229.147 98.0019 228.707 98.236 228.317C98.4702 227.927 98.7928 227.597 99.1779 227.355Z" fill="#44A2C6"/>
<path d="M187.724 35.6243L130.777 68.5028V220.696L187.724 187.824C188.118 187.568 188.446 187.223 188.681 186.816C188.916 186.41 189.052 185.953 189.078 185.484V36.4043C189.071 35.5681 188.447 35.1937 187.724 35.6243Z" fill="#EBEBEB"/>
<path opacity="0.6" d="M187.724 35.6243L130.777 68.5028V220.696L187.724 187.824C188.118 187.568 188.446 187.223 188.681 186.816C188.916 186.41 189.052 185.953 189.078 185.484V36.4043C189.071 35.5681 188.447 35.1937 187.724 35.6243Z" fill="#FAFAFA"/>
<path d="M130.778 74.3558V86.062L125.711 91.9151H130.778V103.621L184.005 72.8894V43.6238L130.778 74.3558Z" fill="#44A2C6"/>
<g opacity="0.6">
<path opacity="0.6" d="M137.741 74.7616L159.307 62.2816C160.349 61.6576 161.179 62.1692 161.179 63.3736C161.144 64.0279 160.957 64.6651 160.632 65.234C160.307 65.8029 159.853 66.2877 159.307 66.6496L137.741 79.0984C136.693 79.7224 135.869 79.2107 135.869 78.0064C135.907 77.3571 136.096 76.7256 136.421 76.1622C136.746 75.5988 137.198 75.1192 137.741 74.7616Z" fill="white"/>
</g>
<path d="M136.525 84.2399L178.265 60.1411C178.639 59.9289 178.939 60.0787 178.939 60.4843C178.923 60.7113 178.853 60.9313 178.736 61.1264C178.619 61.3216 178.458 61.4864 178.265 61.6075L136.525 85.6751C136.151 85.8873 135.852 85.7375 135.852 85.3319C135.872 85.1104 135.944 84.8966 136.061 84.7072C136.178 84.5178 136.337 84.3579 136.525 84.2399Z" fill="#44A2C6"/>
<path d="M136.525 84.2399L178.265 60.1411C178.639 59.9289 178.939 60.0787 178.939 60.4843C178.923 60.7113 178.853 60.9313 178.736 61.1264C178.619 61.3216 178.458 61.4864 178.265 61.6075L136.525 85.6751C136.151 85.8873 135.852 85.7375 135.852 85.3319C135.872 85.1104 135.944 84.8966 136.061 84.7072C136.178 84.5178 136.337 84.3579 136.525 84.2399Z" fill="#44A2C6"/>
<path opacity="0.6" d="M136.525 84.2399L178.265 60.1411C178.639 59.9289 178.939 60.0787 178.939 60.4843C178.923 60.7113 178.853 60.9313 178.736 61.1264C178.619 61.3216 178.458 61.4864 178.265 61.6075L136.525 85.6751C136.151 85.8873 135.852 85.7375 135.852 85.3319C135.872 85.1104 135.944 84.8966 136.061 84.7072C136.178 84.5178 136.337 84.3579 136.525 84.2399Z" fill="white"/>
<path d="M136.525 88.6079L178.265 64.5091C178.639 64.2907 178.939 64.4467 178.939 64.8523C178.923 65.0784 178.853 65.2976 178.736 65.4917C178.619 65.6859 178.457 65.8495 178.265 65.9692L136.525 90.0681C136.151 90.2865 135.852 90.1305 135.852 89.7249C135.868 89.4987 135.937 89.2796 136.054 89.0854C136.171 88.8913 136.333 88.7276 136.525 88.6079Z" fill="#44A2C6"/>
<path opacity="0.6" d="M136.525 88.6079L178.265 64.5091C178.639 64.2907 178.939 64.4467 178.939 64.8523C178.923 65.0784 178.853 65.2976 178.736 65.4917C178.619 65.6859 178.457 65.8495 178.265 65.9692L136.525 90.0681C136.151 90.2865 135.852 90.1305 135.852 89.7249C135.868 89.4987 135.937 89.2796 136.054 89.0854C136.171 88.8913 136.333 88.7276 136.525 88.6079Z" fill="white"/>
<path opacity="0.6" d="M136.525 92.976L178.265 68.8771C178.639 68.665 178.939 68.8147 178.939 69.2203C178.923 69.4474 178.853 69.6674 178.736 69.8625C178.619 70.0577 178.458 70.2225 178.265 70.3435L136.525 94.4424C136.151 94.6546 135.852 94.5048 135.852 94.0992C135.868 93.8722 135.937 93.6522 136.054 93.457C136.171 93.2619 136.333 93.0971 136.525 92.976Z" fill="white"/>
<path d="M138.098 105.269L141.024 103.584C141.648 103.234 142.104 103.515 142.104 104.208V107.565C142.083 107.94 141.975 108.304 141.787 108.63C141.6 108.955 141.338 109.231 141.024 109.437L138.117 111.116C137.493 111.459 137.037 111.178 137.037 110.492V107.141C137.054 106.767 137.159 106.403 137.344 106.078C137.528 105.753 137.786 105.475 138.098 105.269Z" fill="#44A2C6"/>
<path opacity="0.2" d="M138.098 105.269L141.024 103.584C141.648 103.234 142.104 103.515 142.104 104.208V107.565C142.083 107.94 141.975 108.304 141.787 108.63C141.6 108.955 141.338 109.231 141.024 109.437L138.117 111.116C137.493 111.459 137.037 111.178 137.037 110.492V107.141C137.054 106.767 137.159 106.403 137.344 106.078C137.528 105.753 137.786 105.475 138.098 105.269Z" fill="white"/>
<path d="M145.973 102.186L163.545 92.0339C164.294 91.6033 164.899 91.9091 164.899 92.7203C164.865 93.1738 164.725 93.6129 164.49 94.0021C164.254 94.3913 163.931 94.7196 163.545 94.9605L145.973 105.113C145.224 105.543 144.619 105.238 144.619 104.427C144.653 103.973 144.793 103.534 145.029 103.145C145.264 102.756 145.587 102.427 145.973 102.186Z" fill="#44A2C6"/>
<path opacity="0.8" d="M145.973 102.186L163.545 92.0339C164.294 91.6033 164.899 91.9091 164.899 92.7203C164.865 93.1738 164.725 93.6129 164.49 94.0021C164.254 94.3913 163.931 94.7196 163.545 94.9605L145.973 105.113C145.224 105.543 144.619 105.238 144.619 104.427C144.653 103.973 144.793 103.534 145.029 103.145C145.264 102.756 145.587 102.427 145.973 102.186Z" fill="white"/>
<path d="M137.691 115.752L181.995 90.1679C182.37 89.9495 182.669 90.1055 182.669 90.5049C182.654 90.732 182.585 90.9522 182.467 91.1475C182.35 91.3427 182.189 91.5074 181.995 91.6281L137.691 117.212C137.317 117.43 137.018 117.274 137.018 116.869C137.034 116.643 137.103 116.424 137.22 116.229C137.337 116.035 137.499 115.872 137.691 115.752Z" fill="#44A2C6"/>
<path d="M137.691 120.139L181.995 94.5546C182.37 94.3425 182.669 94.4922 182.669 94.8978C182.653 95.1248 182.584 95.3449 182.467 95.54C182.35 95.7352 182.188 95.9 181.995 96.021L137.691 121.605C137.317 121.817 137.018 121.667 137.018 121.262C137.034 121.035 137.103 120.815 137.22 120.62C137.337 120.425 137.499 120.26 137.691 120.139Z" fill="#44A2C6"/>
<path d="M137.691 124.532L181.995 98.9477C182.37 98.7293 182.669 98.8853 182.669 99.2847C182.654 99.5118 182.585 99.732 182.467 99.9272C182.35 100.122 182.189 100.287 181.995 100.408L137.691 125.992C137.317 126.21 137.018 126.054 137.018 125.655C137.033 125.428 137.102 125.208 137.22 125.012C137.337 124.817 137.498 124.652 137.691 124.532Z" fill="#44A2C6"/>
<path d="M137.691 128.931L181.995 103.347C182.37 103.135 182.669 103.285 182.669 103.69C182.653 103.917 182.584 104.137 182.467 104.332C182.35 104.528 182.188 104.692 181.995 104.814L137.691 130.398C137.317 130.61 137.018 130.46 137.018 130.054C137.034 129.827 137.103 129.607 137.22 129.412C137.337 129.217 137.499 129.052 137.691 128.931Z" fill="#44A2C6"/>
<path d="M137.691 115.752L181.995 90.1679C182.37 89.9495 182.669 90.1055 182.669 90.5049C182.654 90.732 182.585 90.9522 182.467 91.1475C182.35 91.3427 182.189 91.5074 181.995 91.6281L137.691 117.212C137.317 117.43 137.018 117.274 137.018 116.869C137.034 116.643 137.103 116.424 137.22 116.229C137.337 116.035 137.499 115.872 137.691 115.752Z" fill="#E0E0E0"/>
<path d="M137.691 120.139L181.995 94.5546C182.37 94.3425 182.669 94.4922 182.669 94.8978C182.653 95.1248 182.584 95.3449 182.467 95.54C182.35 95.7352 182.188 95.9 181.995 96.021L137.691 121.605C137.317 121.817 137.018 121.667 137.018 121.262C137.034 121.035 137.103 120.815 137.22 120.62C137.337 120.425 137.499 120.26 137.691 120.139Z" fill="#E0E0E0"/>
<path d="M137.691 124.532L181.995 98.9477C182.37 98.7293 182.669 98.8853 182.669 99.2847C182.654 99.5118 182.585 99.732 182.467 99.9272C182.35 100.122 182.189 100.287 181.995 100.408L137.691 125.992C137.317 126.21 137.018 126.054 137.018 125.655C137.033 125.428 137.102 125.208 137.22 125.012C137.337 124.817 137.498 124.652 137.691 124.532Z" fill="#E0E0E0"/>
<path d="M137.691 128.931L181.995 103.347C182.37 103.135 182.669 103.285 182.669 103.69C182.653 103.917 182.584 104.137 182.467 104.332C182.35 104.528 182.188 104.692 181.995 104.814L137.691 130.398C137.317 130.61 137.018 130.46 137.018 130.054C137.034 129.827 137.103 129.607 137.22 129.412C137.337 129.217 137.499 129.052 137.691 128.931Z" fill="#E0E0E0"/>
<path opacity="0.8" d="M137.691 115.752L181.995 90.1679C182.37 89.9495 182.669 90.1055 182.669 90.5049C182.654 90.732 182.585 90.9522 182.467 91.1475C182.35 91.3427 182.189 91.5074 181.995 91.6281L137.691 117.212C137.317 117.43 137.018 117.274 137.018 116.869C137.034 116.643 137.103 116.424 137.22 116.229C137.337 116.035 137.499 115.872 137.691 115.752Z" fill="#E0E0E0"/>
<path opacity="0.8" d="M137.691 120.139L181.995 94.5546C182.37 94.3425 182.669 94.4922 182.669 94.8978C182.653 95.1248 182.584 95.3449 182.467 95.54C182.35 95.7352 182.188 95.9 181.995 96.021L137.691 121.605C137.317 121.817 137.018 121.667 137.018 121.262C137.034 121.035 137.103 120.815 137.22 120.62C137.337 120.425 137.499 120.26 137.691 120.139Z" fill="#E0E0E0"/>
<path opacity="0.8" d="M137.691 124.532L181.995 98.9477C182.37 98.7293 182.669 98.8853 182.669 99.2847C182.654 99.5118 182.585 99.732 182.467 99.9272C182.35 100.122 182.189 100.287 181.995 100.408L137.691 125.992C137.317 126.21 137.018 126.054 137.018 125.655C137.033 125.428 137.102 125.208 137.22 125.012C137.337 124.817 137.498 124.652 137.691 124.532Z" fill="#E0E0E0"/>
<path opacity="0.8" d="M137.691 128.931L181.995 103.347C182.37 103.135 182.669 103.285 182.669 103.69C182.653 103.917 182.584 104.137 182.467 104.332C182.35 104.528 182.188 104.692 181.995 104.814L137.691 130.398C137.317 130.61 137.018 130.46 137.018 130.054C137.034 129.827 137.103 129.607 137.22 129.412C137.337 129.217 137.499 129.052 137.691 128.931Z" fill="#E0E0E0"/>
<path d="M137.691 147.576L181.995 121.992C182.37 121.774 182.669 121.93 182.669 122.329C182.654 122.556 182.585 122.776 182.467 122.972C182.35 123.167 182.189 123.332 181.995 123.452L137.691 149.036C137.317 149.255 137.018 149.099 137.018 148.693C137.034 148.467 137.103 148.248 137.22 148.054C137.337 147.859 137.499 147.696 137.691 147.576Z" fill="#E0E0E0"/>
<path d="M137.691 151.963L181.995 126.379C182.37 126.167 182.669 126.316 182.669 126.722C182.653 126.949 182.584 127.169 182.467 127.364C182.35 127.559 182.188 127.724 181.995 127.845L137.691 153.429C137.317 153.641 137.018 153.492 137.018 153.086C137.034 152.859 137.103 152.639 137.22 152.444C137.337 152.249 137.499 152.084 137.691 151.963Z" fill="#E0E0E0"/>
<path d="M137.691 156.356L181.995 130.772C182.37 130.554 182.669 130.71 182.669 131.109C182.654 131.336 182.585 131.556 182.467 131.751C182.35 131.947 182.189 132.111 181.995 132.232L137.691 157.816C137.317 158.034 137.018 157.878 137.018 157.479C137.033 157.252 137.102 157.032 137.22 156.837C137.337 156.641 137.498 156.477 137.691 156.356Z" fill="#E0E0E0"/>
<path d="M137.691 160.755L181.995 135.171C182.37 134.959 182.669 135.108 182.669 135.514C182.653 135.741 182.584 135.961 182.467 136.156C182.35 136.351 182.188 136.516 181.995 136.637L137.691 162.221C137.317 162.433 137.018 162.284 137.018 161.878C137.034 161.651 137.103 161.431 137.22 161.236C137.337 161.041 137.499 160.876 137.691 160.755Z" fill="#E0E0E0"/>
<path opacity="0.8" d="M137.691 147.576L181.995 121.992C182.37 121.774 182.669 121.93 182.669 122.329C182.654 122.556 182.585 122.776 182.467 122.972C182.35 123.167 182.189 123.332 181.995 123.452L137.691 149.036C137.317 149.255 137.018 149.099 137.018 148.693C137.034 148.467 137.103 148.248 137.22 148.054C137.337 147.859 137.499 147.696 137.691 147.576Z" fill="#E0E0E0"/>
<path opacity="0.8" d="M137.691 151.963L181.995 126.379C182.37 126.167 182.669 126.316 182.669 126.722C182.653 126.949 182.584 127.169 182.467 127.364C182.35 127.559 182.188 127.724 181.995 127.845L137.691 153.429C137.317 153.641 137.018 153.492 137.018 153.086C137.034 152.859 137.103 152.639 137.22 152.444C137.337 152.249 137.499 152.084 137.691 151.963Z" fill="#E0E0E0"/>
<path opacity="0.8" d="M137.691 156.356L181.995 130.772C182.37 130.554 182.669 130.71 182.669 131.109C182.654 131.336 182.585 131.556 182.467 131.751C182.35 131.947 182.189 132.111 181.995 132.232L137.691 157.816C137.317 158.034 137.018 157.878 137.018 157.479C137.033 157.252 137.102 157.032 137.22 156.837C137.337 156.641 137.498 156.477 137.691 156.356Z" fill="#E0E0E0"/>
<path opacity="0.8" d="M137.691 160.755L181.995 135.171C182.37 134.959 182.669 135.108 182.669 135.514C182.653 135.741 182.584 135.961 182.467 136.156C182.35 136.351 182.188 136.516 181.995 136.637L137.691 162.221C137.317 162.433 137.018 162.284 137.018 161.878C137.034 161.651 137.103 161.431 137.22 161.236C137.337 161.041 137.499 160.876 137.691 160.755Z" fill="#E0E0E0"/>
<path d="M137.691 180.024L181.995 154.44C182.37 154.222 182.669 154.377 182.669 154.777C182.654 155.004 182.585 155.224 182.467 155.419C182.35 155.615 182.189 155.779 181.995 155.9L137.691 181.484C137.317 181.702 137.018 181.546 137.018 181.141C137.034 180.915 137.103 180.696 137.22 180.501C137.337 180.307 137.499 180.144 137.691 180.024Z" fill="#E0E0E0"/>
<path d="M137.691 184.411L181.995 158.827C182.37 158.614 182.669 158.764 182.669 159.17C182.653 159.397 182.584 159.617 182.467 159.812C182.35 160.007 182.188 160.172 181.995 160.293L137.691 185.877C137.317 186.089 137.018 185.939 137.018 185.534C137.034 185.307 137.103 185.087 137.22 184.892C137.337 184.696 137.499 184.532 137.691 184.411Z" fill="#E0E0E0"/>
<path d="M137.691 188.804L181.995 163.22C182.37 163.001 182.669 163.157 182.669 163.557C182.654 163.784 182.585 164.004 182.467 164.199C182.35 164.394 182.189 164.559 181.995 164.68L137.691 190.264C137.317 190.482 137.018 190.326 137.018 189.927C137.033 189.7 137.102 189.48 137.22 189.284C137.337 189.089 137.498 188.924 137.691 188.804Z" fill="#E0E0E0"/>
<path d="M137.691 193.203L181.995 167.619C182.37 167.407 182.669 167.557 182.669 167.962C182.653 168.189 182.584 168.409 182.467 168.604C182.35 168.8 182.188 168.964 181.995 169.085L137.691 194.669C137.317 194.882 137.018 194.732 137.018 194.326C137.034 194.099 137.103 193.879 137.22 193.684C137.337 193.489 137.499 193.324 137.691 193.203Z" fill="#E0E0E0"/>
<path opacity="0.8" d="M137.691 180.024L181.995 154.44C182.37 154.222 182.669 154.377 182.669 154.777C182.654 155.004 182.585 155.224 182.467 155.419C182.35 155.615 182.189 155.779 181.995 155.9L137.691 181.484C137.317 181.702 137.018 181.546 137.018 181.141C137.034 180.915 137.103 180.696 137.22 180.501C137.337 180.307 137.499 180.144 137.691 180.024Z" fill="#E0E0E0"/>
<path opacity="0.8" d="M137.691 184.411L181.995 158.827C182.37 158.614 182.669 158.764 182.669 159.17C182.653 159.397 182.584 159.617 182.467 159.812C182.35 160.007 182.188 160.172 181.995 160.293L137.691 185.877C137.317 186.089 137.018 185.939 137.018 185.534C137.034 185.307 137.103 185.087 137.22 184.892C137.337 184.696 137.499 184.532 137.691 184.411Z" fill="#E0E0E0"/>
<path opacity="0.8" d="M137.691 188.804L181.995 163.22C182.37 163.001 182.669 163.157 182.669 163.557C182.654 163.784 182.585 164.004 182.467 164.199C182.35 164.394 182.189 164.559 181.995 164.68L137.691 190.264C137.317 190.482 137.018 190.326 137.018 189.927C137.033 189.7 137.102 189.48 137.22 189.284C137.337 189.089 137.498 188.924 137.691 188.804Z" fill="#E0E0E0"/>
<path opacity="0.8" d="M137.691 193.203L181.995 167.619C182.37 167.407 182.669 167.557 182.669 167.962C182.653 168.189 182.584 168.409 182.467 168.604C182.35 168.8 182.188 168.964 181.995 169.085L137.691 194.669C137.317 194.882 137.018 194.732 137.018 194.326C137.034 194.099 137.103 193.879 137.22 193.684C137.337 193.489 137.499 193.324 137.691 193.203Z" fill="#E0E0E0"/>
<path d="M138.098 137.461L141.024 135.782C141.648 135.439 142.104 135.72 142.104 136.406V139.776C142.085 140.151 141.977 140.516 141.789 140.842C141.602 141.167 141.339 141.443 141.024 141.648L138.117 143.326C137.493 143.67 137.037 143.395 137.037 142.702V139.345C137.053 138.97 137.157 138.603 137.342 138.276C137.526 137.948 137.785 137.669 138.098 137.461Z" fill="#44A2C6"/>
<path opacity="0.2" d="M138.098 137.461L141.024 135.782C141.648 135.439 142.104 135.72 142.104 136.406V139.776C142.085 140.151 141.977 140.516 141.789 140.842C141.602 141.167 141.339 141.443 141.024 141.648L138.117 143.326C137.493 143.67 137.037 143.395 137.037 142.702V139.345C137.053 138.97 137.157 138.603 137.342 138.276C137.526 137.948 137.785 137.669 138.098 137.461Z" fill="white"/>
<path d="M145.973 134.379L163.545 124.232C164.294 123.802 164.899 124.108 164.899 124.912C164.866 125.367 164.726 125.807 164.491 126.198C164.256 126.588 163.932 126.917 163.545 127.159L145.973 137.28C145.224 137.711 144.619 137.405 144.619 136.6C144.656 136.15 144.798 135.714 145.033 135.329C145.268 134.943 145.59 134.618 145.973 134.379Z" fill="#44A2C6"/>
<path opacity="0.8" d="M145.973 134.379L163.545 124.232C164.294 123.802 164.899 124.108 164.899 124.912C164.866 125.367 164.726 125.807 164.491 126.198C164.256 126.588 163.932 126.917 163.545 127.159L145.973 137.28C145.224 137.711 144.619 137.405 144.619 136.6C144.656 136.15 144.798 135.714 145.033 135.329C145.268 134.943 145.59 134.618 145.973 134.379Z" fill="white"/>
<path d="M138.098 169.659L141.024 167.981C141.648 167.631 142.104 167.912 142.104 168.605V171.962C142.084 172.337 141.976 172.702 141.789 173.027C141.601 173.353 141.339 173.629 141.024 173.834L138.117 175.513C137.493 175.856 137.037 175.575 137.037 174.889V171.531C137.054 171.158 137.159 170.794 137.344 170.469C137.528 170.143 137.786 169.866 138.098 169.659Z" fill="#44A2C6"/>
<path opacity="0.2" d="M138.098 169.659L141.024 167.981C141.648 167.631 142.104 167.912 142.104 168.605V171.962C142.084 172.337 141.976 172.702 141.789 173.027C141.601 173.353 141.339 173.629 141.024 173.834L138.117 175.513C137.493 175.856 137.037 175.575 137.037 174.889V171.531C137.054 171.158 137.159 170.794 137.344 170.469C137.528 170.143 137.786 169.866 138.098 169.659Z" fill="white"/>
<path d="M145.973 166.608L163.545 156.456C164.294 156.025 164.899 156.331 164.899 157.142C164.866 157.597 164.726 158.037 164.49 158.427C164.255 158.817 163.931 159.147 163.545 159.389L145.973 169.535C145.224 169.965 144.619 169.66 144.619 168.848C144.653 168.395 144.793 167.956 145.029 167.567C145.264 167.177 145.587 166.849 145.973 166.608Z" fill="#44A2C6"/>
<path opacity="0.8" d="M145.973 166.608L163.545 156.456C164.294 156.025 164.899 156.331 164.899 157.142C164.866 157.597 164.726 158.037 164.49 158.427C164.255 158.817 163.931 159.147 163.545 159.389L145.973 169.535C145.224 169.965 144.619 169.66 144.619 168.848C144.653 168.395 144.793 167.956 145.029 167.567C145.264 167.177 145.587 166.849 145.973 166.608Z" fill="white"/>
<path d="M142.234 198.001L145.142 196.323C145.766 195.98 146.227 196.26 146.227 196.947V200.304C146.207 200.679 146.098 201.045 145.909 201.37C145.721 201.696 145.457 201.972 145.142 202.176L142.234 203.854C141.641 204.204 141.154 203.923 141.154 203.23V199.873C141.176 199.499 141.285 199.134 141.472 198.809C141.66 198.484 141.921 198.208 142.234 198.001Z" fill="#44A2C6"/>
<path d="M137.691 209.408L149.691 202.482C150.065 202.27 150.365 202.419 150.365 202.825C150.349 203.052 150.279 203.272 150.162 203.467C150.045 203.662 149.884 203.827 149.691 203.948L137.691 210.875C137.317 211.087 137.018 210.937 137.018 210.531C137.034 210.304 137.103 210.084 137.22 209.889C137.337 209.694 137.499 209.529 137.691 209.408Z" fill="#E0E0E0"/>
<path d="M158.377 188.679L161.285 187C161.877 186.657 162.364 186.938 162.364 187.624V190.982C162.344 191.356 162.236 191.721 162.048 192.047C161.86 192.372 161.599 192.648 161.285 192.854L158.377 194.532C157.753 194.875 157.291 194.601 157.291 193.908V190.551C157.312 190.176 157.421 189.81 157.61 189.485C157.799 189.16 158.061 188.884 158.377 188.679Z" fill="#44A2C6"/>
<path d="M153.828 200.086L165.828 193.159C166.202 192.941 166.502 193.097 166.502 193.503C166.486 193.729 166.416 193.948 166.299 194.142C166.182 194.336 166.02 194.5 165.828 194.62L153.828 201.552C153.454 201.771 153.154 201.615 153.154 201.215C153.169 200.987 153.238 200.766 153.355 200.569C153.472 200.373 153.634 200.207 153.828 200.086Z" fill="#E0E0E0"/>
<path d="M174.515 179.356L177.423 177.678C178.016 177.328 178.502 177.609 178.502 178.302V181.659C178.481 182.033 178.373 182.398 178.185 182.723C177.998 183.048 177.737 183.325 177.423 183.531L174.515 185.209C173.891 185.553 173.436 185.272 173.436 184.585V181.228C173.455 180.853 173.563 180.488 173.75 180.163C173.938 179.837 174.2 179.561 174.515 179.356Z" fill="#44A2C6"/>
<path opacity="0.2" d="M142.234 198.001L145.142 196.323C145.766 195.98 146.227 196.26 146.227 196.947V200.304C146.207 200.679 146.098 201.045 145.909 201.37C145.721 201.696 145.457 201.972 145.142 202.176L142.234 203.854C141.641 204.204 141.154 203.923 141.154 203.23V199.873C141.176 199.499 141.285 199.134 141.472 198.809C141.66 198.484 141.921 198.208 142.234 198.001Z" fill="white"/>
<path opacity="0.2" d="M158.377 188.679L161.285 187C161.877 186.657 162.364 186.938 162.364 187.624V190.982C162.344 191.356 162.236 191.721 162.048 192.047C161.86 192.372 161.599 192.648 161.285 192.854L158.377 194.532C157.753 194.875 157.291 194.601 157.291 193.908V190.551C157.312 190.176 157.421 189.81 157.61 189.485C157.799 189.16 158.061 188.884 158.377 188.679Z" fill="white"/>
<path opacity="0.2" d="M174.515 179.356L177.423 177.678C178.016 177.328 178.502 177.609 178.502 178.302V181.659C178.481 182.033 178.373 182.398 178.185 182.723C177.998 183.048 177.737 183.325 177.423 183.531L174.515 185.209C173.891 185.553 173.436 185.272 173.436 184.585V181.228C173.455 180.853 173.563 180.488 173.75 180.163C173.938 179.837 174.2 179.561 174.515 179.356Z" fill="white"/>
<path d="M169.965 190.763L181.964 183.837C182.339 183.618 182.638 183.774 182.638 184.174C182.623 184.401 182.554 184.621 182.436 184.816C182.319 185.012 182.158 185.176 181.964 185.297L169.965 192.223C169.597 192.442 169.291 192.286 169.291 191.88C169.309 191.654 169.379 191.436 169.496 191.242C169.613 191.048 169.773 190.884 169.965 190.763Z" fill="#E0E0E0"/>
<path d="M110.504 86.6485C103.502 90.5922 97.8301 100.42 97.8301 108.595C97.8301 116.769 103.502 120.126 110.504 116.083C117.505 112.039 123.177 102.217 123.177 94.1303C123.177 86.0432 117.499 82.6986 110.504 86.6485Z" fill="#FAFAFA"/>
<path d="M116.644 111.839L106.498 114.56C106.323 114.617 106.137 114.629 105.956 114.596C105.775 114.563 105.606 114.486 105.463 114.37C105.319 114.255 105.207 114.106 105.136 113.936C105.065 113.767 105.038 113.582 105.056 113.399V96.127C105.092 94.6974 105.57 93.3138 106.423 92.1664C107.277 91.019 108.465 90.1639 109.824 89.7186L113.293 88.7888C115.933 88.0837 118.073 89.8059 118.073 92.6326V109.911C118.062 110.34 117.918 110.756 117.663 111.101C117.407 111.446 117.051 111.704 116.644 111.839Z" fill="#37474F"/>
<path d="M117.131 116.307L116.064 111.596C116.064 111.596 116.064 105.237 115.159 104.651C114.254 104.064 113.992 103.952 113.992 103.952C115.153 103.553 117.599 103.253 118.36 105.487C119.09 107.596 120.182 112.794 120.7 115.352L117.131 116.307Z" fill="#F28F8F"/>
<path d="M117.043 116.332L113.424 104.008C115.028 103.384 117.087 102.867 118.085 104.52C118.984 106.005 120.419 113.786 120.7 115.353L117.043 116.332Z" fill="#44A2C6"/>
<g opacity="0.4">
<path opacity="0.4" d="M117.043 116.332L113.424 104.008C115.028 103.384 117.087 102.867 118.085 104.52C118.984 106.005 120.419 113.786 120.7 115.353L117.043 116.332Z" fill="black"/>
</g>
<path d="M117.529 116.201L113.973 117.156C114.116 116.134 114.453 115.15 114.965 114.254C115.677 113.228 116.701 112.46 117.885 112.064C117.629 113.428 117.51 114.814 117.529 116.201Z" fill="#44A2C6"/>
<path d="M117.529 116.201L113.973 117.156C114.116 116.134 114.453 115.15 114.965 114.254C115.677 113.228 116.701 112.46 117.885 112.064C117.629 113.428 117.51 114.814 117.529 116.201Z" fill="#44A2C6"/>
<g opacity="0.7">
<path opacity="0.7" d="M117.529 116.201L113.973 117.156C114.116 116.134 114.453 115.15 114.965 114.254C115.677 113.228 116.701 112.46 117.885 112.064C117.629 113.428 117.51 114.814 117.529 116.201Z" fill="black"/>
</g>
<path d="M116.769 116.407L106.785 119.071L105.686 115.671C105.686 115.671 108.6 108.85 105 107.097C105.456 106.754 109.293 105.256 109.293 105.256L113.418 104.008C114.204 103.796 117.38 105.206 118.185 108.332C118.472 109.437 118.372 110.429 116.756 116.182C116.775 116.257 116.769 116.332 116.769 116.407Z" fill="#44A2C6"/>
<path d="M115.945 90.9106C116.632 91.1602 117.48 92.7826 117.399 96.6951C117.331 100.015 116.332 101.063 115.833 101.462C115.085 101.837 114.26 102.031 113.424 102.03V104.008C113.424 104.008 114.722 105.256 114.641 106.205C114.56 107.153 112.769 107.827 111.559 107.266C110.674 106.767 109.91 106.081 109.318 105.256V100.701C109.227 100.806 109.116 100.892 108.991 100.954C108.867 101.015 108.731 101.052 108.592 101.06C108.453 101.069 108.314 101.05 108.183 101.004C108.052 100.959 107.931 100.888 107.827 100.795C107.632 100.661 107.466 100.49 107.338 100.292C107.211 100.093 107.124 99.8705 107.084 99.6378C107.044 99.4051 107.051 99.1667 107.105 98.9367C107.158 98.7067 107.258 98.4898 107.396 98.2988C108.02 97.4814 109.112 97.3628 109.537 98.1802C110.065 96.8982 111.01 95.8318 112.22 95.1538C114.192 93.9558 115.265 92.8887 115.945 90.9106Z" fill="#FFA8A7"/>
<path d="M113.967 96.7885C113.97 96.9068 113.936 97.0231 113.87 97.1214C113.804 97.2197 113.71 97.2952 113.599 97.3376C113.552 97.3539 113.502 97.3584 113.453 97.351C113.404 97.3435 113.357 97.3241 113.317 97.2947C113.278 97.2652 113.245 97.2264 113.224 97.1817C113.202 97.137 113.192 97.0877 113.194 97.0381C113.191 96.9198 113.225 96.8035 113.291 96.7052C113.357 96.6069 113.451 96.5314 113.562 96.489C113.609 96.4728 113.659 96.4682 113.708 96.4757C113.757 96.4832 113.803 96.5025 113.843 96.532C113.883 96.5615 113.915 96.6002 113.937 96.6449C113.959 96.6896 113.969 96.7389 113.967 96.7885Z" fill="#37474F"/>
<path d="M114.067 99.5591L114.965 99.6215C114.939 99.7585 114.868 99.8827 114.762 99.9743C114.657 100.066 114.524 100.12 114.385 100.127C114.135 100.108 113.992 99.8399 114.067 99.5591Z" fill="#F28F8F"/>
<path d="M117.137 94.6669L116.357 94.2988C116.404 94.1781 116.493 94.0789 116.608 94.0201C116.724 93.9614 116.856 93.9473 116.981 93.9805C117.037 94.0149 117.086 94.0601 117.124 94.1134C117.162 94.1667 117.189 94.2271 117.204 94.291C117.218 94.3549 117.22 94.4211 117.208 94.4856C117.197 94.5502 117.173 94.6118 117.137 94.6669Z" fill="#37474F"/>
<path d="M112.843 96.1269L113.623 95.3344C113.582 95.2924 113.532 95.2595 113.477 95.2381C113.422 95.2166 113.363 95.207 113.304 95.21C113.245 95.2129 113.187 95.2283 113.135 95.2552C113.082 95.282 113.036 95.3196 112.999 95.3656C112.891 95.4562 112.816 95.5808 112.788 95.719C112.76 95.8573 112.779 96.0011 112.843 96.1269Z" fill="#37474F"/>
<path d="M116.956 95.6904C116.96 95.8089 116.926 95.9255 116.86 96.024C116.794 96.1225 116.699 96.1978 116.588 96.2395C116.54 96.2559 116.49 96.2605 116.44 96.2527C116.39 96.2449 116.343 96.225 116.303 96.1948C116.263 96.1646 116.231 96.125 116.21 96.0794C116.189 96.0339 116.179 95.9838 116.182 95.9337C116.18 95.8156 116.215 95.6997 116.28 95.6016C116.346 95.5035 116.44 95.4278 116.55 95.3846C116.598 95.3681 116.648 95.3636 116.698 95.3714C116.748 95.3792 116.795 95.3991 116.835 95.4293C116.875 95.4595 116.907 95.4991 116.928 95.5447C116.949 95.5902 116.959 95.6402 116.956 95.6904Z" fill="#37474F"/>
<path d="M115.133 95.9399L115.189 98.4172L116.418 97.6809L115.133 95.9399Z" fill="#F28F8F"/>
<path d="M113.424 102.03C112.438 102.155 110.404 102.074 110.086 101.3C110.201 101.68 110.455 102.003 110.797 102.205C111.421 102.604 113.424 102.691 113.424 102.691V102.03Z" fill="#F28F8F"/>
<path d="M106.84 119.065L106.422 117.58L107.52 118.884L106.84 119.065Z" fill="#44A2C6"/>
<path d="M106.024 119.284C105.576 117.149 104.969 115.051 104.208 113.006C103.16 110.13 104.333 107.646 105.038 107.097C105.743 106.548 109.331 105.256 109.331 105.256C110.629 108.95 110.985 113.899 111.016 117.949L106.024 119.284Z" fill="#44A2C6"/>
<path opacity="0.4" d="M106.024 119.284C105.576 117.149 104.969 115.051 104.208 113.006C103.16 110.13 104.333 107.646 105.038 107.097C105.743 106.548 109.331 105.256 109.331 105.256C110.629 108.95 110.985 113.899 111.016 117.949L106.024 119.284Z" fill="black"/>
<path d="M104.25 119.758L100.687 120.713C100.587 120.646 100.494 120.571 100.406 120.488C100.406 120.488 102.091 113.986 102.628 111.827C103.164 109.668 103.576 108.183 105.024 107.097C107.626 108.788 106.422 113.487 106.422 113.487L104.25 119.758Z" fill="#44A2C6"/>
<path opacity="0.4" d="M104.25 119.758L100.687 120.713C100.587 120.646 100.494 120.571 100.406 120.488C100.406 120.488 102.091 113.986 102.628 111.827C103.164 109.668 103.576 108.183 105.024 107.097C107.626 108.788 106.422 113.487 106.422 113.487L104.25 119.758Z" fill="black"/>
<path d="M52.3737 78.206V65.8445C52.3363 63.4484 53.8963 61.046 57.0599 59.2239C63.2999 55.6109 73.4462 55.6109 79.6987 59.2239C82.8623 61.046 84.4223 63.4484 84.3849 65.8445V78.1623C84.3849 80.546 82.8499 84.8079 79.6987 86.6237C73.4587 90.2367 63.3124 90.2367 57.0599 86.6237C53.9399 84.8266 52.3799 80.5959 52.3737 78.2309V78.206Z" fill="#EBEBEB"/>
<path d="M68.3788 50.5066L94.7927 65.7571L68.3788 81.0077L41.9648 65.7571L68.3788 50.5066Z" fill="#F5F5F5"/>
<path d="M55.1621 73.3763L68.1725 65.9507C68.2262 65.9199 68.2854 65.9001 68.3467 65.8922C68.4081 65.8844 68.4704 65.8887 68.5301 65.9049C68.5897 65.9211 68.6456 65.949 68.6946 65.9868C68.7435 66.0246 68.7845 66.0717 68.8152 66.1254C68.846 66.1791 68.8658 66.2383 68.8737 66.2996C68.8815 66.361 68.8772 66.4233 68.861 66.4829C68.8448 66.5426 68.8169 66.5985 68.7791 66.6475C68.7413 66.6964 68.6942 66.7374 68.6405 66.7681L56.0919 73.9129L55.1621 73.3763Z" fill="#E0E0E0"/>
<path d="M94.7928 65.7571V66.8491L68.3789 82.0934V81.0076L94.7928 65.7571Z" fill="#E6E6E6"/>
<path d="M41.9648 65.7571V66.8491L68.3788 82.0934V81.0076L41.9648 65.7571Z" fill="#F0F0F0"/>
<path d="M54.5078 74.0874L55.3128 74.5492C55.4345 74.3505 55.6039 74.1853 55.8057 74.0687L56.0865 73.9065L55.1693 73.3823C54.8983 73.5643 54.6722 73.8054 54.5078 74.0874Z" fill="#E0E0E0"/>
<path d="M84.4147 72.8396L68.3779 83.7284L52.3848 72.8646L68.3779 82.0935L84.4147 72.8396Z" fill="#E0E0E0"/>
<path d="M53.4775 86.9297C53.7013 87.0452 53.9495 87.1054 54.2013 87.1054C54.4532 87.1054 54.7013 87.0452 54.9252 86.9297L56.117 94.6236C56.117 96.0775 52.3418 96.0775 52.3418 94.6236L53.4775 86.9297Z" fill="#F5F5F5"/>
<path d="M53.409 91.3223L53.1719 95.5405C53.0941 95.5169 53.0188 95.4856 52.9473 95.4469L53.409 91.3223Z" fill="#EBEBEB"/>
<path d="M55.1945 95.572L54.6953 88.708L55.4379 95.4722C55.3588 95.5103 55.2775 95.5436 55.1945 95.572Z" fill="#EBEBEB"/>
<path d="M54.3445 95.7092H54.1074L54.2322 90.2617L54.3445 95.7092Z" fill="#EBEBEB"/>
<path d="M54.1949 87.5723C54.4715 87.5654 54.7394 87.474 54.9624 87.3102C55.0573 87.2402 55.1217 87.1366 55.1426 87.0206C55.1635 86.9046 55.1392 86.7849 55.0748 86.6862C55.0067 86.5891 54.9034 86.5224 54.7868 86.5003C54.6703 86.4781 54.5497 86.5023 54.4508 86.5677C54.3914 86.6252 54.3119 86.6574 54.2292 86.6574C54.1465 86.6574 54.0671 86.6252 54.0077 86.5677C53.9592 86.5245 53.9022 86.4918 53.8404 86.4719C53.7785 86.4519 53.7132 86.445 53.6486 86.4517C53.5839 86.4583 53.5214 86.4784 53.4649 86.5105C53.4085 86.5427 53.3593 86.5862 53.3206 86.6384C53.2819 86.6906 53.2545 86.7503 53.2401 86.8137C53.2257 86.877 53.2247 86.9427 53.2371 87.0065C53.2495 87.0703 53.275 87.1308 53.3121 87.1841C53.3492 87.2375 53.3969 87.2826 53.4524 87.3165C53.6671 87.4771 53.9268 87.5666 54.1949 87.5723Z" fill="#E0E0E0"/>
<path d="M54.2266 86.374C54.2877 86.3749 54.3485 86.3635 54.4052 86.3407C54.4619 86.3179 54.5136 86.284 54.5571 86.241C54.6007 86.1981 54.6352 86.1469 54.6588 86.0904C54.6824 86.034 54.6946 85.9734 54.6946 85.9123V75.0048C54.6952 74.7595 54.76 74.5187 54.8827 74.3063C55.0053 74.0939 55.1814 73.9174 55.3935 73.7942L68.641 66.2438C68.7462 66.1836 68.8235 66.0843 68.8562 65.9676C68.8889 65.8508 68.8743 65.7259 68.8157 65.6198C68.7865 65.5671 68.7471 65.5207 68.6998 65.4834C68.6525 65.446 68.5982 65.4184 68.5402 65.4021C68.4821 65.3859 68.4215 65.3813 68.3616 65.3887C68.3018 65.396 68.2441 65.4152 68.1917 65.4451L54.913 73.008C54.559 73.2123 54.2649 73.5061 54.0602 73.8598C53.8554 74.2135 53.7471 74.6148 53.7461 75.0235V85.931C53.7485 85.9917 53.7628 86.0512 53.7883 86.1063C53.8138 86.1614 53.8498 86.211 53.8945 86.2521C53.9391 86.2933 53.9914 86.3252 54.0484 86.3462C54.1054 86.3671 54.1659 86.3765 54.2266 86.374Z" fill="#FAFAFA"/>
<path d="M55.2498 85.9124C55.2511 85.7097 55.1921 85.5113 55.0804 85.3422C54.9687 85.1731 54.8093 85.0409 54.6224 84.9625C54.4356 84.8841 54.2296 84.8629 54.0307 84.9017C53.8318 84.9405 53.6488 85.0375 53.5051 85.1803C53.3613 85.3232 53.2632 85.5055 53.2233 85.7042C53.1833 85.9029 53.2032 86.109 53.2804 86.2963C53.3577 86.4837 53.4888 86.6439 53.6573 86.7566C53.8257 86.8693 54.0238 86.9295 54.2265 86.9295C54.3606 86.9304 54.4935 86.9047 54.6176 86.8539C54.7417 86.8032 54.8546 86.7284 54.9497 86.6338C55.0448 86.5393 55.1203 86.4269 55.1718 86.3031C55.2233 86.1793 55.2498 86.0465 55.2498 85.9124Z" fill="#F5F5F5"/>
<path d="M53.216 85.9684C53.2586 86.074 53.3235 86.1691 53.4062 86.2474C53.4889 86.3256 53.5875 86.3851 53.6953 86.4218C53.803 86.4585 53.9174 86.4716 54.0307 86.4601C54.144 86.4486 54.2535 86.4129 54.3517 86.3553C54.477 86.2798 54.5807 86.1732 54.6526 86.0458C54.7246 85.9184 54.7625 85.7746 54.7625 85.6283C54.7625 85.482 54.7246 85.3382 54.6526 85.2108C54.5807 85.0835 54.477 84.9769 54.3517 84.9014C54.5426 84.9277 54.722 85.0077 54.8692 85.1321C55.0164 85.2565 55.1252 85.4202 55.183 85.604C55.2408 85.7878 55.2451 85.9843 55.1956 86.1705C55.146 86.3568 55.0446 86.5251 54.903 86.6559C54.7615 86.7867 54.5858 86.8746 54.3962 86.9094C54.2067 86.9441 54.0112 86.9244 53.8324 86.8523C53.6537 86.7803 53.4991 86.659 53.3867 86.5025C53.2742 86.346 53.2085 86.1608 53.1973 85.9684H53.216Z" fill="#EBEBEB"/>
<path d="M235.003 79.8906L230.18 77.1138L232.832 76.5522L235.471 78.393L235.003 79.8906Z" fill="#E0E0E0"/>
<path d="M226.561 55.0367C226.561 47.5487 221.975 44.073 216.34 47.3241L208.016 52.1289C202.4 55.3799 197.801 64.1409 197.801 71.6539C197.801 71.9596 197.801 72.2779 197.801 72.5462C197.801 72.7147 197.801 72.8582 197.801 73.0204C197.801 73.1826 197.832 73.3137 197.844 73.4572C197.857 73.6007 197.882 73.7879 197.907 73.9502C198.032 74.8369 198.254 75.7073 198.568 76.546C198.699 76.858 198.837 77.17 198.986 77.4321C199.056 77.5768 199.135 77.7165 199.224 77.8502L199.305 77.9812C199.444 78.2047 199.605 78.4138 199.785 78.6052C199.885 78.7175 199.979 78.8361 200.085 78.9422L200.409 79.2542C200.521 79.3415 200.628 79.4476 200.746 79.535C200.858 79.6252 200.977 79.7066 201.102 79.7783L201.47 79.9905C201.947 80.2479 202.464 80.423 202.999 80.5084C203.04 80.4984 203.083 80.4984 203.124 80.5084C203.267 80.5084 203.398 80.5396 203.542 80.5396C203.693 80.5521 203.846 80.5521 203.997 80.5396C204.398 80.544 204.798 80.5 205.189 80.4086C205.423 80.3621 205.654 80.3038 205.882 80.2339C206.611 80.0105 207.31 79.7004 207.966 79.3103L216.29 74.5055C216.86 74.1743 217.407 73.8031 217.925 73.3948C217.925 73.295 217.925 73.2076 217.925 73.114C217.925 73.0204 217.925 72.8207 217.925 72.7084C217.925 72.4588 217.925 72.203 217.925 71.9471C217.906 65.5636 221.75 58.0319 226.561 55.0367Z" fill="#E0E0E0"/>
<path d="M227.965 49.6392L223.129 46.8562C223.16 46.8562 223.622 50.2196 223.622 50.2196L227.21 50.6439L227.965 49.6392Z" fill="#E0E0E0"/>
<path d="M205.62 82.3429L201.152 79.8094L203.842 78.655L205.62 82.3429Z" fill="#E0E0E0"/>
<path d="M208.016 79.3853C207.985 81.2345 207.39 83.0302 206.313 84.5333C206.113 84.7954 206.419 85.0263 206.643 84.9077C207.663 84.3785 208.567 83.6508 209.302 82.7674C210.713 81.0994 211.7 79.1148 212.178 76.9829L208.016 79.3853Z" fill="#E0E0E0"/>
<path d="M206.361 84.895L211.197 87.6781C211.197 87.6781 213.912 85.388 213.912 80.7517L208.664 80.396C208.664 80.396 208.539 83.4162 206.361 84.895Z" fill="#E0E0E0"/>
<path d="M219.242 71.2546C219.242 71.4876 219.242 71.7122 219.242 71.9285C219.242 72.0533 219.242 72.1594 219.242 72.278C219.242 72.3965 219.242 72.4964 219.28 72.6087C219.317 72.721 219.28 72.8583 219.323 72.9831C219.396 73.5359 219.525 74.0796 219.71 74.6055C219.737 74.7013 219.77 74.7951 219.81 74.8863C219.856 75.0116 219.908 75.1345 219.966 75.2544C220.015 75.3704 220.071 75.483 220.135 75.5914C220.184 75.7001 220.242 75.8045 220.309 75.9034L220.372 76.0033C220.482 76.1751 220.602 76.3398 220.734 76.4962C220.802 76.5872 220.877 76.6727 220.958 76.7521L221.195 76.9829C221.276 77.0588 221.362 77.1297 221.451 77.1951C221.537 77.2612 221.626 77.3216 221.719 77.3761C221.813 77.4322 221.9 77.4884 222 77.5383L222.287 77.6756L222.587 77.7817C222.769 77.8369 222.955 77.8828 223.142 77.9189H223.236C223.34 77.9284 223.444 77.9284 223.548 77.9189C223.66 77.9316 223.773 77.9316 223.885 77.9189C224.153 77.9188 224.421 77.8917 224.683 77.8378C224.894 77.8021 225.102 77.7542 225.307 77.6943C225.855 77.5264 226.381 77.2939 226.874 77.0017L233.114 73.3949C233.67 73.0737 234.195 72.6997 234.68 72.278C234.855 72.1282 235.029 71.966 235.204 71.8037C235.519 71.5107 235.817 71.2003 236.096 70.874L236.496 70.5121C236.602 70.3873 236.702 70.2562 236.808 70.1252C236.834 70.0798 236.865 70.0379 236.901 70.0004C237.317 69.451 237.7 68.878 238.05 68.2844C238.143 68.1284 238.23 67.9661 238.324 67.8039C238.418 67.6417 238.505 67.4794 238.592 67.3109C238.68 67.1425 238.761 66.974 238.848 66.8117L239.085 66.3001C239.166 66.1316 239.241 65.9506 239.316 65.7884C239.447 65.4889 239.566 65.1644 239.672 64.8773C239.672 64.8212 239.716 64.765 239.734 64.7088C239.803 64.5341 239.859 64.3594 239.915 64.1847C240.028 63.8477 240.127 63.5108 240.227 63.1613C240.447 62.3412 240.612 61.5074 240.72 60.6653C240.72 60.5218 240.751 60.3845 240.77 60.241C240.789 60.0975 240.77 59.9977 240.801 59.8728C240.833 59.7481 240.801 59.6233 240.801 59.4985C240.801 59.2655 240.801 59.0346 240.801 58.8058C240.801 53.1898 237.363 50.5628 233.132 53.0026L226.892 56.6156C222.68 59.0429 219.242 65.6137 219.242 71.2546Z" fill="#E0E0E0"/>
<path d="M243.053 55.3987L238.255 52.6406L236.445 53.9198L242.043 57.3081L243.053 55.3987Z" fill="#E0E0E0"/>
<path d="M226.579 80.1528L221.756 77.376L225.537 76.2466L226.579 80.1528Z" fill="#E0E0E0"/>
<path d="M232.209 74C232.209 74.9984 233.457 76.3587 234.886 76.6146C235.079 76.652 235.029 77.0763 234.798 77.2386C233.947 77.7011 232.964 77.8638 232.009 77.7003C231.388 77.6818 230.784 77.4987 230.258 77.1698C229.732 76.8408 229.302 76.3779 229.014 75.8283L232.209 74Z" fill="#44A2C6"/>
<path d="M221.17 50.1009L212.839 54.912C207.223 58.163 202.631 66.924 202.631 74.4307C202.631 74.7427 202.631 75.0547 202.631 75.3293C202.631 75.4978 202.631 75.6413 202.631 75.8035C202.631 75.9658 202.662 76.0905 202.681 76.2341C202.699 76.3776 202.718 76.5773 202.743 76.7333C202.856 77.6167 203.065 78.4851 203.367 79.3229C203.498 79.6411 203.635 79.9469 203.785 80.2152C203.854 80.3581 203.933 80.4957 204.022 80.627C204.049 80.6726 204.078 80.7164 204.11 80.7581C204.245 80.9939 204.404 81.2155 204.584 81.4195C204.684 81.5318 204.784 81.6566 204.89 81.7565L205.208 82.0685C205.32 82.1558 205.433 82.2619 205.545 82.3493C205.658 82.4381 205.777 82.5194 205.901 82.5926L206.275 82.8048C206.75 83.0612 207.265 83.2363 207.798 83.3227C207.838 83.3089 207.882 83.3089 207.922 83.3227C208.066 83.3227 208.203 83.3227 208.34 83.3227C208.492 83.332 208.644 83.332 208.796 83.3227C209.197 83.3244 209.597 83.2805 209.988 83.1917C210.221 83.1452 210.453 83.0869 210.68 83.0169C211.408 82.7917 212.107 82.4839 212.765 82.0997C212.734 83.9481 212.137 85.7426 211.055 87.2414C210.855 87.5098 211.161 87.7406 211.392 87.6221C212.413 87.0923 213.317 86.3622 214.05 85.4755C215.458 83.8074 216.444 81.8258 216.927 79.6973L216.303 80.0405L221.064 77.2949C221.525 77.0294 221.969 76.7355 222.393 76.415C222.356 76.2566 222.329 76.0962 222.312 75.9346C222.312 75.8285 222.274 75.6725 222.262 75.5102C222.239 75.3718 222.225 75.2322 222.218 75.0921V75.0173C222.212 74.9134 222.212 74.8092 222.218 74.7053C222.218 74.4682 222.218 74.2186 222.218 73.969C222.218 67.6541 225.962 60.5342 230.779 57.7449L231.31 57.4329C231.26 50.2133 226.723 46.8936 221.17 50.1009Z" fill="#F0F0F0"/>
<path d="M237.987 55.7667L231.747 59.3734C227.523 61.8195 224.078 68.3902 224.078 74.0312C224.078 74.2621 224.078 74.4867 224.078 74.7051C224.078 74.9235 224.078 74.936 224.078 75.0546C224.078 75.1731 224.078 75.273 224.109 75.3853C224.119 75.5088 224.136 75.6317 224.159 75.7534C224.228 76.3089 224.358 76.8551 224.546 77.3821C224.57 77.4788 224.603 77.5728 224.646 77.6629C224.688 77.7865 224.738 77.9074 224.796 78.0248C224.846 78.1422 224.902 78.2567 224.964 78.368C225.016 78.4769 225.076 78.5812 225.145 78.68C225.16 78.7154 225.179 78.7489 225.201 78.7798C225.32 78.9546 225.438 79.1168 225.563 79.2728C225.635 79.3624 225.712 79.4478 225.794 79.5286L226.031 79.7595C226.112 79.8354 226.198 79.9063 226.287 79.9717C226.369 80.039 226.457 80.0996 226.549 80.1526C226.643 80.2088 226.73 80.265 226.83 80.3149L227.117 80.4522L227.417 80.5582C227.599 80.6135 227.785 80.6593 227.972 80.6955H228.065C228.169 80.705 228.274 80.705 228.377 80.6955C228.491 80.7113 228.607 80.7113 228.721 80.6955C228.989 80.6971 229.256 80.672 229.519 80.6206C229.73 80.5844 229.938 80.5365 230.143 80.4771C230.692 80.3116 231.218 80.079 231.71 79.7845L233.819 78.5739C234.111 79.1176 234.542 79.5743 235.069 79.8976C235.595 80.2209 236.197 80.3993 236.814 80.4147C237.77 80.5758 238.752 80.4109 239.603 79.9467C239.828 79.8032 239.884 79.3789 239.684 79.3227C238.255 79.0669 237.014 77.7066 237.014 76.7082L237.962 76.159C238.518 75.8363 239.042 75.4623 239.528 75.0421C239.703 74.8923 239.878 74.7301 240.046 74.5678C240.363 74.2749 240.663 73.9645 240.945 73.6381C241.057 73.507 241.169 73.3822 241.282 73.2325C241.394 73.0827 241.488 72.9829 241.594 72.8518L241.687 72.727C242.103 72.1777 242.486 71.6047 242.836 71.011L243.116 70.5306C243.21 70.3683 243.297 70.2061 243.385 70.0376C243.472 69.8691 243.547 69.7006 243.634 69.5384L243.878 69.0267C243.959 68.852 244.027 68.6773 244.102 68.515C244.233 68.2155 244.358 67.891 244.464 67.604L244.52 67.4355C244.589 67.2608 244.651 67.0861 244.701 66.9114C244.82 66.5682 244.913 66.2374 245.02 65.888C245.239 65.0679 245.404 64.234 245.513 63.392C245.513 63.2485 245.544 63.1112 245.556 62.9677C245.569 62.8242 245.556 62.7181 245.587 62.5995C245.619 62.481 245.587 62.3499 245.587 62.2251C245.587 61.9942 245.587 61.7571 245.587 61.5262C245.656 55.929 242.212 53.3269 237.987 55.7667Z" fill="#F0F0F0"/>
<path d="M187.855 138.309C185.496 137.573 183.075 139.483 181.49 143.339C179.905 147.195 176.579 157.004 176.086 159.619C175.593 162.234 186.75 167.924 186.438 167.775C186.126 167.625 187.855 138.309 187.855 138.309Z" fill="#263238"/>
<path d="M182.669 229.077C182.332 229.201 182.251 229.838 182.201 231.098C182.164 232.053 181.958 233.719 183.075 234.05C184.192 234.381 185.833 234.212 186.55 233.314C187.443 232.19 188.048 231.205 189.321 229.832C190.432 228.646 191.623 227.535 192.073 225.869C192.478 224.359 192.141 223.71 191.112 223.273C189.702 222.649 187.48 224.634 186.376 224.946C185.421 225.214 183 228.952 182.669 229.077Z" fill="#263238"/>
<path d="M182.67 227.91V229.457C183.251 229.829 183.922 230.035 184.611 230.054C185.301 230.072 185.982 229.903 186.582 229.563C186.651 229.414 186.988 227.348 186.988 227.348L182.67 227.91Z" fill="#FFA8A7"/>
<path d="M195.205 238C195.205 238 194.762 239.347 194.525 240.496C194.332 241.432 194.063 242.992 194.388 243.703C194.712 244.414 195.998 244.864 197.976 244.845C199.261 244.845 201.264 245.712 202.631 246.473C203.998 247.235 206.999 247.578 208.49 247.403C210.25 247.197 212.078 246.155 212.365 245.444C212.652 244.732 212.272 243.952 208.116 242.18C208.079 242.18 202.338 240.308 200.322 238.081L195.205 238Z" fill="#263238"/>
<path d="M195.205 236.327C195.205 236.327 195.205 237.475 195.205 238.13C195.205 238.786 195.979 239.765 197.988 239.697C199.398 239.647 200.378 239.266 200.322 238.106V236.427L195.205 236.327Z" fill="#FFA8A7"/>
<path d="M181.658 207.361C182.003 204.619 182.615 201.916 183.486 199.293C183.486 199.293 182.937 192.335 182.669 185.74C182.382 178.614 182.669 169.653 182.55 167.881C182.55 167.881 205.545 163.226 205.957 171.463C206.369 179.699 205.046 200.666 204.777 204.285C204.509 207.904 203.879 211.105 203.13 216.971C202.381 222.836 200.322 236.427 200.322 236.427C199.527 236.833 198.644 237.035 197.751 237.018C196.859 237.001 195.984 236.763 195.205 236.327C195.205 236.327 193.589 219.854 193.757 215.679C193.889 212.578 194.422 209.508 195.342 206.544L194.525 193.845C194.138 187.936 193.733 185.109 193.639 182.532L193.146 182.283C193.146 182.283 192.641 192.479 192.372 196.098C192.104 199.717 191.524 203.187 190.5 209.907C189.589 215.735 186.887 228.072 186.887 228.072C184.26 229.495 182.694 227.891 182.694 227.891C182.694 227.891 180.959 212.416 181.658 207.361Z" fill="#455A64"/>
<path d="M193.639 182.551C193.639 182.551 188.061 179.799 185.271 177.322C185.271 177.322 187.861 180.972 191.268 182.595C191.268 182.595 192.479 195.256 192.472 195.006L193.171 182.526L193.639 182.551Z" fill="#37474F"/>
<path d="M198.607 135.701L197.247 143.189L190.482 142.696L191.899 134.204L198.607 135.701Z" fill="#FFA8A7"/>
<path d="M183.336 142.147C184.004 140.113 186.587 137.898 189.171 138.403C193.013 139.053 196.799 139.998 200.496 141.23C202.861 142.072 205.014 144.119 205.214 151.906L206.412 175.094L203.548 175.718L202.549 170.464L202.088 175.718C199.092 176.467 193.895 175.849 190.481 175.094C183.368 173.54 182.513 170.589 182.513 170.589C182.513 170.589 182.419 157.541 182.631 151.906C182.831 147.089 182.875 143.52 183.336 142.147Z" fill="#37474F"/>
<path d="M203.611 126.828C203.611 126.828 205.252 129.255 205.04 129.511C204.661 129.767 204.238 129.951 203.792 130.054L203.611 126.828Z" fill="#FFA8A7"/>
<path d="M198.607 119.14C200.185 119.939 202.912 121.412 203.661 127.184C204.435 133.112 203.418 135.021 202.619 135.807C202.076 136.338 199.131 136.369 197.658 135.926C195.786 135.37 191.655 133.792 189.758 130.747C187.525 127.165 187.025 122.366 189.546 120.457C193.084 117.774 197.271 118.466 198.607 119.14Z" fill="#FFA8A7"/>
<path d="M203.992 121.124C203.474 122.547 202.601 126.029 198.969 127.483C198.969 127.483 198.451 125.262 196.585 125.499C194.719 125.736 194.401 128.113 195.549 129.592C196.698 131.071 197.808 130.534 197.808 130.534C197.808 130.534 198.058 133.717 195.936 135.158C195.936 135.158 193.372 136.781 190.657 135.533C189.409 134.971 187.706 132.044 186.695 129.642C184.548 124.563 184.242 120.488 187.481 119.202C187.88 116.894 188.922 116.026 191.013 115.596C195.512 114.666 198.913 117.624 202.694 117.106C204.672 116.831 204.585 119.502 203.992 121.124Z" fill="#37474F"/>
<path d="M187.405 119.977L185.283 118.666C185.365 118.519 185.477 118.39 185.61 118.287C185.743 118.184 185.896 118.11 186.059 118.067C186.222 118.025 186.392 118.016 186.559 118.041C186.725 118.066 186.885 118.125 187.028 118.214C187.172 118.302 187.295 118.419 187.392 118.556C187.49 118.694 187.558 118.85 187.593 119.015C187.628 119.179 187.63 119.35 187.597 119.515C187.565 119.68 187.499 119.837 187.405 119.977Z" fill="#37474F"/>
<path d="M198.107 138.428L198.881 140.668C198.881 140.668 198.313 141.667 195.898 141.717C193.483 141.767 190.906 140.999 190.107 139.969C189.926 139.768 189.791 139.528 189.713 139.268C189.636 139.008 189.617 138.734 189.658 138.466C189.658 138.466 190.619 136.344 191.53 136.438L191.38 137.361C191.38 137.361 191.586 138.116 193.777 138.696C197.184 139.601 198.107 138.428 198.107 138.428Z" fill="#455A64"/>
<path d="M217.514 153.317C218.487 152.2 218.862 149.722 220.159 148.025C221.457 146.328 221.938 145.086 222.45 145.829C223.13 146.808 221.595 148.774 221.938 148.949C222.281 149.123 223.548 151.732 223.679 153.167C223.81 154.602 220.003 158.221 220.003 158.221L217.514 153.317Z" fill="#FFA8A7"/>
<path d="M198.107 138.428C198.264 138.425 198.419 138.464 198.556 138.542C198.692 138.62 198.804 138.734 198.881 138.871C199.263 139.56 199.604 140.27 199.905 140.999L198.881 140.668L198.107 138.428Z" fill="#455A64"/>
<path d="M221.832 148.749C221.832 148.749 226.431 148.349 227.099 148.749C227.766 149.148 227.567 151.139 227.099 152.362C226.631 153.585 224.284 154.377 222.107 155.85C222.107 155.625 221.832 148.749 221.832 148.749Z" fill="#FFA8A7"/>
<path d="M199.904 141.024C201.882 141.717 203.61 142.509 205.457 145.978C207.828 150.434 212.321 157.56 212.321 157.56L217.494 152.998C217.494 152.998 218.274 152.243 219.728 154.646C220.154 155.293 220.424 156.03 220.516 156.798C220.608 157.567 220.52 158.347 220.258 159.076C220.258 159.076 214.287 166.084 213.145 167.151C212.003 168.218 210.112 167.388 208.883 165.709C207.654 164.031 199.885 154.328 199.885 154.328C199.885 154.328 195.667 148.724 199.904 141.024Z" fill="#37474F"/>
<path d="M253.263 129.374H238.53C237.974 129.374 237.441 129.153 237.048 128.759C236.654 128.366 236.433 127.833 236.433 127.277V103.871C236.433 102.029 237.165 100.262 238.468 98.9597C239.77 97.6573 241.537 96.9255 243.379 96.9255H248.433C250.272 96.9305 252.033 97.6644 253.332 98.9663C254.63 100.268 255.359 102.032 255.359 103.871V127.277C255.359 127.833 255.138 128.366 254.745 128.759C254.352 129.153 253.819 129.374 253.263 129.374Z" fill="#37474F"/>
<path d="M236.047 121.387C234.618 125.599 232.221 137.717 232.221 137.717C232.221 137.717 227.229 143.819 225.601 145.298C224.708 146.122 222.699 147.601 222.699 147.601L226.35 150.284C229.645 147.749 232.741 144.964 235.61 141.954C236.248 141.275 236.695 140.44 236.908 139.533L239.404 128.825C239.404 128.825 239.404 120.214 240.72 119.084C242.037 117.955 242.418 117.718 242.418 117.718C240.727 117.593 237.17 118.073 236.047 121.387Z" fill="#F28F8F"/>
<path d="M243.198 117.593C240.87 117.324 237.888 117.374 236.434 119.977C234.98 122.579 232.559 136.032 232.559 136.032C232.559 136.032 234.849 137.81 237.32 137.779L243.198 117.593Z" fill="#44A2C6"/>
<path d="M236.726 130.129C237.145 132.134 237.307 134.185 237.207 136.232C237.026 138.927 235.166 143.632 235.166 143.632C235.166 143.632 236.62 145.23 240.72 144.587C244.058 144.069 242.879 133.979 240.963 132.045C239.846 130.89 238.331 130.205 236.726 130.129Z" fill="#44A2C6"/>
<path opacity="0.3" d="M236.726 130.129C237.145 132.134 237.307 134.185 237.207 136.232C237.026 138.927 235.166 143.632 235.166 143.632C235.166 143.632 236.62 145.23 240.72 144.587C244.058 144.069 242.879 133.979 240.963 132.045C239.846 130.89 238.331 130.205 236.726 130.129Z" fill="black"/>
<path d="M244.438 201.389C244.465 201.85 244.349 202.307 244.107 202.7C243.49 203.72 242.764 204.67 241.942 205.533C240.788 206.781 239.059 208.247 237.818 209.327C237.131 209.951 237.106 210.837 238.092 211.155C239.93 211.603 241.869 211.333 243.515 210.4C244.763 209.739 246.497 206.656 247.521 206.219C248.7 205.689 249.355 205.427 249.755 204.884C250.057 204.575 250.245 204.173 250.289 203.744C250.334 203.314 250.231 202.882 249.998 202.519C249.443 201.483 248.607 199.892 248.263 200.073L248.369 200.397C248.101 201.24 245.805 202.219 244.625 201.988L244.438 201.389Z" fill="#37474F"/>
<path d="M256.463 166.184C256.994 160.568 258.516 151.532 256.956 144.843L236.239 145.941C235.665 152.537 234.991 173.129 235.715 175.487C236.551 178.27 244.021 197.533 244.451 201.408C244.481 201.863 244.365 202.316 244.12 202.7C243.504 203.722 242.778 204.674 241.955 205.539C241.394 206.163 240.707 206.787 239.983 207.411C239.923 207.5 239.886 207.603 239.877 207.711C239.877 208.335 241.45 208.528 242.373 208.26C243.525 207.853 244.517 207.091 245.206 206.082C245.737 205.377 246.928 204.023 247.702 203.006C247.96 202.692 248.18 202.348 248.357 201.982C248.564 201.525 248.599 201.009 248.457 200.529L248.407 200.373C248.002 199.109 247.751 197.802 247.659 196.479C247.372 192.229 246.641 182.414 245.968 179.799C245.5 177.894 244.789 176.057 243.852 174.333L246.217 155.931C246.217 155.931 246.467 172.155 247.203 176.292C247.783 179.606 248.008 183.749 248.688 189.434C249.312 194.875 250.036 204.46 250.036 204.46C250.055 204.463 250.074 204.463 250.092 204.46V209.04H253.967V206.382C253.967 205.181 254.067 203.983 254.267 202.8C254.891 199.181 256.189 190.9 256.457 188.098C256.881 183.656 255.278 178.071 255.278 178.071C255.278 178.071 255.945 171.662 256.463 166.184Z" fill="#FFA8A7"/>
<path d="M249.163 117.786C249.163 117.786 254.736 118.41 255.403 118.728C250.174 122.404 254.411 130.584 254.411 130.584L252.408 136.868C254.636 139.72 256.558 141.417 257.75 144.543C259.072 148.037 260.246 153.235 259.934 163.887C254.942 167.631 239.753 167.225 233.838 163.887C233.838 163.887 234.836 154.483 236.016 147.176C236.796 142.353 238.636 137.099 238.324 135.32C235.978 128.107 235.828 126.809 236.253 125.199C237.42 120.669 242.037 117.605 243.173 117.605L249.163 117.786Z" fill="#44A2C6"/>
<path opacity="0.6" d="M249.163 117.786C249.163 117.786 254.736 118.41 255.403 118.728C250.174 122.404 254.411 130.584 254.411 130.584L252.408 136.868C254.636 139.72 256.558 141.417 257.75 144.543C259.072 148.037 260.246 153.235 259.934 163.887C254.942 167.631 239.753 167.225 233.838 163.887C233.838 163.887 234.836 154.483 236.016 147.176C236.796 142.353 238.636 137.099 238.324 135.32C235.978 128.107 235.828 126.809 236.253 125.199C237.42 120.669 242.037 117.605 243.173 117.605L249.163 117.786Z" fill="white"/>
<path d="M250.056 207.099V206.544C249.569 208.41 248.596 210.113 247.236 211.48C245.988 212.609 244.303 213.92 243.866 215.186C243.429 216.453 245.869 217.021 247.479 216.859C249.039 216.668 250.476 215.916 251.522 214.743C252.546 213.57 252.527 212.772 253.001 212.123C253.476 211.474 254.58 210.762 254.836 210.014C254.916 209.315 254.839 208.607 254.611 207.942C254.43 207.249 254.231 206.482 253.987 206.544V206.975C253.426 207.416 252.73 207.652 252.015 207.642C251.473 207.655 250.05 207.536 250.056 207.099Z" fill="#37474F"/>
<path d="M253.967 206.962C253.405 207.404 252.709 207.639 251.995 207.63C251.421 207.63 250.023 207.536 250.029 207.099V206.544C249.543 208.41 248.569 210.113 247.209 211.48L246.267 212.322C245.605 213.059 245.792 213.701 247.346 213.832C248.9 213.963 250.267 213.027 251.44 211.586C252.44 210.136 253.287 208.587 253.967 206.962Z" fill="#FFA8A7"/>
<path d="M239.541 100.751C238.543 101.344 237.307 103.871 237.426 109.125C237.532 113.593 238.98 114.697 239.71 115.016C240.44 115.334 241.838 115.14 243.198 114.916V117.593C243.198 117.593 241.326 119.783 241.432 121.012C241.538 122.242 244.153 122.529 245.919 121.33C247.194 120.342 248.291 119.143 249.163 117.786L249.132 111.627C249.132 111.627 249.937 112.401 251.297 111.215C252.421 110.236 252.795 108.576 251.921 107.69C251.695 107.477 251.42 107.321 251.121 107.235C250.821 107.149 250.506 107.137 250.201 107.198C249.895 107.259 249.609 107.392 249.366 107.586C249.122 107.78 248.929 108.03 248.801 108.314C248.801 108.314 248.046 106.211 244.908 105.194C242.075 104.252 240.533 103.185 239.541 100.751Z" fill="#FFA8A7"/>
<path d="M242.418 108.008C242.418 108.118 242.45 108.226 242.511 108.317C242.572 108.409 242.658 108.481 242.759 108.524C242.86 108.567 242.972 108.58 243.08 108.56C243.188 108.54 243.289 108.489 243.368 108.413C243.447 108.337 243.503 108.239 243.527 108.132C243.552 108.025 243.544 107.913 243.505 107.81C243.467 107.707 243.398 107.618 243.309 107.553C243.22 107.488 243.114 107.451 243.005 107.446C242.929 107.445 242.854 107.458 242.784 107.485C242.714 107.513 242.649 107.554 242.595 107.606C242.54 107.658 242.497 107.72 242.466 107.789C242.436 107.858 242.42 107.933 242.418 108.008Z" fill="#37474F"/>
<path d="M242.267 111.79L240.963 112.208C240.986 112.295 241.026 112.376 241.081 112.447C241.137 112.518 241.206 112.578 241.284 112.621C241.363 112.665 241.45 112.692 241.539 112.702C241.629 112.711 241.719 112.702 241.805 112.676C241.981 112.616 242.128 112.49 242.214 112.325C242.3 112.16 242.319 111.968 242.267 111.79Z" fill="#F28F8F"/>
<path d="M237.812 106.28L238.948 105.493C238.9 105.417 238.837 105.35 238.763 105.299C238.688 105.247 238.604 105.211 238.515 105.193C238.427 105.175 238.335 105.175 238.247 105.194C238.158 105.212 238.074 105.248 238 105.3C237.848 105.407 237.743 105.569 237.708 105.752C237.673 105.935 237.711 106.124 237.812 106.28Z" fill="#37474F"/>
<path d="M244.052 106.704L242.91 105.918C242.958 105.841 243.021 105.775 243.095 105.723C243.17 105.671 243.254 105.635 243.342 105.617C243.431 105.598 243.522 105.597 243.611 105.615C243.699 105.632 243.784 105.667 243.859 105.718C244.01 105.827 244.114 105.99 244.15 106.173C244.186 106.356 244.151 106.546 244.052 106.704Z" fill="#37474F"/>
<path d="M238.074 107.596C238.073 107.706 238.104 107.814 238.164 107.907C238.224 108 238.31 108.072 238.411 108.116C238.512 108.161 238.624 108.174 238.733 108.155C238.841 108.136 238.942 108.085 239.022 108.01C239.102 107.934 239.158 107.836 239.183 107.729C239.208 107.621 239.201 107.509 239.162 107.406C239.124 107.302 239.055 107.213 238.966 107.148C238.877 107.083 238.771 107.046 238.661 107.041C238.51 107.037 238.363 107.094 238.253 107.198C238.143 107.302 238.079 107.445 238.074 107.596Z" fill="#37474F"/>
<path d="M240.719 107.278L240.632 110.66L238.854 110.111L240.719 107.278Z" fill="#F28F8F"/>
<path d="M243.197 114.916C244.632 114.722 247.565 113.873 248.052 112.707C247.867 113.298 247.505 113.818 247.016 114.198C246.13 114.953 243.197 115.808 243.197 115.808V114.916Z" fill="#F28F8F"/>
<path d="M253.375 133.442L249.438 138.771L252.408 136.868L253.375 133.442Z" fill="#44A2C6"/>
<path d="M222.356 147.601C221.514 148.686 220.996 150.796 220.553 151.507C220.11 152.218 219.579 152.836 220.553 152.967C221.526 153.098 222.949 151.195 223.479 150.041C223.748 149.389 224.254 148.865 224.896 148.574C224.44 148.418 224.677 146.59 224.359 146.334C224.359 146.334 222.699 147.014 222.356 147.601Z" fill="#F28F8F"/>
<path d="M222.105 155.838C222.985 155.182 223.017 154.377 223.185 153.098C223.353 151.819 226.879 150.434 226.991 151.388C227.104 152.343 227.422 153.142 226.367 154.303C225.313 155.463 223.715 156.699 222.105 155.838Z" fill="#F28F8F"/>
<path d="M249.162 117.786C249.162 117.786 254.379 118.242 255.402 118.728C256.426 119.215 258.129 122.16 256.607 126.435C255.084 130.709 253.699 135.739 253.855 136.749C254.011 137.76 257.649 142.989 257.649 142.989C256.645 143.73 255.51 144.274 254.304 144.593L252.432 140.525L252.869 144.849C250.989 145.306 249.057 145.516 247.122 145.473C247.122 145.473 245.356 128.862 249.162 117.786Z" fill="#44A2C6"/>
<path d="M262.017 138.159C262.435 135.701 262.017 134.896 261.156 132.487L256.788 135.314C257.147 136.223 257.357 137.184 257.412 138.159C257.375 138.871 256.408 145.922 255.503 148.381C255.34 148.818 255.019 149.178 254.604 149.391C253.705 149.941 252.889 150.618 252.183 151.401C251.515 152.025 250.979 152.137 251.047 152.349C251.151 152.579 251.335 152.763 251.565 152.866C251.796 152.968 252.056 152.982 252.295 152.905C252.839 152.728 253.36 152.489 253.849 152.193C253.416 153.111 252.839 153.954 252.139 154.689C250.536 156.399 250.392 157.51 253.387 157.741C255.259 157.884 256.826 156.836 258.517 152.811C259.041 151.335 259.472 149.829 259.808 148.299C260.719 144.811 261.606 140.637 262.017 138.159Z" fill="#FFA8A7"/>
<path d="M255.402 118.729C257.505 119.671 258.104 121.53 258.884 124.263C259.664 126.997 262.11 135.196 262.11 135.196C262.11 135.196 260.014 137.692 257.118 136.993L253.374 127.901C253.374 127.901 251.627 121.967 255.402 118.729Z" fill="#44A2C6"/>
</svg>
