<svg width="30" height="30" viewBox="0 0 30 30" fill="none" xmlns="http://www.w3.org/2000/svg">
<path fill-rule="evenodd" clip-rule="evenodd" d="M12.9543 3.43709C13.0528 3.43115 13.1572 3.43115 13.2925 3.43115H16.7084C16.8425 3.43115 16.9469 3.43115 17.0466 3.43709C17.663 3.47456 18.2562 3.68623 18.7572 4.04749C19.2581 4.40875 19.6462 4.90477 19.8764 5.47788C19.9132 5.56924 19.9476 5.66772 19.9891 5.79586L19.9927 5.80773C20.0923 6.07351 20.319 6.37607 20.6369 6.61811C20.6725 6.6454 20.7081 6.67032 20.7437 6.69405C23.2983 6.69761 24.6331 6.74388 25.5515 7.49257C25.7413 7.64681 25.9133 7.81886 26.0664 8.00751C26.8649 8.98876 26.8649 10.4422 26.8649 13.3492C26.8649 14.0872 26.8649 14.455 26.6869 14.7433C26.6519 14.7995 26.6122 14.8527 26.5683 14.9023C26.3429 15.1562 25.9905 15.2618 25.2845 15.4742L19.7459 17.1353V16.1861C19.7459 15.5567 19.4959 14.9532 19.0508 14.5081C18.6058 14.0631 18.0022 13.8131 17.3729 13.8131H12.6268C11.9975 13.8131 11.3939 14.0631 10.9489 14.5081C10.5038 14.9532 10.2538 15.5567 10.2538 16.1861V17.1353L4.71519 15.4742C4.00922 15.2618 3.65564 15.1562 3.43139 14.9023C3.38748 14.8527 3.34779 14.7995 3.31274 14.7433C3.13477 14.455 3.13477 14.0872 3.13477 13.3492C3.13477 10.4422 3.13477 8.98876 3.93329 8.00751C4.08753 7.81767 4.25958 7.64563 4.44823 7.49257C5.36777 6.74507 6.70141 6.69761 9.25715 6.69405C9.29274 6.67032 9.32834 6.6454 9.36393 6.61811C9.68073 6.37607 9.90854 6.07232 10.007 5.80773C10.0521 5.67247 10.0853 5.57043 10.1233 5.47669C10.3537 4.9038 10.7419 4.40803 11.2428 4.04699C11.7437 3.68595 12.3368 3.47446 12.9531 3.43709M18.3434 6.4781C18.3719 6.55167 18.4027 6.62286 18.4383 6.69405H11.5602C11.5946 6.62286 11.6254 6.55167 11.6551 6.4781V6.47455L11.661 6.46268L11.6669 6.44844L11.6729 6.4342L11.6764 6.42234L11.6788 6.41641L11.6836 6.40217L11.6883 6.38793L11.6907 6.38081L11.6942 6.37132L11.6966 6.36301L11.699 6.35589C11.7453 6.21826 11.7595 6.17436 11.7737 6.14114C11.8783 5.88061 12.0547 5.65511 12.2824 5.49086C12.5101 5.32661 12.7797 5.23036 13.0599 5.21329C13.0979 5.21091 13.1453 5.21091 13.315 5.21091H16.6823C16.852 5.21091 16.8994 5.21091 16.9374 5.21329C17.5093 5.24888 18.01 5.60958 18.2248 6.14114C18.2366 6.17436 18.2521 6.21589 18.2983 6.35589L18.3007 6.36301L18.3031 6.37132L18.3066 6.38081L18.309 6.38793L18.3138 6.40217L18.3185 6.41641L18.3209 6.42234L18.3256 6.4342L18.3304 6.44844L18.3363 6.46268L18.3411 6.47455L18.3434 6.4781ZM17.3729 15.5929H12.6268C12.4695 15.5929 12.3186 15.6554 12.2073 15.7666C12.0961 15.8779 12.0336 16.0288 12.0336 16.1861V18.7513C12.0336 18.8698 12.0691 18.9856 12.1355 19.0837C12.2019 19.1818 12.2962 19.2578 12.4061 19.3019L13.2367 19.6341C14.3685 20.087 15.6312 20.087 16.763 19.6341L17.5936 19.3019C17.7035 19.2578 17.7978 19.1818 17.8642 19.0837C17.9306 18.9856 17.9661 18.8698 17.9661 18.7513V16.1861C17.9661 16.0288 17.9036 15.8779 17.7924 15.7666C17.6811 15.6554 17.5302 15.5929 17.3729 15.5929ZM10.2657 18.9981L4.32839 17.216C4.36399 20.9108 4.57993 24.3149 5.88509 25.4741C7.44891 26.8647 9.96668 26.8647 14.9998 26.8647C20.0342 26.8647 22.5508 26.8647 24.1146 25.4741C25.4198 24.3149 25.6357 20.9108 25.6713 17.216L19.7328 18.997C19.6881 19.427 19.5268 19.8367 19.2662 20.1817C19.0057 20.5267 18.6558 20.794 18.2544 20.9547L17.4239 21.2869C15.8678 21.9095 14.1319 21.9095 12.5758 21.2869L11.7453 20.9547C11.3439 20.794 10.994 20.5267 10.7334 20.1817C10.4729 19.8367 10.3116 19.427 10.2669 18.997" fill="#44A2C6"/>
</svg>
